<svg xmlns="http://www.w3.org/2000/svg"><defs><font id="Calibre-Semibold" horiz-adv-x="520"><font-face font-family="Calibre Semibold" font-weight="600" panose-1="2 11 7 3 3 2 2 6 2 3" ascent="1900" descent="-350" x-height="447" cap-height="614" bbox="-120 -225 957 906" underline-thickness="30" underline-position="-160" unicode-range="U+0020-FB02"/><glyph glyph-name="f_f" unicode="ff" horiz-adv-x="617" d="M607 647V542q-17 12-44 12-28 0-44.5-16T502 492v-45h93V347h-93V0H380v347H211V0H89v347H16v100h73v47q0 75 43 117t115 42q42 0 69-12V536q-17 12-44 12-28 0-44.5-15.5T211 488v-41h169v53q0 75 43 117t115 42q42 0 69-12z"/><glyph glyph-name=".notdef" horiz-adv-x="608"/><glyph glyph-name=".null" horiz-adv-x="0"/><glyph glyph-name="nonmarkingreturn" horiz-adv-x="333"/><glyph glyph-name="space" horiz-adv-x="212"/><glyph glyph-name="exclam" unicode="!" horiz-adv-x="217" d="M30 70q0 33 22.5 55.5T108 148t56-22.5T187 70q0-32-23-54.5T108-7 52.5 15.5 30 70zm33 128L33 614h151l-30-416H63z"/><glyph glyph-name="quotedbl" unicode="&quot;" horiz-adv-x="327" d="M38 366v248h101V366H38zm150 0v248h101V366H188z"/><glyph glyph-name="numbersign" unicode="#" horiz-adv-x="616" d="m552 245-18-86H430L392 0h-99l38 159H213L175 0H78l38 159H20l19 86h97l30 124H64l18 86h104l38 159h98l-39-159h118l39 159h98l-38-159h96l-19-86h-97l-30-124h102zM263 369l-30-124h118l30 124H263z"/><glyph glyph-name="dollar" unicode="$" horiz-adv-x="502" d="M205-89V8Q131 20 83.5 64.5T23 180h124q25-74 114-74 43 0 68 19t25 52q0 28-17 43.5T281 245l-98 24Q37 303 37 432q0 70 46 117.5T205 607v91h106v-95q65-15 104.5-56.5T468 442H349q-23 67-106 67-40 0-63.5-18.5T156 441q0-47 64-64l104-25q150-37 150-168 0-71-44.5-117.5T311 8v-97H205z"/><glyph glyph-name="percent" unicode="%" horiz-adv-x="670" d="m103 0 380 614h84L187 0h-84zm7 481q0-24 17-41t42-17q24 0 41.5 17t17.5 41q0 25-17.5 42.5T169 541q-25 0-42-17.5T110 481zm533-348q0-59-41.5-101T501-10 400.5 32 359 133t41.5 100T501 274t100.5-41T643 133zM311 481q0-59-41.5-100T169 340 68.5 381 27 481t41.5 101T169 624t100.5-42T311 481zm249-348q0 24-17 41t-42 17-42.5-17-17.5-41q0-25 17.5-42.5T501 73t42 17.5 17 42.5z"/><glyph glyph-name="ampersand" unicode="&amp;" horiz-adv-x="607" d="M467 465H345q0 25-16 43t-45 18-49-18.5-20-47.5q0-16 8.5-33.5T241 398t27-30l138-153q17 50 18 102h112q-1-100-54-186L600 0H450l-43 47q-73-57-163-57-94 0-151.5 53T35 182q0 51 27.5 94t73.5 68q-40 55-40 114 0 75 52.5 120.5T284 624t132-45 51-114zM245 89q53 0 95 31L202 270q-52-27-52-88 0-41 25.5-67T245 89z"/><glyph glyph-name="quotesingle" unicode="'" horiz-adv-x="182" d="M38 366v248h106V366H38z"/><glyph glyph-name="parenleft" unicode="(" horiz-adv-x="325" d="M30 283q0 139 74 237.5T305 650V525q-71-19-114-83t-43-159 43-159 114-83V-84Q178-53 104 45.5T30 283z"/><glyph glyph-name="parenright" unicode=")" horiz-adv-x="325" d="M295 283q0-139-74-237.5T20-84V41q71 19 114 83t43 159-43 159-114 83v125q127-31 201-129.5T295 283z"/><glyph glyph-name="asterisk" unicode="*" horiz-adv-x="346" d="m109 500-82 47 32 56 82-48v95h64v-95l82 48 32-56-83-47 83-47-32-56-82 48v-95h-64v95l-82-48-32 56z"/><glyph glyph-name="plus" unicode="+" horiz-adv-x="560" d="M233 515h95V347h168v-96H328V84h-95v167H64v96h169v168z"/><glyph glyph-name="comma" unicode="," horiz-adv-x="210" d="M14-109 87 3Q61 8 44 27T27 75q0 33 22.5 54.5T105 151q34 0 56-22.5T183 66q0-42-32-90l-57-85H14z"/><glyph glyph-name="hyphen" unicode="-" horiz-adv-x="317" d="M38 208v108h241V208H38z"/><glyph glyph-name="period" unicode="." horiz-adv-x="210" d="M27 73q0 34 22.5 56.5T105 152t55.5-22.5T183 73t-22.5-57T105-7 49.5 16 27 73z"/><glyph glyph-name="slash" unicode="/" horiz-adv-x="373" d="m5-84 248 734h115L120-84H5z"/><glyph glyph-name="zero" unicode="0" horiz-adv-x="548" d="M274-10Q166-10 99 78T32 307t67 229 175 88 175-88 67-229-67-229-175-88zm0 520q-59 0-88-56t-29-147 29-147 88-56 88 56 29 147-29 147-88 56z"/><glyph glyph-name="one" unicode="1" horiz-adv-x="345" d="M285 614V0H160v468L17 397v125l187 92h81z"/><glyph glyph-name="two" unicode="2" horiz-adv-x="479" d="M316 436q0 33-21 53.5T238 510q-37 0-58.5-23.5T156 425H24q9 88 66.5 143.5T237 624q96 0 151-49.5T443 441q0-36-20-74.5t-39.5-61T321 238L203 111h247V0H25v83l195 205q67 74 82 101 14 25 14 47z"/><glyph glyph-name="three" unicode="3" horiz-adv-x="474" d="M189 263v99h35q41 0 66.5 20t25.5 57q0 33-21.5 54.5T236 515q-40 0-63.5-23.5T146 431H22q9 84 67 138.5T237 624q92 0 146-49.5T437 445q0-44-21-80.5T362 312q41-18 63-54t22-80q0-82-57-135T237-10q-98 0-160 55T10 190h126q5-42 30.5-66.5T236 99q39 0 64 22.5t25 58.5q0 38-27 60.5T228 263h-39z"/><glyph glyph-name="four" unicode="4" d="M358 614 158 227h136v127h114V227h93V122h-93V0H294v122H21v92l212 400h125z"/><glyph glyph-name="five" unicode="5" horiz-adv-x="486" d="M247 300q-52 0-88-41H59v355h360V503H163V378q41 28 99 28 89 0 143.5-57T460 200q0-94-58.5-152T249-10q-96 0-156 54.5T26 190h124q5-42 30.5-66.5T249 99q41 0 66 28t25 73q0 44-25 72t-68 28z"/><glyph glyph-name="six" unicode="6" horiz-adv-x="510" d="M474 459H350q-19 60-81 60-53 0-86-52t-33-120v-9q15 29 50 47t79 18q90 0 145-58.5T479 201q0-90-58.5-150.5T262-10Q137-10 76 101q-43 75-43 193 0 146 63.5 238T268 624q85 0 137-43t69-122zM161 198q0-46 28-74.5T263 95q44 0 72.5 28.5T364 198q0 48-28 77t-73 29q-46 0-74-29t-28-77z"/><glyph glyph-name="seven" unicode="7" horiz-adv-x="457" d="M431 523 230 0H101l197 502H16v112h415v-91z"/><glyph glyph-name="eight" unicode="8" horiz-adv-x="499" d="M250 91q42 0 69.5 23.5T347 178t-27.5 63.5T250 265q-43 0-70.5-23.5T152 178t27.5-63.5T250 91zm0 278q35 0 59 21t24 56q0 36-24 57.5T250 525q-36 0-60-21.5T166 446q0-35 24-56t60-21zm0-379q-95 0-158 48T29 168q0 56 30.5 95t76.5 52q-40 17-64 53t-24 83q0 81 58.5 127T250 624t143-46 58-127q0-47-24-83t-64-53q46-13 76.5-52t30.5-95q0-82-63-130T250-10z"/><glyph glyph-name="nine" unicode="9" horiz-adv-x="510" d="M36 155h124q19-60 81-60 53 0 86 52t33 120v9q-15-29-50-47t-79-18q-90 0-145 58.5T31 413q0 90 58.5 150.5T248 624q125 0 186-111 43-75 43-193 0-146-63.5-238T242-10q-85 0-137 43T36 155zm313 261q0 46-28 74.5T247 519q-44 0-72.5-28.5T146 416q0-48 28-77t73-29q46 0 74 29t28 77z"/><glyph glyph-name="colon" unicode=":" horiz-adv-x="210" d="M27 73q0 34 22.5 56.5T105 152t55.5-22.5T183 73t-22.5-57T105-7 49.5 16 27 73zm0 285q0 34 22.5 56.5T105 437t55.5-22.5T183 358t-22.5-57-55.5-23-55.5 23T27 358z"/><glyph glyph-name="semicolon" unicode=";" horiz-adv-x="210" d="M14-109 87 3Q61 8 44 27T27 75q0 33 22.5 54.5T105 151q34 0 56-22.5T183 66q0-42-32-90l-57-85H14zm13 467q0 34 22.5 56.5T105 437t55.5-22.5T183 358t-22.5-57-55.5-23-55.5 23T27 358z"/><glyph glyph-name="less" unicode="&lt;" horiz-adv-x="441" d="M55 236v123l328 152V403L143 297l240-105V83z"/><glyph glyph-name="equal" unicode="=" horiz-adv-x="576" d="M73 175v87h431v-87H73zm0 163v88h431v-88H73z"/><glyph glyph-name="greater" unicode="&gt;" horiz-adv-x="441" d="M386 359V236L57 83v109l240 105L57 403v108z"/><glyph glyph-name="question" unicode="?" horiz-adv-x="456" d="M155 70q0 33 23 55.5t56 22.5 56-22.5T313 70q0-32-23-54.5T234-7t-56 22.5T155 70zm281 373q0-16-3-30.5t-10-29-12-24.5-17.5-25-18-21.5-21-23T335 269q-36-38-36-71H176q2 36 13.5 60t42.5 60q5 6 25 27.5t27 30.5 15 26 8 34q0 33-20.5 53.5T230 510q-37 0-58-24t-23-61H17q9 88 67 143.5T233 624q94 0 148.5-49T436 443z"/><glyph glyph-name="at" unicode="@" horiz-adv-x="768" d="m574 386-41-236q-7-47 30-47 46 0 74 46t28 125q0 104-72 164t-186 60q-133 0-217-85.5T106 190q0-61 18.5-109T173 3t70.5-49.5 81-27.5 83.5-8q116 0 224 48v-73q-94-47-224-47-76 0-143 20.5T143-73 56 35 24 190q0 161 107 271t276 110q148 0 242-84.5T743 274q0-117-59-180T540 31q-76 0-112 53-14-24-41-38t-56-14q-62 0-99 43t-37 108q0 86 52.5 149T380 395q28 0 51.5-10.5T465 358l6 28h103zM430 166l18 100q-5 16-20.5 26.5T391 303q-38 0-62.5-33T304 191q0-29 15-47.5t43-18.5q42 0 68 41z"/><glyph glyph-name="A" unicode="A" horiz-adv-x="627" d="M250 614h127L612 0H482l-55 148H197L143 0H15zm62-154-75-204h150z"/><glyph glyph-name="B" unicode="B" horiz-adv-x="553" d="M420 317q44-14 72-53.5t28-89.5q0-84-54.5-129T314 0H59v614h235q98 0 152.5-43T501 447q0-48-23-82.5T420 317zm-238 45h104q93 0 93 73 0 71-93 71H182V362zm0-100V108h121q44 0 68 20.5t24 56.5-23.5 56.5T303 262H182z"/><glyph glyph-name="C" unicode="C" horiz-adv-x="599" d="M29 307q0 140 81 228.5T315 624q106 0 172.5-56.5T572 416H445q-35 94-130 94-72 0-114-56.5T159 307q0-89 42-146t114-57q95 0 130 95h127q-18-96-84.5-152.5T315-10q-124 0-205 88.5T29 307z"/><glyph glyph-name="D" unicode="D" horiz-adv-x="609" d="M186 113h85q87 0 134 52t47 142q0 91-47 143t-134 52h-85V113zM59 0v614h217q139 0 221-83t82-224-82-224T276 0H59z"/><glyph glyph-name="E" unicode="E" horiz-adv-x="516" d="M59 614h417V502H185V368h264V259H185V113h291V0H59v614z"/><glyph glyph-name="F" unicode="F" horiz-adv-x="501" d="M186 0H59v614h409V502H186V346h261V235H186V0z"/><glyph glyph-name="G" unicode="G" horiz-adv-x="621" d="M467 220H350v102h242v-54q0-126-74.5-202T325-10q-129 0-212.5 88.5T29 307t83.5 228.5T322 624q108 0 175-56.5T582 416H453q-36 94-131 94-75 0-119-56.5T159 307q0-91 45-147.5T325 103q58 0 94.5 31.5T467 220z"/><glyph glyph-name="H" unicode="H" horiz-adv-x="652" d="M465 614h128V0H465v258H187V0H59v614h128V370h278v244z"/><glyph glyph-name="I" unicode="I" horiz-adv-x="245" d="M187 614V0H59v614h128z"/><glyph glyph-name="J" unicode="J" horiz-adv-x="509" d="M15 195h132q8-89 90-89 95 0 95 117v391h128V222q0-114-60-173T238-10Q137-10 79 46T15 195z"/><glyph glyph-name="K" unicode="K" horiz-adv-x="593" d="M187 614V338l231 276h155L339 339 582 0H427L245 251l-58-69V0H59v614h128z"/><glyph glyph-name="L" unicode="L" horiz-adv-x="507" d="M59 0v614h128V113h286V0H59z"/><glyph glyph-name="M" unicode="M" horiz-adv-x="747" d="M418 0h-87L179 401V0H59v614h152l164-433 163 433h150V0H567v401z"/><glyph glyph-name="N" unicode="N" horiz-adv-x="632" d="M573 614V0H472L182 409V0H59v614h120l271-388v388h123z"/><glyph glyph-name="O" unicode="O" horiz-adv-x="640" d="M610 307q0-138-81.5-227.5T319-10 110 79.5 29 307q0 139 81 228t209 89 209.5-89.5T610 307zm-129 0q0 91-44.5 147T319 510q-72 0-116-56t-44-147 44-147 116-56q73 0 117.5 56T481 307z"/><glyph glyph-name="P" unicode="P" horiz-adv-x="552" d="M309 213H186V0H59v614h250q99 0 157.5-52.5T525 413t-58.5-148T309 213zm90 200q0 43-25 67.5T301 505H186V322h115q48 0 73 25t25 66z"/><glyph glyph-name="Q" unicode="Q" horiz-adv-x="639" d="m494-43-50 62q-56-29-125-29-128 0-209 89.5T29 307q0 139 81 228t209 89 209.5-89.5T610 307q0-135-83-226l49-60zm-13 350q0 91-44.5 147T319 510q-72 0-116-56t-44-147 44-148.5T319 101q31 0 53 7l-50 63 82 63 48-60q29 50 29 133z"/><glyph glyph-name="R" unicode="R" horiz-adv-x="563" d="M253 229h-67V0H59v614h253q99 0 157-51t58-144q0-72-37-118.5T387 238L549 0H405zm-67 276V334h118q47 0 72 23t25 62q0 40-25 63t-72 23H186z"/><glyph glyph-name="S" unicode="S" horiz-adv-x="530" d="M17 175h132q25-79 122-79 47 0 75 20.5t28 56.5q0 28-17.5 44T299 242l-110 25Q33 302 33 435q0 83 62 136t159 53q102 0 163.5-48.5T495 446H368q-25 73-113 73-44 0-70.5-19.5T158 447q0-51 69-67l112-26q161-37 161-173 0-87-64-139T272-10q-103 0-171 49T17 175z"/><glyph glyph-name="T" unicode="T" horiz-adv-x="575" d="M26 502v112h524V502H352V0H223v502H26z"/><glyph glyph-name="U" unicode="U" horiz-adv-x="610" d="M305-10q-117 0-186 66.5T50 247v367h128V260q0-155 127-155t127 155v354h128V247q0-124-68.5-190.5T305-10z"/><glyph glyph-name="V" unicode="V" horiz-adv-x="614" d="M369 0H245L15 614h135l159-444 159 444h132z"/><glyph glyph-name="W" unicode="W" horiz-adv-x="794" d="M349 614h100l106-413 101 413h126L622 0H505L397 405 289 0H172L12 614h129l100-413z"/><glyph glyph-name="X" unicode="X" horiz-adv-x="586" d="M569 614 366 315 579 0H435L291 213 148 0H7l213 313L17 614h145l132-199 135 199h140z"/><glyph glyph-name="Y" unicode="Y" horiz-adv-x="593" d="m299 354 148 260h135L359 233V0H232v233L11 614h139z"/><glyph glyph-name="Z" unicode="Z" horiz-adv-x="554" d="M514 113V0H40v93l308 409H45v112h465v-92L204 113h310z"/><glyph glyph-name="bracketleft" unicode="[" horiz-adv-x="322" d="M175 543V23h127V-84H59v734h243V543H175z"/><glyph glyph-name="backslash" unicode="\" horiz-adv-x="373" d="M120 650 368-84H253L5 650h115z"/><glyph glyph-name="bracketright" unicode="]" horiz-adv-x="322" d="M147 23v520H20v107h243V-84H20V23h127z"/><glyph glyph-name="asciicircum" unicode="^" horiz-adv-x="409" d="M148 614h113l138-220H283l-78 126-79-126H10z"/><glyph glyph-name="underscore" unicode="_" horiz-adv-x="381" d="M20-143v101h341v-101H20z"/><glyph glyph-name="grave" unicode="`" horiz-adv-x="500" d="M351 508H238l-89 142h123z"/><glyph glyph-name="a" unicode="a" horiz-adv-x="468" d="M421 0H302v24q-12-12-43-22T193-8Q122-8 74.5 31T27 137q0 63 49.5 103T200 280q28 0 58-8t44-18v33q0 30-18.5 49.5T229 356q-50 0-66-42H45q10 62 61.5 102.5T233 457q89 0 138.5-45.5T421 285V0zM302 122v32q-8 18-30.5 28.5T221 193q-32 0-55.5-14T142 138t23-41 56-14q28 0 50.5 10.5T302 122z"/><glyph glyph-name="b" unicode="b" horiz-adv-x="519" d="M178 37V0H53v650h125V410q16 19 47 33t65 14q94 0 148.5-67T493 223 438.5 56.5 290-10q-34 0-65 14t-47 33zm0 260V150q11-23 33.5-37.5T262 98q49 0 78 35t29 90-29 90.5-78 35.5q-27 0-50-14.5T178 297z"/><glyph glyph-name="c" unicode="c" horiz-adv-x="459" d="M26 223q0 104 60 169t155 65q82 0 134-44t62-117H315q-5 26-24.5 40.5T241 351q-42 0-67-35t-25-93q0-57 25-92t67-35q30 0 49.5 14.5T315 151h122q-10-73-61.5-117T241-10q-95 0-155 65T26 223z"/><glyph glyph-name="d" unicode="d" horiz-adv-x="519" d="M341 0v37q-16-19-47-33t-65-14q-94 0-148.5 66.5T26 223t54.5 167T229 457q34 0 65-14t47-33v240h125V0H341zm0 150v147q-11 23-34 37.5T257 349q-49 0-78-35.5T150 223t29-90 78-35q28 0 50.5 14.5T341 150z"/><glyph glyph-name="e" unicode="e" horiz-adv-x="469" d="M326 146h115q-12-73-63.5-114.5T243-10q-97 0-157 64.5T26 223q0 101 60.5 167.5T241 457q96 0 149.5-60.5T444 235v-38H146q3-50 29-78.5T243 90q68 0 83 56zm-84 210q-76 0-93-84h173q-1 37-22 60.5T242 356z"/><glyph glyph-name="f" unicode="f" horiz-adv-x="326" d="M316 647V542q-17 12-44 12-61 0-61-62v-45h93V347h-93V0H89v347H16v100h73v53q0 75 43 117t115 42q42 0 69-12z"/><glyph glyph-name="g" unicode="g" horiz-adv-x="516" d="M339 30v26q-38-46-110-46-93 0-148 65T26 234q0 93 55 158t148 65q71 0 110-45v35h123V49q0-111-60-167.5T243-175q-87 0-142.5 42T35-16h120q15-63 88-63 96 0 96 109zm0 131v146q-28 46-84 46-49 0-77-33t-28-86 28-86.5 77-33.5q27 0 49.5 13.5T339 161z"/><glyph glyph-name="h" unicode="h" horiz-adv-x="505" d="M54 0v650h124V406q44 51 120 51 75 0 116.5-45T456 292V0H332v266q0 36-18.5 57.5T259 345q-29 0-51.5-16.5T178 283V0H54z"/><glyph glyph-name="i" unicode="i" horiz-adv-x="232" d="M178 447V0H54v447h124zm11 129q0-31-21.5-51T116 505q-31 0-52.5 20T42 576q0 30 22 50.5t52 20.5 51.5-20.5T189 576z"/><glyph glyph-name="j" unicode="j" horiz-adv-x="230" d="M178 447V-18q0-75-40-116T22-175q-33 0-48 5v99q21-3 27-3 53 0 53 57v464h124zm11 129q0-31-21.5-51T116 505q-31 0-52.5 20T42 576q0 30 22 50.5t52 20.5 51.5-20.5T189 576z"/><glyph glyph-name="k" unicode="k" horiz-adv-x="499" d="M345 0 214 180l-36-39V0H54v650h124V281l153 166h154L304 257 492 0H345z"/><glyph glyph-name="l" unicode="l" horiz-adv-x="232" d="M178 650V0H54v650h124z"/><glyph glyph-name="m" unicode="m" horiz-adv-x="742" d="M411 400q52 57 135 57 69 0 108-44.5T693 292V0H569v266q0 37-16.5 58.5T505 346q-25 0-44-15t-25-43V0H311v266q0 80-63 80-25 0-44.5-15.5T178 288V0H54v447h124v-37q37 47 113 47 77 0 120-57z"/><glyph glyph-name="n" unicode="n" horiz-adv-x="505" d="M54 0v447h124v-41q44 51 120 51 75 0 116.5-45T456 292V0H332v266q0 36-18.5 57.5T259 345q-29 0-51.5-16.5T178 283V0H54z"/><glyph glyph-name="o" unicode="o" horiz-adv-x="489" d="M464 223q0-103-61-168T245-10 87 55 26 223q0 104 61 169t158 65 158-65 61-169zm-123 0q0 58-25.5 93.5T245 352t-70.5-35.5T149 223q0-57 25.5-92.5T245 95t70.5 35.5T341 223z"/><glyph glyph-name="p" unicode="p" horiz-adv-x="519" d="M178 37v-202H54v612h124v-37q16 19 47 33t65 14q94 0 149-67.5T494 223 439 57 290-10q-34 0-65 14t-47 33zm0 260V150q11-23 34-37.5T262 98q49 0 78 35t29 90-29 90.5-78 35.5q-27 0-49.5-14.5T178 297z"/><glyph glyph-name="q" unicode="q" horiz-adv-x="519" d="M341-165V37q-16-19-47-33t-65-14q-94 0-149 67T25 223t55 166.5T229 457q34 0 65-14t47-33v37h124v-612H341zm0 315v147q-12 23-34.5 37.5T257 349q-49 0-78-35.5T150 223t29-90 78-35q27 0 50 14.5t34 37.5z"/><glyph glyph-name="r" unicode="r" horiz-adv-x="351" d="M325 449V325q-25 15-62 15-32 0-55-16.5T178 277V0H54v447h124v-44q32 54 100 54 33 0 47-8z"/><glyph glyph-name="s" unicode="s" horiz-adv-x="437" d="M25 133h123q15-49 75-49 63 0 63 44 0 15-10.5 23.5T241 166l-90 20Q35 213 35 312q0 64 51 104.5T213 457q83 0 130.5-36.5T403 319H285q-14 44-70 44-24 0-41.5-11T156 321q0-25 40-35l92-21q119-29 119-130 0-67-51.5-106T224-10q-83 0-136 37.5T25 133z"/><glyph glyph-name="t" unicode="t" horiz-adv-x="345" d="M81 135v212H13v100h68v121h123V447h98V347h-98V151q0-51 51-51 31 0 54 15V5Q283-9 229-9q-70 0-109 36T81 135z"/><glyph glyph-name="u" unicode="u" horiz-adv-x="503" d="M450 447V0H326v41q-46-51-120-51T90.5 35 49 155v292h124V180q0-37 18-58t54-21q29 0 51 16.5t29 45.5v284h125z"/><glyph glyph-name="v" unicode="v" horiz-adv-x="485" d="M302 0H182L13 447h130l103-297 101 297h125z"/><glyph glyph-name="w" unicode="w" horiz-adv-x="672" d="m385 447 74-285 80 285h120L523 0H409l-73 274L263 0H149L13 447h124l80-285 73 285h95z"/><glyph glyph-name="x" unicode="x" horiz-adv-x="477" d="M459 447 306 231 469 0H332l-96 140L139 0H9l161 228L18 447h137l86-127 88 127h130z"/><glyph glyph-name="y" unicode="y" horiz-adv-x="487" d="M241-165H119L184-2 13 447h131l103-297 102 297h125z"/><glyph glyph-name="z" unicode="z" horiz-adv-x="453" d="M412 100V0H38v80l215 267H46v100h362v-80L197 100h215z"/><glyph glyph-name="braceleft" unicode="{" horiz-adv-x="353" d="M213 200V52q0-29 29-29h91V-84H225q-57 0-93 36T96 46v154q0 29-29 29H20v108h47q29 0 29 29v154q0 58 36 94t93 36h108V543h-91q-29 0-29-29V366q0-54-47-83 47-29 47-83z"/><glyph glyph-name="bar" unicode="|" horiz-adv-x="228" d="M59-84v734h110V-84H59z"/><glyph glyph-name="braceright" unicode="}" horiz-adv-x="353" d="M140 52v148q0 54 47 83-47 29-47 83v148q0 29-29 29H20v107h108q57 0 93-36t36-94V366q0-29 29-29h47V229h-47q-29 0-29-29V46q0-58-36-94t-93-36H20V23h91q29 0 29 29z"/><glyph glyph-name="asciitilde" unicode="~" horiz-adv-x="428" d="M304 347h88q0-72-28-112t-78-40q-27 0-50.5 14.5t-42 29.5-33.5 15q-36 0-36-55H36q0 72 28 112t78 40q34 0 72-29.5t54-29.5q36 0 36 55z"/><glyph glyph-name="uni00A0" horiz-adv-x="212"/><glyph glyph-name="exclamdown" unicode="¡" horiz-adv-x="224" d="M30 448q0 32 22.5 54.5T108 525t56-22.5 23-54.5q0-33-23-55.5T108 370t-55.5 22.5T30 448zm3-544 30 416h91l30-416H33z"/><glyph glyph-name="cent" unicode="¢" horiz-adv-x="459" d="M26 233q0 89 45 150.5T191 462v90h106v-91q60-14 96-56.5T436 300H315q-4 28-24 44.5T241 361q-42 0-67-35t-25-93q0-57 25-92t67-35q30 0 50 16t24 44h121q-7-62-43-104.5T297 6v-93H191V5Q116 21 71 82.5T26 233z"/><glyph glyph-name="sterling" unicode="£" horiz-adv-x="497" d="M218 424v-73h128v-97H218v-60q0-63-21-91h276V0H27v103h52q20 35 20 91v60H27v97h72v71q0 87 52.5 144.5T291 624q79 0 127.5-45.5T474 458H359q-6 61-67 61-36 0-55-26t-19-69z"/><glyph glyph-name="yen" unicode="¥" horiz-adv-x="561" d="M65 256v84h105L19 614h137l127-242 127 242h132L389 340h106v-84H343v-56h152v-84H343V0H217v116H65v84h152v56H65z"/><glyph glyph-name="section" unicode="§" horiz-adv-x="471" d="M382 104q21-29 21-66 0-63-47.5-100.5T231-100q-83 0-131 39T44 47h113q9-55 71-55 24 0 40.5 11T285 35q0 17-11 28.5T238 90l-110 67q-52 31-80 65t-28 82q0 78 69 116-21 27-21 66 0 63 47.5 100.5T239 624q84 0 132-39t56-108H314q-9 55-71 55-24 0-41-11t-17-32q0-17 11-28t36-27l111-67q52-31 80-65t28-82q0-78-69-116zM183 247l122-78q34 9 34 45 0 29-52 63l-121 78q-34-8-34-45 0-30 51-63z"/><glyph glyph-name="dieresis" unicode="¨" horiz-adv-x="500" d="M101 570q0 28 19.5 47.5T168 637q27 0 46.5-19.5T234 570q0-27-19.5-46.5T168 504q-28 0-47.5 19.5T101 570zm164 0q0 28 19.5 47.5T331 637t47-19.5 20-47.5q0-27-20-46.5T331 504t-46.5 19.5T265 570z"/><glyph glyph-name="copyright" unicode="©" horiz-adv-x="704" d="M669 307q0-136-92.5-226.5T352-10 127.5 80.5 35 307t92.5 226.5T352 624t224.5-90.5T669 307zm-47 0q0 116-79 193.5T352 578t-191-77.5T82 307t79-193.5T352 36t191 77.5T622 307zm-454 2q0 88 52.5 143.5T355 508q71 0 114-37.5t54-99.5H418q-14 43-63 43-39 0-61-29.5T272 309t22-76 61-30q49 0 63 44h105q-11-62-54-99.5T355 110q-82 0-134.5 55.5T168 309z"/><glyph glyph-name="ordfeminine" unicode="ª" horiz-adv-x="308" d="M288 317h-95v15q-23-21-73-21-47 0-79 26T9 408q0 43 33 70t83 27q40 0 68-17v20q0 16-10.5 27T152 546q-32 0-38-24H23q6 45 42 74t91 29q62 0 97-32t35-89V317zm-95 84v18q-12 22-46 22-18 0-30.5-8T104 410q0-30 43-30 35 0 46 21z"/><glyph glyph-name="guillemotleft" unicode="«" horiz-adv-x="420" d="M223 61H117L25 222l92 161h106l-92-161zm172 0H289l-92 161 92 161h106l-92-161z"/><glyph glyph-name="registered" unicode="®" horiz-adv-x="407" d="M384 441q0-78-53-130.5T203 258 75 310.5 22 441t53 130.5T203 624t128-52.5T384 441zm-33 0q0 66-43 109t-105 43-105-43-43-109 43-109 105-43 105 43 43 109zm-152-34h-17v-61h-54v192h90q33 0 52-18t19-49q0-45-37-58l44-67h-60zm38 64q0 22-25 22h-30v-43h30q25 0 25 21z"/><glyph glyph-name="macron" unicode="¯" horiz-adv-x="500" d="M131 516v91h237v-91H131z"/><glyph glyph-name="degree" unicode="°" horiz-adv-x="357" d="M119 487q0-25 17.5-43t42.5-18q24 0 41.5 18t17.5 43-17.5 43.5T179 549q-25 0-42.5-18T119 487zm195 0q0-56-39.5-96T179 351t-95.5 40T44 487q0 57 39.5 97t95.5 40 95.5-40 39.5-97z"/><glyph glyph-name="plusminus" unicode="±" horiz-adv-x="569" d="M240 548h90V418h164v-90H330V198h-90v130H75v90h165v130zM75 62v91h419V62H75z"/><glyph glyph-name="twosuperior" unicode="²" horiz-adv-x="298" d="M181 509q0 13-8.5 21t-22.5 8-23.5-10-9.5-24H21q5 50 39.5 82.5T149 619q56 0 89.5-29.5T272 512q0-21-10-41t-21-32.5-33-33.5l-58-55h122v-77H24v60l118 116q39 37 39 60z"/><glyph glyph-name="threesuperior" unicode="³" horiz-adv-x="295" d="M119 412v66h23q41 0 41 33 0 15-9.5 24t-25.5 9-26-11-12-27H21q6 48 38.5 80.5T145 619q57 0 89.5-29t32.5-77q0-21-10.5-40.5T231 444q40-20 40-68 0-49-33.5-79T146 267q-57 0-91.5 31.5T17 383h93q1-18 11-29t28-11q17 0 27 10t10 26q0 33-40 33h-27z"/><glyph glyph-name="acute" unicode="´" horiz-adv-x="500" d="M261 508H149l79 142h123z"/><glyph glyph-name="paragraph" unicode="¶" horiz-adv-x="538" d="M388-90v704h91V-90h-91zm-155 0v349q-88 0-154 45.5T13 437t66 132 154 45h91V-90h-91z"/><glyph glyph-name="periodcentered" unicode="·" horiz-adv-x="214" d="M29 263q0 34 22.5 56.5T107 342t55.5-22.5T185 263t-22.5-57-55.5-23-55.5 23T29 263z"/><glyph glyph-name="cedilla" unicode="¸" horiz-adv-x="500" d="M265-186H155l70 139h114z"/><glyph glyph-name="onesuperior" unicode="¹" horiz-adv-x="237" d="M196 614V273h-91v237l-87-43v92l115 55h63z"/><glyph glyph-name="ordmasculine" unicode="º" horiz-adv-x="324" d="M315 468q0-70-42.5-114T162 310 51 354 8 468q0 69 43 113t111 44 110.5-44T315 468zm-101 0q0 32-14 52.5T162 541t-38-20.5-14-52.5q0-33 14-53t38-20 38 20 14 53z"/><glyph glyph-name="guillemotright" unicode="»" horiz-adv-x="420" d="M303 61H197l92 161-92 161h106l92-161zm-172 0H25l92 161-92 161h106l92-161z"/><glyph glyph-name="onequarter" unicode="¼" horiz-adv-x="702" d="M599 614 168 0H78l431 614h90zm-390 0V273h-90v237l-88-43v92l115 55h63zm369-273-96-204h53v55h80v-55h47V61h-47V0h-80v61H383v69l106 211h89z"/><glyph glyph-name="onehalf" unicode="½" horiz-adv-x="716" d="M599 614 168 0H78l431 614h90zm-390 0V273h-90v237l-88-43v92l115 55h63zm365-378q0 14-8 22t-22 8-23.5-10-10.5-24h-95q5 50 39.5 82t87.5 32q57 0 90-29t33-77q0-21-10.5-42t-20-31.5T602 132l-58-54h122V0H417v61l119 115q38 40 38 60z"/><glyph glyph-name="threequarters" unicode="¾" horiz-adv-x="736" d="M632 614 202 0h-90l431 614h89zM140 412v66h23q41 0 41 33 0 15-9 24t-25 9-26.5-11-12.5-27H42q6 49 38.5 81t86.5 32q56 0 89-29t33-77q0-21-10.5-40.5T252 444q40-20 40-68 0-49-33-79t-91-30-92.5 31.5T38 383h93q1-18 11.5-29t27.5-11 27.5 10 10.5 26q0 33-41 33h-27zm472-71-97-204h54v55h79v-55h48V61h-48V0h-79v61H417v69l105 211h90z"/><glyph glyph-name="questiondown" unicode="¿" horiz-adv-x="456" d="M301 448q0-33-23-55.5T222 370t-56 22.5-23 55.5q0 32 23 54.5t56 22.5 56-22.5 23-54.5zM20 75q0 16 3 30.5t10 29T45 159t17.5 25 18 21.5 21 23T121 249q36 38 36 71h123q-2-36-13.5-60T224 200q-5-6-25-27.5T172 142t-15-26-8-34q0-33 20.5-53.5T226 8q37 0 58 24t23 61h132q-9-88-67-143.5T223-106q-94 0-148.5 49T20 75z"/><glyph glyph-name="Agrave" unicode="À" horiz-adv-x="627" d="M250 614h127L612 0H482l-55 148H197L143 0H15zm129 55H257l-93 122h135zm-67-209-75-204h150z"/><glyph glyph-name="Aacute" unicode="Á" horiz-adv-x="627" d="M250 614h127L612 0H482l-55 148H197L143 0H15zm118 55H246l80 122h135zm-56-209-75-204h150z"/><glyph glyph-name="Acircumflex" unicode="Â" horiz-adv-x="627" d="M250 614h127L612 0H482l-55 148H197L143 0H15zm115 182 100-127H360l-47 54-47-54H161l100 127h104zm-53-336-75-204h150z"/><glyph glyph-name="Atilde" unicode="Ã" horiz-adv-x="627" d="M250 614h127L612 0H482l-55 148H197L143 0H15zm141 188h71q0-63-21-101t-64-38q-26 0-61.5 21T264 705q-28 0-29-39h-71q0 63 21 101t64 38q26 0 61.5-21t51.5-21q28 0 29 39zm-79-342-75-204h150z"/><glyph glyph-name="Adieresis" unicode="Ä" horiz-adv-x="627" d="M250 614h127L612 0H482l-55 148H197L143 0H15zm62-154-75-204h150zm17 270q0 29 19.5 48.5T396 798t48-19.5 20-48.5q0-27-20-46.5T396 664t-47.5 19.5T329 730zm-165 0q0 29 19 48.5t48 19.5q28 0 47.5-19.5T298 730q0-27-19.5-46.5T231 664t-47.5 19.5T164 730z"/><glyph glyph-name="Aring" unicode="Å" horiz-adv-x="627" d="M250 614h127L612 0H482l-55 148H197L143 0H15zm162 129q0-41-28.5-69T313 646t-70.5 28-28.5 69 28.5 69 70.5 28 70.5-28 28.5-69zM312 460l-75-204h150zm41 283q0 17-11.5 28.5T313 783q-16 0-27.5-11.5T274 743t11-28 28-11 28.5 11.5T353 743z"/><glyph glyph-name="AE" unicode="Æ" horiz-adv-x="879" d="M365 614h474V502H567V368h245V259H567V113h272V0H441v148H233L149 0H15zm76-102L295 256h146v256z"/><glyph glyph-name="Ccedilla" unicode="Ç" horiz-adv-x="599" d="M29 307q0 140 81 228.5T315 624q106 0 172.5-56.5T572 416H445q-35 94-130 94-72 0-114-56.5T159 307q0-89 42-146t114-57q95 0 130 95h127q-18-96-84.5-152.5T315-10q-124 0-205 88.5T29 307zm276-493H195l70 139h114z"/><glyph glyph-name="Egrave" unicode="È" horiz-adv-x="516" d="M338 669H216l-93 122h135zM59 614h417V502H185V368h264V259H185V113h291V0H59v614z"/><glyph glyph-name="Eacute" unicode="É" horiz-adv-x="516" d="M326 669H204l80 122h135zM59 614h417V502H185V368h264V259H185V113h291V0H59v614z"/><glyph glyph-name="Ecircumflex" unicode="Ê" horiz-adv-x="516" d="M59 614h417V502H185V368h264V259H185V113h291V0H59v614zm264 182 100-127H318l-47 54-47-54H119l100 127h104z"/><glyph glyph-name="Edieresis" unicode="Ë" horiz-adv-x="516" d="M122 730q0 29 19 48.5t48 19.5q28 0 47.5-19.5T256 730q0-27-19.5-46.5T189 664t-47.5 19.5T122 730zm165 0q0 29 19.5 48.5T354 798t48-19.5 20-48.5q0-27-20-46.5T354 664t-47.5 19.5T287 730zM59 614h417V502H185V368h264V259H185V113h291V0H59v614z"/><glyph glyph-name="Igrave" unicode="Ì" horiz-adv-x="245" d="M187 614V0H59v614h128zm2 55H67l-93 122h135z"/><glyph glyph-name="Iacute" unicode="Í" horiz-adv-x="245" d="M187 614V0H59v614h128zm-9 55H56l80 122h135z"/><glyph glyph-name="Icircumflex" unicode="Î" horiz-adv-x="245" d="M187 614V0H59v614h128zm-12 182 100-127H170l-47 54-47-54H-29L71 796h104z"/><glyph glyph-name="Idieresis" unicode="Ï" horiz-adv-x="245" d="M187 614V0H59v614h128zM-27 730q0 29 19 48.5T40 798q28 0 47.5-19.5T107 730q0-27-19.5-46.5T40 664t-47.5 19.5T-27 730zm165 0q0 29 19.5 48.5T205 798t48-19.5 20-48.5q0-27-20-46.5T205 664t-47.5 19.5T138 730z"/><glyph glyph-name="Eth" unicode="Ð" horiz-adv-x="626" d="M25 264v103h51v247h217q139 0 221-83t82-224-82-224T293 0H76v264H25zm178-151h85q87 0 134 52t47 142q0 91-47 143t-134 52h-85V367h103V264H203V113z"/><glyph glyph-name="Ntilde" unicode="Ñ" horiz-adv-x="632" d="M394 802h71q0-63-21-101t-64-38q-26 0-61.5 21T267 705q-27 0-29-39h-71q0 63 21 101t64 38q26 0 61.5-21t51.5-21q27 0 29 39zm179-188V0H472L182 409V0H59v614h120l271-388v388h123z"/><glyph glyph-name="Ograve" unicode="Ò" horiz-adv-x="640" d="M386 669H264l-93 122h135zm224-362q0-138-81.5-227.5T319-10 110 79.5 29 307q0 139 81 228t209 89 209.5-89.5T610 307zm-129 0q0 91-44.5 147T319 510q-72 0-116-56t-44-147 44-147 116-56q73 0 117.5 56T481 307z"/><glyph glyph-name="Oacute" unicode="Ó" horiz-adv-x="640" d="M374 669H252l80 122h135zm236-362q0-138-81.5-227.5T319-10 110 79.5 29 307q0 139 81 228t209 89 209.5-89.5T610 307zm-129 0q0 91-44.5 147T319 510q-72 0-116-56t-44-147 44-147 116-56q73 0 117.5 56T481 307z"/><glyph glyph-name="Ocircumflex" unicode="Ô" horiz-adv-x="640" d="M610 307q0-138-81.5-227.5T319-10 110 79.5 29 307q0 139 81 228t209 89 209.5-89.5T610 307zm-129 0q0 91-44.5 147T319 510q-72 0-116-56t-44-147 44-147 116-56q73 0 117.5 56T481 307zM371 796l100-127H366l-47 54-47-54H167l100 127h104z"/><glyph glyph-name="Otilde" unicode="Õ" horiz-adv-x="640" d="M397 802h71q0-63-21-101t-64-38q-26 0-61.5 21T270 705q-28 0-29-39h-71q0 63 21 101t64 38q26 0 61.5-21t51.5-21q28 0 29 39zm213-495q0-138-81.5-227.5T319-10 110 79.5 29 307q0 139 81 228t209 89 209.5-89.5T610 307zm-129 0q0 91-44.5 147T319 510q-72 0-116-56t-44-147 44-147 116-56q73 0 117.5 56T481 307z"/><glyph glyph-name="Odieresis" unicode="Ö" horiz-adv-x="640" d="M170 730q0 29 19 48.5t48 19.5q28 0 47.5-19.5T304 730q0-27-19.5-46.5T237 664t-47.5 19.5T170 730zm165 0q0 29 19.5 48.5T402 798t48-19.5 20-48.5q0-27-20-46.5T402 664t-47.5 19.5T335 730zm275-423q0-138-81.5-227.5T319-10 110 79.5 29 307q0 139 81 228t209 89 209.5-89.5T610 307zm-129 0q0 91-44.5 147T319 510q-72 0-116-56t-44-147 44-147 116-56q73 0 117.5 56T481 307z"/><glyph glyph-name="multiply" unicode="×" horiz-adv-x="495" d="M182 298 60 418l66 66 121-121 121 121 67-66-122-120 122-121-67-67-121 121-121-121-66 67z"/><glyph glyph-name="Oslash" unicode="Ø" horiz-adv-x="649" d="m50 31 52 63q-68 87-68 213 0 139 81 228t209 89q97 0 171-55l48 58 58-44-54-65q68-87 68-211 0-138-81.5-227.5T324-10q-97 0-169 53l-47-56zm113 276q0-67 21-113l236 284q-40 32-96 32-72 0-116.5-56.5T163 307zm323 0q0 65-21 111L230 134q39-30 94-30 73 0 117.5 56.5T486 307z"/><glyph glyph-name="Ugrave" unicode="Ù" horiz-adv-x="610" d="M371 669H249l-93 122h135zM305-10q-117 0-186 66.5T50 247v367h128V260q0-155 127-155t127 155v354h128V247q0-124-68.5-190.5T305-10z"/><glyph glyph-name="Uacute" unicode="Ú" horiz-adv-x="610" d="M360 669H238l80 122h135zM305-10q-117 0-186 66.5T50 247v367h128V260q0-155 127-155t127 155v354h128V247q0-124-68.5-190.5T305-10z"/><glyph glyph-name="Ucircumflex" unicode="Û" horiz-adv-x="610" d="M305-10q-117 0-186 66.5T50 247v367h128V260q0-155 127-155t127 155v354h128V247q0-124-68.5-190.5T305-10zm52 806 100-127H352l-47 54-47-54H153l100 127h104z"/><glyph glyph-name="Udieresis" unicode="Ü" horiz-adv-x="610" d="M156 730q0 29 19 48.5t48 19.5q28 0 47.5-19.5T290 730q0-27-19.5-46.5T223 664t-47.5 19.5T156 730zm165 0q0 29 19.5 48.5T388 798t48-19.5 20-48.5q0-27-20-46.5T388 664t-47.5 19.5T321 730zM305-10q-117 0-186 66.5T50 247v367h128V260q0-155 127-155t127 155v354h128V247q0-124-68.5-190.5T305-10z"/><glyph glyph-name="Yacute" unicode="Ý" horiz-adv-x="593" d="m299 354 148 260h135L359 233V0H232v233L11 614h139zm52 315H229l80 122h135z"/><glyph glyph-name="Thorn" unicode="Þ" horiz-adv-x="552" d="M309 114H186V0H59v614h127v-99h123q100 0 158-52t58-149q0-96-58.5-148T309 114zm90 200q0 43-25 67.5T301 406H186V223h115q48 0 73 25t25 66z"/><glyph glyph-name="germandbls" unicode="ß" horiz-adv-x="529" d="M389 361q50-17 82-63t32-109q0-91-55-142.5T305-5q-47 0-79 11v104q23-9 60-9 47 0 73 26t26 73q0 48-31.5 74.5T266 301h-36v101h31q38 0 59 19.5t21 57.5q0 33-21.5 54T262 554q-42 0-64-28.5T176 452V0H54v447q0 97 56.5 154.5T261 659t145.5-47T458 490q0-47-19.5-81.5T389 361z"/><glyph glyph-name="agrave" unicode="à" horiz-adv-x="468" d="M421 0H302v24q-12-12-43-22T193-8Q122-8 74.5 31T27 137q0 63 49.5 103T200 280q28 0 58-8t44-18v33q0 30-18.5 49.5T229 356q-50 0-66-42H45q10 62 61.5 102.5T233 457q89 0 138.5-45.5T421 285V0zM302 122v32q-8 18-30.5 28.5T221 193q-32 0-55.5-14T142 138t23-41 56-14q28 0 50.5 10.5T302 122zm2 386H191l-89 142h123z"/><glyph glyph-name="aacute" unicode="á" horiz-adv-x="468" d="M421 0H302v24q-12-12-43-22T193-8Q122-8 74.5 31T27 137q0 63 49.5 103T200 280q28 0 58-8t44-18v33q0 30-18.5 49.5T229 356q-50 0-66-42H45q10 62 61.5 102.5T233 457q89 0 138.5-45.5T421 285V0zM302 122v32q-8 18-30.5 28.5T221 193q-32 0-55.5-14T142 138t23-41 56-14q28 0 50.5 10.5T302 122zm-9 386H181l79 142h123z"/><glyph glyph-name="acircumflex" unicode="â" horiz-adv-x="468" d="m292 647 95-145h-98l-49 69-49-69H93l95 145h104zM421 0H302v24q-12-12-43-22T193-8Q122-8 74.5 31T27 137q0 63 49.5 103T200 280q28 0 58-8t44-18v33q0 30-18.5 49.5T229 356q-50 0-66-42H45q10 62 61.5 102.5T233 457q89 0 138.5-45.5T421 285V0zM302 122v32q-8 18-30.5 28.5T221 193q-32 0-55.5-14T142 138t23-41 56-14q28 0 50.5 10.5T302 122z"/><glyph glyph-name="atilde" unicode="ã" horiz-adv-x="468" d="M421 0H302v24q-12-12-43-22T193-8Q122-8 74.5 31T27 137q0 63 49.5 103T200 280q28 0 58-8t44-18v33q0 30-18.5 49.5T229 356q-50 0-66-42H45q10 62 61.5 102.5T233 457q89 0 138.5-45.5T421 285V0zM302 122v32q-8 18-30.5 28.5T221 193q-32 0-55.5-14T142 138t23-41 56-14q28 0 50.5 10.5T302 122zm11 521h71q0-63-21.5-101T298 504q-24 0-55 23t-44 23q-28 0-30-42H98q0 63 21.5 101t64.5 38q24 0 55-23t44-23q28 0 30 42z"/><glyph glyph-name="adieresis" unicode="ä" horiz-adv-x="468" d="M94 570q0 28 19.5 47.5T161 637q27 0 46.5-19.5T227 570q0-27-19.5-46.5T161 504q-28 0-47.5 19.5T94 570zm164 0q0 28 19.5 47.5T324 637t47-19.5 20-47.5q0-27-20-46.5T324 504t-46.5 19.5T258 570zM421 0H302v24q-12-12-43-22T193-8Q122-8 74.5 31T27 137q0 63 49.5 103T200 280q28 0 58-8t44-18v33q0 30-18.5 49.5T229 356q-50 0-66-42H45q10 62 61.5 102.5T233 457q89 0 138.5-45.5T421 285V0zM302 122v32q-8 18-30.5 28.5T221 193q-32 0-55.5-14T142 138t23-41 56-14q28 0 50.5 10.5T302 122z"/><glyph glyph-name="aring" unicode="å" horiz-adv-x="468" d="M421 0H302v24q-12-12-43-22T193-8Q122-8 74.5 31T27 137q0 63 49.5 103T200 280q28 0 58-8t44-18v33q0 30-18.5 49.5T229 356q-50 0-66-42H45q10 62 61.5 102.5T233 457q89 0 138.5-45.5T421 285V0zM302 122v32q-8 18-30.5 28.5T221 193q-32 0-55.5-14T142 138t23-41 56-14q28 0 50.5 10.5T302 122zm36 462q0-41-28.5-69T239 487t-70.5 28-28.5 69 28.5 69 70.5 28 70.5-28 28.5-69zm-59 0q0 16-11.5 28T239 624q-16 0-27.5-11.5T200 584q0-16 11-27.5t28-11.5 28.5 11.5T279 584z"/><glyph glyph-name="ae" unicode="æ" horiz-adv-x="731" d="M213 85q64 0 86 51v58h-80q-32 0-54.5-13.5T142 140t21-41 50-14zm375 59h115q-12-71-64-112.5T505-10q-95 0-155 62Q289-9 193-9 123-9 75 29.5T27 131q0 66 51.5 104T208 273h91v15q0 30-18.5 49.5T226 357q-54 0-68-43H45q10 62 60.5 102.5T229 457q94 0 140-59 59 59 135 59 95 0 148.5-61T706 235v-40H409q3-50 29-77.5T506 90q67 0 82 54zm-84 212q-75 0-92-84h173q-2 37-23 60.5T504 356z"/><glyph glyph-name="ccedilla" unicode="ç" horiz-adv-x="459" d="M26 223q0 104 60 169t155 65q82 0 134-44t62-117H315q-5 26-24.5 40.5T241 351q-42 0-67-35t-25-93q0-57 25-92t67-35q30 0 49.5 14.5T315 151h122q-10-73-61.5-117T241-10q-95 0-155 65T26 223zm205-409H121l70 139h114z"/><glyph glyph-name="egrave" unicode="è" horiz-adv-x="469" d="M326 146h115q-12-73-63.5-114.5T243-10q-97 0-157 64.5T26 223q0 101 60.5 167.5T241 457q96 0 149.5-60.5T444 235v-38H146q3-50 29-78.5T243 90q68 0 83 56zm-84 210q-76 0-93-84h173q-1 37-22 60.5T242 356zm65 152H194l-89 142h123z"/><glyph glyph-name="eacute" unicode="é" horiz-adv-x="469" d="M297 508H185l79 142h123zm29-362h115q-12-73-63.5-114.5T243-10q-97 0-157 64.5T26 223q0 101 60.5 167.5T241 457q96 0 149.5-60.5T444 235v-38H146q3-50 29-78.5T243 90q68 0 83 56zm-84 210q-76 0-93-84h173q-1 37-22 60.5T242 356z"/><glyph glyph-name="ecircumflex" unicode="ê" horiz-adv-x="469" d="m297 647 95-145h-98l-49 69-49-69H98l95 145h104zm29-501h115q-12-73-63.5-114.5T243-10q-97 0-157 64.5T26 223q0 101 60.5 167.5T241 457q96 0 149.5-60.5T444 235v-38H146q3-50 29-78.5T243 90q68 0 83 56zm-84 210q-76 0-93-84h173q-1 37-22 60.5T242 356z"/><glyph glyph-name="edieresis" unicode="ë" horiz-adv-x="469" d="M98 570q0 28 19.5 47.5T165 637q27 0 46.5-19.5T231 570q0-27-19.5-46.5T165 504q-28 0-47.5 19.5T98 570zm164 0q0 28 19.5 47.5T328 637t47-19.5 20-47.5q0-27-20-46.5T328 504t-46.5 19.5T262 570zm64-424h115q-12-73-63.5-114.5T243-10q-97 0-157 64.5T26 223q0 101 60.5 167.5T241 457q96 0 149.5-60.5T444 235v-38H146q3-50 29-78.5T243 90q68 0 83 56zm-84 210q-76 0-93-84h173q-1 37-22 60.5T242 356z"/><glyph glyph-name="igrave" unicode="ì" horiz-adv-x="232" d="M178 447V0H54v447h124zm-1 61H64l-89 142H98z"/><glyph glyph-name="iacute" unicode="í" horiz-adv-x="232" d="M167 508H55l79 142h123zm11-61V0H54v447h124z"/><glyph glyph-name="icircumflex" unicode="î" horiz-adv-x="232" d="m168 647 77-145h-95l-34 70-35-70h-95l78 145h104zm10-200V0H54v447h124z"/><glyph glyph-name="idieresis" unicode="ï" horiz-adv-x="232" d="M-27 570q0 28 19.5 47.5T40 637q27 0 46.5-19.5T106 570q0-27-19.5-46.5T40 504q-28 0-47.5 19.5T-27 570zm154 0q0 28 19 47.5t47 19.5q27 0 46.5-19.5T259 570q0-27-19.5-46.5T193 504q-28 0-47 19.5T127 570zm51-123V0H54v447h124z"/><glyph glyph-name="eth" unicode="ð" horiz-adv-x="489" d="m137 483-24 62 63 20q-57 47-106 81v4h157q26-18 61-49l85 28 24-62-56-18q123-140 123-315 0-111-60.5-177.5T245-10q-97 0-158 64.5T26 221t59 166 149 64q41 0 69-24h4q-17 33-73 87zm204-262q0 57-25.5 92T245 348t-70.5-35-25.5-92 25-91.5T245 95t71 34.5 25 91.5z"/><glyph glyph-name="ntilde" unicode="ñ" horiz-adv-x="505" d="M54 0v447h124v-41q44 51 120 51 75 0 116.5-45T456 292V0H332v266q0 36-18.5 57.5T259 345q-29 0-51.5-16.5T178 283V0H54zm275 643h71q0-63-21.5-101T314 504q-24 0-55 23t-44 23q-28 0-30-42h-71q0 63 21.5 101t64.5 38q24 0 55-23t44-23q28 0 30 42z"/><glyph glyph-name="ograve" unicode="ò" horiz-adv-x="489" d="M464 223q0-103-61-168T245-10 87 55 26 223q0 104 61 169t158 65 158-65 61-169zm-123 0q0 58-25.5 93.5T245 352t-70.5-35.5T149 223q0-57 25.5-92.5T245 95t70.5 35.5T341 223zm-35 285H193l-89 142h123z"/><glyph glyph-name="oacute" unicode="ó" horiz-adv-x="489" d="M295 508H183l79 142h123zm169-285q0-103-61-168T245-10 87 55 26 223q0 104 61 169t158 65 158-65 61-169zm-123 0q0 58-25.5 93.5T245 352t-70.5-35.5T149 223q0-57 25.5-92.5T245 95t70.5 35.5T341 223z"/><glyph glyph-name="ocircumflex" unicode="ô" horiz-adv-x="489" d="m297 647 95-145h-98l-49 69-49-69H98l95 145h104zm167-424q0-103-61-168T245-10 87 55 26 223q0 104 61 169t158 65 158-65 61-169zm-123 0q0 58-25.5 93.5T245 352t-70.5-35.5T149 223q0-57 25.5-92.5T245 95t70.5 35.5T341 223z"/><glyph glyph-name="otilde" unicode="õ" horiz-adv-x="489" d="M464 223q0-103-61-168T245-10 87 55 26 223q0 104 61 169t158 65 158-65 61-169zm-123 0q0 58-25.5 93.5T245 352t-70.5-35.5T149 223q0-57 25.5-92.5T245 95t70.5 35.5T341 223zm-24 420h71q0-63-21.5-101T302 504q-24 0-55 23t-44 23q-28 0-30-42h-71q0 63 21.5 101t64.5 38q24 0 55-23t44-23q28 0 30 42z"/><glyph glyph-name="odieresis" unicode="ö" horiz-adv-x="489" d="M97 570q0 28 19.5 47.5T164 637q27 0 46.5-19.5T230 570q0-27-19.5-46.5T164 504q-28 0-47.5 19.5T97 570zm164 0q0 28 19.5 47.5T327 637t47-19.5 20-47.5q0-27-20-46.5T327 504t-46.5 19.5T261 570zm203-347q0-103-61-168T245-10 87 55 26 223q0 104 61 169t158 65 158-65 61-169zm-123 0q0 58-25.5 93.5T245 352t-70.5-35.5T149 223q0-57 25.5-92.5T245 95t70.5 35.5T341 223z"/><glyph glyph-name="divide" unicode="÷" horiz-adv-x="560" d="M64 251v96h432v-96H64zm146 221q0 29 20.5 50t49.5 21 50.5-21 21.5-50-21.5-49.5T280 402t-49.5 20.5T210 472zm0-346q0 29 20.5 49.5T280 196t50.5-20.5T352 126t-21.5-50T280 55t-49.5 21-20.5 50z"/><glyph glyph-name="oslash" unicode="ø" horiz-adv-x="499" d="m34 9 47 58q-50 62-50 156 0 104 61 169t158 65q69 0 123-35l41 50 48-36-45-55q52-63 52-158 0-103-61-168T250-10q-72 0-124 35L83-28zm314 214q0 31-10 61L196 110q22-17 54-17 45 0 71.5 36.5T348 223zm-196 0q0-34 9-59l142 172q-23 17-53 17-46 0-72-36t-26-94z"/><glyph glyph-name="ugrave" unicode="ù" horiz-adv-x="503" d="M450 447V0H326v41q-46-51-120-51T90.5 35 49 155v292h124V180q0-37 18-58t54-21q29 0 51 16.5t29 45.5v284h125zm-137 61H200l-89 142h123z"/><glyph glyph-name="uacute" unicode="ú" horiz-adv-x="503" d="M303 508H191l79 142h123zm147-61V0H326v41q-46-51-120-51T90.5 35 49 155v292h124V180q0-37 18-58t54-21q29 0 51 16.5t29 45.5v284h125z"/><glyph glyph-name="ucircumflex" unicode="û" horiz-adv-x="503" d="m304 647 95-145h-98l-49 69-49-69h-98l95 145h104zm146-200V0H326v41q-46-51-120-51T90.5 35 49 155v292h124V180q0-37 18-58t54-21q29 0 51 16.5t29 45.5v284h125z"/><glyph glyph-name="udieresis" unicode="ü" horiz-adv-x="503" d="M104 570q0 28 19.5 47.5T171 637q27 0 46.5-19.5T237 570q0-27-19.5-46.5T171 504q-28 0-47.5 19.5T104 570zm164 0q0 28 19.5 47.5T334 637t47-19.5 20-47.5q0-27-20-46.5T334 504t-46.5 19.5T268 570zm182-123V0H326v41q-46-51-120-51T90.5 35 49 155v292h124V180q0-37 18-58t54-21q29 0 51 16.5t29 45.5v284h125z"/><glyph glyph-name="yacute" unicode="ý" horiz-adv-x="487" d="M241-165H119L184-2 13 447h131l103-297 102 297h125zm56 673H185l79 142h123z"/><glyph glyph-name="thorn" unicode="þ" horiz-adv-x="519" d="M178 37v-202H54v815h124V410q16 19 47 33t65 14q94 0 149-67.5T494 223 439 57 290-10q-34 0-65 14t-47 33zm0 260V150q11-23 34-37.5T262 98q49 0 78 35t29 90-29 90.5-78 35.5q-27 0-49.5-14.5T178 297z"/><glyph glyph-name="ydieresis" unicode="ÿ" horiz-adv-x="487" d="M241-165H119L184-2 13 447h131l103-297 102 297h125zM98 570q0 28 19.5 47.5T165 637q27 0 46.5-19.5T231 570q0-27-19.5-46.5T165 504q-28 0-47.5 19.5T98 570zm164 0q0 28 19.5 47.5T328 637t47-19.5 20-47.5q0-27-20-46.5T328 504t-46.5 19.5T262 570z"/><glyph glyph-name="Amacron" unicode="Ā" horiz-adv-x="627" d="M250 614h127L612 0H482l-55 148H197L143 0H15zm-58 55v91h243v-91H192zm120-209-75-204h150z"/><glyph glyph-name="amacron" unicode="ā" horiz-adv-x="468" d="M421 0H302v24q-12-12-43-22T193-8Q122-8 74.5 31T27 137q0 63 49.5 103T200 280q28 0 58-8t44-18v33q0 30-18.5 49.5T229 356q-50 0-66-42H45q10 62 61.5 102.5T233 457q89 0 138.5-45.5T421 285V0zM302 122v32q-8 18-30.5 28.5T221 193q-32 0-55.5-14T142 138t23-41 56-14q28 0 50.5 10.5T302 122zM123 516v91h237v-91H123z"/><glyph glyph-name="Abreve" unicode="Ă" horiz-adv-x="627" d="M250 614h127L612 0H482l-55 148H197L143 0H15zm63 49q-61 0-97.5 35T179 797h88q0-48 46-48 47 0 47 48h88q0-64-36.5-99T313 663zm-1-203-75-204h150z"/><glyph glyph-name="abreve" unicode="ă" horiz-adv-x="468" d="M421 0H302v24q-12-12-43-22T193-8Q122-8 74.5 31T27 137q0 63 49.5 103T200 280q28 0 58-8t44-18v33q0 30-18.5 49.5T229 356q-50 0-66-42H45q10 62 61.5 102.5T233 457q89 0 138.5-45.5T421 285V0zM302 122v32q-8 18-30.5 28.5T221 193q-32 0-55.5-14T142 138t23-41 56-14q28 0 50.5 10.5T302 122zm-63 370q-61 0-97 37t-36 105h88q0-58 45-58t45 58h88q0-68-36-105t-97-37z"/><glyph glyph-name="Aogonek" unicode="Ą" horiz-adv-x="627" d="M250 614h127L612 0q-5-7-12-16.5T590-31t-8-11.5-7-10-5-8-4-7.5-2-6.5-1.5-6.5-.5-7q0-21 20-21 14 0 37 16v-74q-30-21-62-21-39 0-60.5 20.5T475-113q0 19 8.5 40T501-39t28 39h-47l-55 148H197L143 0H15zm62-154-75-204h150z"/><glyph glyph-name="aogonek" unicode="ą" horiz-adv-x="468" d="M301 122v32q-7 18-29.5 28.5T221 193q-32 0-55.5-14T142 138t23-41 56-14q28 0 50.5 10.5T301 122zM338 0h-37v24q-12-12-42.5-22T193-8Q122-8 74.5 31T27 137q0 63 49.5 103T200 280q65 0 101-26v33q0 30-18 49.5T229 356q-52 0-67-42H45q10 62 61.5 102.5T233 457q89 0 138.5-45.5T421 285V0l-9-12q-37-52-40-67l-1-9q0-21 20-21 13 0 36 16v-74q-28-21-61-21-39 0-61 20.5T283-113q0 19 9 40.5t17.5 33T338 0z"/><glyph glyph-name="Cacute" unicode="Ć" horiz-adv-x="599" d="M29 307q0 140 81 228.5T315 624q106 0 172.5-56.5T572 416H445q-35 94-130 94-72 0-114-56.5T159 307q0-89 42-146t114-57q95 0 130 95h127q-18-96-84.5-152.5T315-10q-124 0-205 88.5T29 307zm349 362H256l80 122h135z"/><glyph glyph-name="cacute" unicode="ć" horiz-adv-x="459" d="M295 508H183l79 142h123zM26 223q0 104 60 169t155 65q82 0 134-44t62-117H315q-5 26-24.5 40.5T241 351q-42 0-67-35t-25-93q0-57 25-92t67-35q30 0 49.5 14.5T315 151h122q-10-73-61.5-117T241-10q-95 0-155 65T26 223z"/><glyph glyph-name="Ccircumflex" unicode="Ĉ" horiz-adv-x="599" d="M29 307q0 140 81 228.5T315 624q106 0 172.5-56.5T572 416H445q-35 94-130 94-72 0-114-56.5T159 307q0-89 42-146t114-57q95 0 130 95h127q-18-96-84.5-152.5T315-10q-124 0-205 88.5T29 307zm346 489 100-127H370l-47 54-47-54H171l100 127h104z"/><glyph glyph-name="ccircumflex" unicode="ĉ" horiz-adv-x="459" d="m297 647 95-145h-98l-49 69-49-69H98l95 145h104zM26 223q0 104 60 169t155 65q82 0 134-44t62-117H315q-5 26-24.5 40.5T241 351q-42 0-67-35t-25-93q0-57 25-92t67-35q30 0 49.5 14.5T315 151h122q-10-73-61.5-117T241-10q-95 0-155 65T26 223z"/><glyph glyph-name="Cdotaccent" unicode="Ċ" horiz-adv-x="599" d="M393 734q0-30-22-50.5T319 663t-52 20.5-22 50.5q0 31 22 51t52 20 52-20 22-51zM29 307q0 140 81 228.5T315 624q106 0 172.5-56.5T572 416H445q-35 94-130 94-72 0-114-56.5T159 307q0-89 42-146t114-57q95 0 130 95h127q-18-96-84.5-152.5T315-10q-124 0-205 88.5T29 307z"/><glyph glyph-name="cdotaccent" unicode="ċ" horiz-adv-x="459" d="M26 223q0 104 60 169t155 65q82 0 134-44t62-117H315q-5 26-24.5 40.5T241 351q-42 0-67-35t-25-93q0-57 25-92t67-35q30 0 49.5 14.5T315 151h122q-10-73-61.5-117T241-10q-95 0-155 65T26 223zm293 356q0-31-22-51t-52-20-52 20-22 51q0 30 22 50.5t52 20.5 52-20.5 22-50.5z"/><glyph glyph-name="Ccaron" unicode="Č" horiz-adv-x="599" d="M267 668 167 795h105l47-54 47 54h105L371 668H267zM29 307q0 140 81 228.5T315 624q106 0 172.5-56.5T572 416H445q-35 94-130 94-72 0-114-56.5T159 307q0-89 42-146t114-57q95 0 130 95h127q-18-96-84.5-152.5T315-10q-124 0-205 88.5T29 307z"/><glyph glyph-name="ccaron" unicode="č" horiz-adv-x="459" d="m392 647-95-145H193L98 647h98l49-69 49 69h98zM26 223q0 104 60 169t155 65q82 0 134-44t62-117H315q-5 26-24.5 40.5T241 351q-42 0-67-35t-25-93q0-57 25-92t67-35q30 0 49.5 14.5T315 151h122q-10-73-61.5-117T241-10q-95 0-155 65T26 223z"/><glyph glyph-name="Dcaron" unicode="Ď" horiz-adv-x="609" d="M226 668 126 795h105l47-54 47 54h105L330 668H226zm-40-555h85q87 0 134 52t47 142q0 91-47 143t-134 52h-85V113zM59 0v614h217q139 0 221-83t82-224-82-224T276 0H59z"/><glyph glyph-name="dcaron" unicode="ď" horiz-adv-x="519" d="M604 483h-97l38 167h97zM341 0v37q-16-19-47-33t-65-14q-94 0-148.5 66.5T26 223t54.5 167T229 457q34 0 65-14t47-33v240h125V0H341zm0 150v147q-11 23-34 37.5T257 349q-49 0-78-35.5T150 223t29-90 78-35q28 0 50.5 14.5T341 150z"/><glyph glyph-name="Dcroat" unicode="Đ" horiz-adv-x="626" d="M25 264v103h51v247h217q139 0 221-83t82-224-82-224T293 0H76v264H25zm178-151h85q87 0 134 52t47 142q0 91-47 143t-134 52h-85V367h103V264H203V113z"/><glyph glyph-name="dcroat" unicode="đ" horiz-adv-x="519" d="M248 497v84h93v69h125v-69h54v-84h-54V0H341v37q-16-19-47-33t-65-14q-94 0-148.5 66.5T26 223t54.5 167T229 457q34 0 65-14t47-33v87h-93zm93-347v147q-11 23-34 37.5T257 349q-49 0-78-35.5T150 223t29-90 78-35q28 0 50.5 14.5T341 150z"/><glyph glyph-name="Emacron" unicode="Ē" horiz-adv-x="516" d="M150 669v91h243v-91H150zm-91-55h417V502H185V368h264V259H185V113h291V0H59v614z"/><glyph glyph-name="emacron" unicode="ē" horiz-adv-x="469" d="M128 516v91h237v-91H128zm198-370h115q-12-73-63.5-114.5T243-10q-97 0-157 64.5T26 223q0 101 60.5 167.5T241 457q96 0 149.5-60.5T444 235v-38H146q3-50 29-78.5T243 90q68 0 83 56zm-84 210q-76 0-93-84h173q-1 37-22 60.5T242 356z"/><glyph glyph-name="Ebreve" unicode="Ĕ" horiz-adv-x="516" d="M271 663q-61 0-97.5 35T137 797h88q0-48 46-48 47 0 47 48h88q0-64-36.5-99T271 663zM59 614h417V502H185V368h264V259H185V113h291V0H59v614z"/><glyph glyph-name="ebreve" unicode="ĕ" horiz-adv-x="469" d="M326 146h115q-12-73-63.5-114.5T243-10q-97 0-157 64.5T26 223q0 101 60.5 167.5T241 457q96 0 149.5-60.5T444 235v-38H146q3-50 29-78.5T243 90q68 0 83 56zm-84 210q-76 0-93-84h173q-1 37-22 60.5T242 356zm4 136q-61 0-97 37t-36 105h88q0-58 45-58t45 58h88q0-68-36-105t-97-37z"/><glyph glyph-name="Edotaccent" unicode="Ė" horiz-adv-x="516" d="M345 734q0-30-22-50.5T271 663t-52 20.5-22 50.5q0 31 22 51t52 20 52-20 22-51zM59 614h417V502H185V368h264V259H185V113h291V0H59v614z"/><glyph glyph-name="edotaccent" unicode="ė" horiz-adv-x="469" d="M326 146h115q-12-73-63.5-114.5T243-10q-97 0-157 64.5T26 223q0 101 60.5 167.5T241 457q96 0 149.5-60.5T444 235v-38H146q3-50 29-78.5T243 90q68 0 83 56zm-84 210q-76 0-93-84h173q-1 37-22 60.5T242 356zm78 223q0-31-22-51t-52-20-52 20-22 51q0 30 22 50.5t52 20.5 52-20.5 22-50.5z"/><glyph glyph-name="Eogonek" unicode="Ę" horiz-adv-x="516" d="M59 614h417V502H185V368h264V259H185V113h291V0h-34q-4-5-10-14-25-35-32.5-48T392-88q0-21 21-21 13 0 36 16v-74q-30-21-62-21-39 0-60.5 20.5T305-113q0 19 8.5 40t18 34.5T360 0H59v614z"/><glyph glyph-name="eogonek" unicode="ę" horiz-adv-x="469" d="M242 356q-76 0-93-84h173q-1 37-22 60.5T242 356zM266-9q-3 0-11-.5t-12-.5q-97 0-157 64.5T26 223q0 101 60.5 167.5T241 457q96 0 149.5-60.5T444 235v-38H146q3-50 29-78.5T243 90q68 0 83 56h115q-10-65-63-117-73-67-73-115 0-23 22-23 13 0 36 16v-74q-30-21-62-21-39 0-61.5 21T217-111q0 45 49 102z"/><glyph glyph-name="Ecaron" unicode="Ě" horiz-adv-x="516" d="M224 668 124 795h105l47-54 47 54h105L328 668H224zM59 614h417V502H185V368h264V259H185V113h291V0H59v614z"/><glyph glyph-name="ecaron" unicode="ě" horiz-adv-x="469" d="m393 647-95-145H194L99 647h98l49-69 49 69h98zm-67-501h115q-12-73-63.5-114.5T243-10q-97 0-157 64.5T26 223q0 101 60.5 167.5T241 457q96 0 149.5-60.5T444 235v-38H146q3-50 29-78.5T243 90q68 0 83 56zm-84 210q-76 0-93-84h173q-1 37-22 60.5T242 356z"/><glyph glyph-name="Gcircumflex" unicode="Ĝ" horiz-adv-x="621" d="m374 796 100-127H369l-47 54-47-54H170l100 127h104zm93-576H350v102h242v-54q0-126-74.5-202T325-10q-129 0-212.5 88.5T29 307t83.5 228.5T322 624q108 0 175-56.5T582 416H453q-36 94-131 94-75 0-119-56.5T159 307q0-91 45-147.5T325 103q58 0 94.5 31.5T467 220z"/><glyph glyph-name="gcircumflex" unicode="ĝ" horiz-adv-x="516" d="m325 647 95-145h-98l-49 69-49-69h-98l95 145h104zm14-617v26q-38-46-110-46-93 0-148 65T26 234q0 93 55 158t148 65q71 0 110-45v35h123V49q0-111-60-167.5T243-175q-87 0-142.5 42T35-16h120q15-63 88-63 96 0 96 109zm0 131v146q-28 46-84 46-49 0-77-33t-28-86 28-86.5 77-33.5q27 0 49.5 13.5T339 161z"/><glyph glyph-name="Gbreve" unicode="Ğ" horiz-adv-x="621" d="M323 663q-61 0-97.5 35T189 797h88q0-48 46-48 47 0 47 48h88q0-64-36.5-99T323 663zm144-443H350v102h242v-54q0-126-74.5-202T325-10q-129 0-212.5 88.5T29 307t83.5 228.5T322 624q108 0 175-56.5T582 416H453q-36 94-131 94-75 0-119-56.5T159 307q0-91 45-147.5T325 103q58 0 94.5 31.5T467 220z"/><glyph glyph-name="gbreve" unicode="ğ" horiz-adv-x="516" d="M339 30v26q-38-46-110-46-93 0-148 65T26 234q0 93 55 158t148 65q71 0 110-45v35h123V49q0-111-60-167.5T243-175q-87 0-142.5 42T35-16h120q15-63 88-63 96 0 96 109zm0 131v146q-28 46-84 46-49 0-77-33t-28-86 28-86.5 77-33.5q27 0 49.5 13.5T339 161zm-66 331q-61 0-97 37t-36 105h88q0-58 45-58t45 58h88q0-68-36-105t-97-37z"/><glyph glyph-name="Gdotaccent" unicode="Ġ" horiz-adv-x="621" d="M398 734q0-30-22-50.5T324 663t-52 20.5-22 50.5q0 31 22 51t52 20 52-20 22-51zm69-514H350v102h242v-54q0-126-74.5-202T325-10q-129 0-212.5 88.5T29 307t83.5 228.5T322 624q108 0 175-56.5T582 416H453q-36 94-131 94-75 0-119-56.5T159 307q0-91 45-147.5T325 103q58 0 94.5 31.5T467 220z"/><glyph glyph-name="gdotaccent" unicode="ġ" horiz-adv-x="516" d="M347 579q0-31-22-51t-52-20-52 20-22 51q0 30 22 50.5t52 20.5 52-20.5 22-50.5zm-8-549v26q-38-46-110-46-93 0-148 65T26 234q0 93 55 158t148 65q71 0 110-45v35h123V49q0-111-60-167.5T243-175q-87 0-142.5 42T35-16h120q15-63 88-63 96 0 96 109zm0 131v146q-28 46-84 46-49 0-77-33t-28-86 28-86.5 77-33.5q27 0 49.5 13.5T339 161z"/><glyph glyph-name="Gcommaaccent" unicode="Ģ" horiz-adv-x="621" d="m255-225 46 62q-22 4-36 20t-14 40q0 28 20.5 46T322-39q29 0 49-19t20-50q0-34-33-78l-27-39h-76zm212 445H350v102h242v-54q0-126-74.5-202T325-10q-129 0-212.5 88.5T29 307t83.5 228.5T322 624q108 0 175-56.5T582 416H453q-36 94-131 94-75 0-119-56.5T159 307q0-91 45-147.5T325 103q58 0 94.5 31.5T467 220z"/><glyph glyph-name="gcommaaccent" unicode="ģ" horiz-adv-x="516" d="m339 696-47-64q22-5 36.5-21.5T343 570q0-28-21-46.5T271 505t-50.5 19-20.5 51q0 36 33 80l30 41h76zm0-666v26q-38-46-110-46-93 0-148 65T26 234q0 93 55 158t148 65q71 0 110-45v35h123V49q0-111-60-167.5T243-175q-87 0-142.5 42T35-16h120q15-63 88-63 96 0 96 109zm0 131v146q-28 46-84 46-49 0-77-33t-28-86 28-86.5 77-33.5q27 0 49.5 13.5T339 161z"/><glyph glyph-name="Hcircumflex" unicode="Ĥ" horiz-adv-x="652" d="M465 614h128V0H465v258H187V0H59v614h128V370h278v244zm-88 182 100-127H372l-47 54-47-54H173l100 127h104z"/><glyph glyph-name="hcircumflex" unicode="ĥ" horiz-adv-x="505" d="M54 0v650h124V406q44 51 120 51 75 0 116.5-45T456 292V0H332v266q0 36-18.5 57.5T259 345q-29 0-51.5-16.5T178 283V0H54zm251 813 100-127H300l-47 54-47-54H101l100 127h104z"/><glyph glyph-name="Hbar" unicode="Ħ" horiz-adv-x="683" d="M25 418v102h49v94h128v-94h279v94h128v-94h49V418h-49V0H481v216H202V0H74v418H25zm177-100h279v100H202V318z"/><glyph glyph-name="hbar" unicode="ħ" horiz-adv-x="505" d="M-1 497v84h55v69h124v-69h93v-84h-93v-91q44 51 120 51 75 0 116.5-45T456 292V0H332v266q0 36-18.5 57.5T259 345q-29 0-51.5-16.5T178 283V0H54v497H-1z"/><glyph glyph-name="Itilde" unicode="Ĩ" horiz-adv-x="245" d="M187 614V0H59v614h128zm14 188h71q0-63-21-101t-64-38q-26 0-61.5 21T74 705q-28 0-29-39h-71q0 63 21 101t64 38q26 0 61.5-21t51.5-21q28 0 29 39z"/><glyph glyph-name="itilde" unicode="ĩ" horiz-adv-x="232" d="M172 643h68q0-63-19-101t-56-38q-21 0-46.5 21.5T83 547q-23 0-25-39H-9q0 62 18.5 100.5T65 647q21 0 46.5-21.5T147 604q23 0 25 39zm6-196V0H54v447h124z"/><glyph glyph-name="Imacron" unicode="Ī" horiz-adv-x="245" d="M187 614V0H59v614h128zM2 669v91h243v-91H2z"/><glyph glyph-name="imacron" unicode="ī" horiz-adv-x="232" d="M178 447V0H54v447h124zM11 516v91h209v-91H11z"/><glyph glyph-name="Ibreve" unicode="Ĭ" horiz-adv-x="245" d="M187 614V0H59v614h128zm-65 49q-61 0-97.5 35T-12 797h88q0-48 46-48 47 0 47 48h88q0-64-36.5-99T122 663z"/><glyph glyph-name="ibreve" unicode="ĭ" horiz-adv-x="232" d="M116 492q-54 0-86.5 37T-3 634h83q0-58 36-58t36 58h83q0-68-32.5-105T116 492zm62-45V0H54v447h124z"/><glyph glyph-name="Iogonek" unicode="Į" horiz-adv-x="245" d="M187 614V0q-5-7-12-16.5T165-31t-8-11.5-7-10-5-8-4-7.5-2-6.5-1.5-6.5-.5-7q0-21 20-21 13 0 36 16v-74q-28-21-61-21-39 0-61 20.5T49-113q0 19 9 40.5t17.5 33T104 0H59v614h128z"/><glyph glyph-name="iogonek" unicode="į" horiz-adv-x="232" d="M178 447V0q-5-7-12-16.5T156-31t-8-11.5-7-10-5-8-4-7.5-2-6.5-1.5-6.5-.5-7q0-21 20-21 14 0 37 16v-74q-30-21-62-21-39 0-60.5 20.5T41-113q0 19 8.5 40T67-39 95 0H54v447h124zm11 129q0-31-21.5-51T116 505q-31 0-52.5 20T42 576q0 30 22 50.5t52 20.5 51.5-20.5T189 576z"/><glyph glyph-name="Idotaccent" unicode="İ" horiz-adv-x="245" d="M187 614V0H59v614h128zm10 120q0-30-22-50.5T123 663t-52 20.5T49 734q0 31 22 51t52 20 52-20 22-51z"/><glyph glyph-name="dotlessi" unicode="ı" horiz-adv-x="232" d="M178 447V0H54v447h124z"/><glyph glyph-name="IJ" unicode="Ĳ" horiz-adv-x="717" d="M223 195h132q8-89 90-89 95 0 95 117v391h128V222q0-114-59.5-173T447-10 287 46t-64 149zm-36 419V0H59v614h128z"/><glyph glyph-name="ij" unicode="ĳ" horiz-adv-x="462" d="M178 447V0H54v447h124zm11 129q0-31-21.5-51T116 505q-31 0-52.5 20T42 576q0 30 22 50.5t52 20.5 51.5-20.5T189 576zm221-129V-18q0-75-40-116t-116-41q-33 0-48 5v99q21-3 27-3 53 0 53 57v464h124zm11 129q0-31-21.5-51T348 505q-31 0-52.5 20T274 576q0 30 22 50.5t52 20.5 51.5-20.5T421 576z"/><glyph glyph-name="Jcircumflex" unicode="Ĵ" horiz-adv-x="509" d="M15 195h132q8-89 90-89 95 0 95 117v391h128V222q0-114-60-173T238-10Q137-10 79 46T15 195zm434 601 100-127H444l-47 54-47-54H245l100 127h104z"/><glyph glyph-name="jcircumflex" unicode="ĵ" horiz-adv-x="230" d="m168 647 77-145h-95l-34 70-35-70h-95l78 145h104zm10-200V-18q0-75-40-116T22-175q-33 0-48 5v99q21-3 27-3 53 0 53 57v464h124z"/><glyph glyph-name="Kcommaaccent" unicode="Ķ" horiz-adv-x="593" d="m216-225 46 62q-22 4-36 20t-14 40q0 28 20.5 46T283-39q29 0 49-19t20-50q0-34-33-78l-27-39h-76zm-29 839V338l231 276h155L339 339 582 0H427L245 251l-58-69V0H59v614h128z"/><glyph glyph-name="kcommaaccent" unicode="ķ" horiz-adv-x="499" d="m178-225 46 62q-22 4-36 20t-14 40q0 28 20.5 46T245-39q29 0 49-19t20-50q0-34-33-78l-27-39h-76zM345 0 214 180l-36-39V0H54v650h124V281l153 166h154L304 257 492 0H345z"/><glyph glyph-name="kgreenlandic" unicode="ĸ" horiz-adv-x="499" d="M345 0 214 180l-36-39V0H54v447h124V281l153 166h154L304 257 492 0H345z"/><glyph glyph-name="Lacute" unicode="Ĺ" horiz-adv-x="507" d="M188 669H66l80 122h135zM59 0v614h128V113h286V0H59z"/><glyph glyph-name="lacute" unicode="ĺ" horiz-adv-x="232" d="M175 694H53l80 122h135zm3-44V0H54v650h124z"/><glyph glyph-name="Lcommaaccent" unicode="Ļ" horiz-adv-x="507" d="m208-225 46 62q-22 4-36 20t-14 40q0 28 20.5 46T275-39q29 0 49-19t20-50q0-34-33-78l-27-39h-76zM59 0v614h128V113h286V0H59z"/><glyph glyph-name="lcommaaccent" unicode="ļ" horiz-adv-x="232" d="m49-225 46 62q-22 4-36 20t-14 40q0 28 20.5 46T116-39q29 0 49-19t20-50q0-34-33-78l-27-39H49zm129 875V0H54v650h124z"/><glyph glyph-name="Lcaron" unicode="Ľ" horiz-adv-x="507" d="M360 447h-97l38 167h97zM59 0v614h128V113h286V0H59z"/><glyph glyph-name="lcaron" unicode="ľ" horiz-adv-x="232" d="M316 483h-97l38 167h97zM178 650V0H54v650h124z"/><glyph glyph-name="Ldot" unicode="Ŀ" horiz-adv-x="507" d="M59 0v614h128V113h286V0H59zm385 324q0-31-22-51t-52-20-52 20-22 51q0 30 22 50.5t52 20.5 52-20.5 22-50.5z"/><glyph glyph-name="ldot" unicode="ŀ" horiz-adv-x="390" d="M178 650V0H54v650h124zm206-322q0-31-22-51t-52-20-52 20-22 51q0 30 22 50.5t52 20.5 52-20.5 22-50.5z"/><glyph glyph-name="Lslash" unicode="Ł" horiz-adv-x="528" d="M22 201v108l58 24v281h128V380l138 57V329l-138-57V113h286V0H80v225z"/><glyph glyph-name="lslash" unicode="ł" horiz-adv-x="274" d="M199 650V425l54 31v-98l-54-32V0H75v267l-50-30v99l50 29v285h124z"/><glyph glyph-name="Nacute" unicode="Ń" horiz-adv-x="632" d="M371 669H249l80 122h135zm202-55V0H472L182 409V0H59v614h120l271-388v388h123z"/><glyph glyph-name="nacute" unicode="ń" horiz-adv-x="505" d="M312 508H200l79 142h123zM54 0v447h124v-41q44 51 120 51 75 0 116.5-45T456 292V0H332v266q0 36-18.5 57.5T259 345q-29 0-51.5-16.5T178 283V0H54z"/><glyph glyph-name="Ncommaaccent" unicode="Ņ" horiz-adv-x="632" d="m249-225 46 62q-22 4-36 20t-14 40q0 28 20.5 46T316-39q29 0 49-19t20-50q0-34-33-78l-27-39h-76zm324 839V0H472L182 409V0H59v614h120l271-388v388h123z"/><glyph glyph-name="ncommaaccent" unicode="ņ" horiz-adv-x="505" d="m193-225 46 62q-22 4-36 20t-14 40q0 28 20.5 46T260-39q29 0 49-19t20-50q0-34-33-78l-27-39h-76zM54 0v447h124v-41q44 51 120 51 75 0 116.5-45T456 292V0H332v266q0 36-18.5 57.5T259 345q-29 0-51.5-16.5T178 283V0H54z"/><glyph glyph-name="Ncaron" unicode="Ň" horiz-adv-x="632" d="M264 668 164 795h105l47-54 47 54h105L368 668H264zm309-54V0H472L182 409V0H59v614h120l271-388v388h123z"/><glyph glyph-name="ncaron" unicode="ň" horiz-adv-x="505" d="m408 647-95-145H209l-95 145h98l49-69 49 69h98zM54 0v447h124v-41q44 51 120 51 75 0 116.5-45T456 292V0H332v266q0 36-18.5 57.5T259 345q-29 0-51.5-16.5T178 283V0H54z"/><glyph glyph-name="Eng" unicode="Ŋ" horiz-adv-x="632" d="M275-164v118q43-23 83-23 45 0 66 24t23 80L182 409V0H59v614h120l271-388v388h123V41q0-224-201-224-46 0-97 19z"/><glyph glyph-name="eng" unicode="ŋ" horiz-adv-x="505" d="M332-17v283q0 36-18.5 57.5T259 345q-29 0-51.5-16.5T178 283V0H54v447h124v-41q44 51 120 51 75 0 116.5-45T456 292V-18q0-75-40-116t-116-41q-32 0-47 5v99q18-3 27-3 52 0 52 57z"/><glyph glyph-name="Omacron" unicode="Ō" horiz-adv-x="640" d="M198 669v91h243v-91H198zm412-362q0-138-81.5-227.5T319-10 110 79.5 29 307q0 139 81 228t209 89 209.5-89.5T610 307zm-129 0q0 91-44.5 147T319 510q-72 0-116-56t-44-147 44-147 116-56q73 0 117.5 56T481 307z"/><glyph glyph-name="omacron" unicode="ō" horiz-adv-x="489" d="M127 516v91h237v-91H127zm337-293q0-103-61-168T245-10 87 55 26 223q0 104 61 169t158 65 158-65 61-169zm-123 0q0 58-25.5 93.5T245 352t-70.5-35.5T149 223q0-57 25.5-92.5T245 95t70.5 35.5T341 223z"/><glyph glyph-name="Obreve" unicode="Ŏ" horiz-adv-x="640" d="M319 663q-61 0-97.5 35T185 797h88q0-48 46-48 47 0 47 48h88q0-64-36.5-99T319 663zm291-356q0-138-81.5-227.5T319-10 110 79.5 29 307q0 139 81 228t209 89 209.5-89.5T610 307zm-129 0q0 91-44.5 147T319 510q-72 0-116-56t-44-147 44-147 116-56q73 0 117.5 56T481 307z"/><glyph glyph-name="obreve" unicode="ŏ" horiz-adv-x="489" d="M464 223q0-103-61-168T245-10 87 55 26 223q0 104 61 169t158 65 158-65 61-169zm-123 0q0 58-25.5 93.5T245 352t-70.5-35.5T149 223q0-57 25.5-92.5T245 95t70.5 35.5T341 223zm-96 269q-61 0-97 37t-36 105h88q0-58 45-58t45 58h88q0-68-36-105t-97-37z"/><glyph glyph-name="Ohungarumlaut" unicode="Ő" horiz-adv-x="640" d="M610 307q0-138-81.5-227.5T319-10 110 79.5 29 307q0 139 81 228t209 89 209.5-89.5T610 307zm-129 0q0 91-44.5 147T319 510q-72 0-116-56t-44-147 44-147 116-56q73 0 117.5 56T481 307zM301 669H199l66 122h105zm148 0H346l67 122h104z"/><glyph glyph-name="ohungarumlaut" unicode="ő" horiz-adv-x="489" d="M219 508h-98l67 142h99zm141 0h-98l67 142h99zm104-285q0-103-61-168T245-10 87 55 26 223q0 104 61 169t158 65 158-65 61-169zm-123 0q0 58-25.5 93.5T245 352t-70.5-35.5T149 223q0-57 25.5-92.5T245 95t70.5 35.5T341 223z"/><glyph glyph-name="OE" unicode="Œ" horiz-adv-x="832" d="M792 614V502H520V368h245V259H520V113h272V0H332Q193 0 111 83T29 307t82 224 221 83h460zM338 113h56v389h-56q-87 0-134-52t-47-143 47-142.5T338 113z"/><glyph glyph-name="oe" unicode="œ" horiz-adv-x="778" d="M553-10q-94 0-155 64-59-64-153-64-97 0-158 65T26 223q0 104 61 169t158 65q93 0 153-65 62 65 153 65 96 0 149.5-60.5T754 235v-38H456q3-50 29-78.5T553 90q68 0 83 56h115q-12-73-63.5-114.5T553-10zM341 223q0 58-25.5 93.5T245 352t-70.5-35.5T149 223q0-57 25.5-92.5T245 95t70.5 35.5T341 223zm211 133q-76 0-93-84h173q-2 37-22.5 60.5T552 356z"/><glyph glyph-name="Racute" unicode="Ŕ" horiz-adv-x="563" d="M253 229h-67V0H59v614h253q99 0 157-51t58-144q0-72-37-118.5T387 238L549 0H405zm-67 276V334h118q47 0 72 23t25 62q0 40-25 63t-72 23H186zm149 164H213l80 122h135z"/><glyph glyph-name="racute" unicode="ŕ" horiz-adv-x="351" d="M241 508H129l79 142h123zm84-59V325q-25 15-62 15-32 0-55-16.5T178 277V0H54v447h124v-44q32 54 100 54 33 0 47-8z"/><glyph glyph-name="Rcommaaccent" unicode="Ŗ" horiz-adv-x="563" d="M253 229h-67V0H59v614h253q99 0 157-51t58-144q0-72-37-118.5T387 238L549 0H405zm-67 276V334h118q47 0 72 23t25 62q0 40-25 63t-72 23H186zm27-730 46 62q-22 4-36 20t-14 40q0 28 20.5 46T280-39q29 0 49-19t20-50q0-34-33-78l-27-39h-76z"/><glyph glyph-name="rcommaaccent" unicode="ŗ" horiz-adv-x="351" d="m47-225 46 62q-22 4-36 20t-14 40q0 28 20.5 46T114-39q29 0 49-19t20-50q0-34-33-78l-27-39H47zm278 674V325q-25 15-62 15-32 0-55-16.5T178 277V0H54v447h124v-44q32 54 100 54 33 0 47-8z"/><glyph glyph-name="Rcaron" unicode="Ř" horiz-adv-x="563" d="M253 229h-67V0H59v614h253q99 0 157-51t58-144q0-72-37-118.5T387 238L549 0H405zm-67 276V334h118q47 0 72 23t25 62q0 40-25 63t-72 23H186zm42 163L128 795h105l47-54 47 54h105L332 668H228z"/><glyph glyph-name="rcaron" unicode="ř" horiz-adv-x="351" d="m338 647-95-145H139L44 647h98l49-69 49 69h98zm-13-198V325q-25 15-62 15-32 0-55-16.5T178 277V0H54v447h124v-44q32 54 100 54 33 0 47-8z"/><glyph glyph-name="Sacute" unicode="Ś" horiz-adv-x="530" d="M17 175h132q25-79 122-79 47 0 75 20.5t28 56.5q0 28-17.5 44T299 242l-110 25Q33 302 33 435q0 83 62 136t159 53q102 0 163.5-48.5T495 446H368q-25 73-113 73-44 0-70.5-19.5T158 447q0-51 69-67l112-26q161-37 161-173 0-87-64-139T272-10q-103 0-171 49T17 175zm298 494H193l80 122h135z"/><glyph glyph-name="sacute" unicode="ś" horiz-adv-x="437" d="M270 508H158l79 142h123zM25 133h123q15-49 75-49 63 0 63 44 0 15-10.5 23.5T241 166l-90 20Q35 213 35 312q0 64 51 104.5T213 457q83 0 130.5-36.5T403 319H285q-14 44-70 44-24 0-41.5-11T156 321q0-25 40-35l92-21q119-29 119-130 0-67-51.5-106T224-10q-83 0-136 37.5T25 133z"/><glyph glyph-name="Scircumflex" unicode="Ŝ" horiz-adv-x="530" d="M17 175h132q25-79 122-79 47 0 75 20.5t28 56.5q0 28-17.5 44T299 242l-110 25Q33 302 33 435q0 83 62 136t159 53q102 0 163.5-48.5T495 446H368q-25 73-113 73-44 0-70.5-19.5T158 447q0-51 69-67l112-26q161-37 161-173 0-87-64-139T272-10q-103 0-171 49T17 175zm300 621 100-127H312l-47 54-47-54H113l100 127h104z"/><glyph glyph-name="scircumflex" unicode="ŝ" horiz-adv-x="437" d="m271 647 95-145h-98l-49 69-49-69H72l95 145h104zM25 133h123q15-49 75-49 63 0 63 44 0 15-10.5 23.5T241 166l-90 20Q35 213 35 312q0 64 51 104.5T213 457q83 0 130.5-36.5T403 319H285q-14 44-70 44-24 0-41.5-11T156 321q0-25 40-35l92-21q119-29 119-130 0-67-51.5-106T224-10q-83 0-136 37.5T25 133z"/><glyph glyph-name="Scedilla" unicode="Ş" horiz-adv-x="530" d="M17 175h132q25-79 122-79 47 0 75 20.5t28 56.5q0 28-17.5 44T299 242l-110 25Q33 302 33 435q0 83 62 136t159 53q102 0 163.5-48.5T495 446H368q-25 73-113 73-44 0-70.5-19.5T158 447q0-51 69-67l112-26q161-37 161-173 0-87-64-139T272-10q-103 0-171 49T17 175zm231-361H138l70 139h114z"/><glyph glyph-name="scedilla" unicode="ş" horiz-adv-x="437" d="M25 133h123q15-49 75-49 63 0 63 44 0 15-10.5 23.5T241 166l-90 20Q35 213 35 312q0 64 51 104.5T213 457q83 0 130.5-36.5T403 319H285q-14 44-70 44-24 0-41.5-11T156 321q0-25 40-35l92-21q119-29 119-130 0-67-51.5-106T224-10q-83 0-136 37.5T25 133zm180-319H95l70 139h114z"/><glyph glyph-name="Scaron" unicode="Š" horiz-adv-x="530" d="M213 668 113 795h105l47-54 47 54h105L317 668H213zM17 175h132q25-79 122-79 47 0 75 20.5t28 56.5q0 28-17.5 44T299 242l-110 25Q33 302 33 435q0 83 62 136t159 53q102 0 163.5-48.5T495 446H368q-25 73-113 73-44 0-70.5-19.5T158 447q0-51 69-67l112-26q161-37 161-173 0-87-64-139T272-10q-103 0-171 49T17 175z"/><glyph glyph-name="scaron" unicode="š" horiz-adv-x="437" d="m366 647-95-145H167L72 647h98l49-69 49 69h98zM25 133h123q15-49 75-49 63 0 63 44 0 15-10.5 23.5T241 166l-90 20Q35 213 35 312q0 64 51 104.5T213 457q83 0 130.5-36.5T403 319H285q-14 44-70 44-24 0-41.5-11T156 321q0-25 40-35l92-21q119-29 119-130 0-67-51.5-106T224-10q-83 0-136 37.5T25 133z"/><glyph glyph-name="Tcedilla" unicode="Ţ" horiz-adv-x="575" d="m221-225 46 62q-22 4-36 20t-14 40q0 28 20.5 46T288-39q29 0 49-19t20-50q0-34-33-78l-27-39h-76zM26 502v112h524V502H352V0H223v502H26z"/><glyph glyph-name="tcedilla" unicode="ţ" horiz-adv-x="345" d="M80 135v212H13v100h67v121h124V447h98V347h-98V153q0-52 51-52 28 0 54 15V5Q283-9 229-9q-70 0-109.5 36T80 135zm53-360 46 62q-22 4-36 20t-14 40q0 28 20.5 46T200-39q29 0 49-19t20-50q0-34-33-78l-27-39h-76z"/><glyph glyph-name="Tcaron" unicode="Ť" horiz-adv-x="575" d="M236 668 136 795h105l47-54 47 54h105L340 668H236zM26 502v112h524V502H352V0H223v502H26z"/><glyph glyph-name="tcaron" unicode="ť" horiz-adv-x="345" d="M80 135v212H13v100h67v121h124V447h98V347h-98V153q0-52 51-52 28 0 54 15V5Q283-9 229-9q-70 0-109.5 36T80 135zm263 355h-97l38 167h97z"/><glyph glyph-name="Tbar" unicode="Ŧ" horiz-adv-x="575" d="M26 502v112h524V502H352V362h102V256H352V0H223v256H122v106h101v140H26z"/><glyph glyph-name="tbar" unicode="ŧ" horiz-adv-x="349" d="M29 199v86h56v70H17v92h68v121h124V447h97v-92h-97v-70h77v-86h-77v-46q0-52 50-52 28 0 54 15V5Q287-9 234-9q-70 0-109.5 36T85 135v64H29z"/><glyph glyph-name="Utilde" unicode="Ũ" horiz-adv-x="610" d="M383 802h71q0-63-21-101t-64-38q-26 0-61.5 21T256 705q-28 0-29-39h-71q0 63 21 101t64 38q26 0 61.5-21t51.5-21q28 0 29 39zM305-10q-117 0-186 66.5T50 247v367h128V260q0-155 127-155t127 155v354h128V247q0-124-68.5-190.5T305-10z"/><glyph glyph-name="utilde" unicode="ũ" horiz-adv-x="503" d="M450 447V0H326v41q-46-51-120-51T90.5 35 49 155v292h124V180q0-37 18-58t54-21q29 0 51 16.5t29 45.5v284h125zM324 643h71q0-63-21.5-101T309 504q-24 0-55 23t-44 23q-28 0-30-42h-71q0 63 21.5 101t64.5 38q24 0 55-23t44-23q28 0 30 42z"/><glyph glyph-name="Umacron" unicode="Ū" horiz-adv-x="610" d="M184 669v91h243v-91H184zM305-10q-117 0-186 66.5T50 247v367h128V260q0-155 127-155t127 155v354h128V247q0-124-68.5-190.5T305-10z"/><glyph glyph-name="umacron" unicode="ū" horiz-adv-x="503" d="M450 447V0H326v41q-46-51-120-51T90.5 35 49 155v292h124V180q0-37 18-58t54-21q29 0 51 16.5t29 45.5v284h125zm-316 69v91h237v-91H134z"/><glyph glyph-name="Ubreve" unicode="Ŭ" horiz-adv-x="610" d="M305 663q-61 0-97.5 35T171 797h88q0-48 46-48 47 0 47 48h88q0-64-36.5-99T305 663zm0-673q-117 0-186 66.5T50 247v367h128V260q0-155 127-155t127 155v354h128V247q0-124-68.5-190.5T305-10z"/><glyph glyph-name="ubreve" unicode="ŭ" horiz-adv-x="503" d="M450 447V0H326v41q-46-51-120-51T90.5 35 49 155v292h124V180q0-37 18-58t54-21q29 0 51 16.5t29 45.5v284h125zm-198 45q-61 0-97 37t-36 105h88q0-58 45-58t45 58h88q0-68-36-105t-97-37z"/><glyph glyph-name="Uring" unicode="Ů" horiz-adv-x="610" d="M305-10q-117 0-186 66.5T50 247v367h128V260q0-155 127-155t127 155v354h128V247q0-124-68.5-190.5T305-10zm99 753q0-41-28.5-69T305 646t-70.5 28-28.5 69 28.5 69 70.5 28 70.5-28 28.5-69zm-59 0q0 17-11.5 28.5T305 783q-16 0-27.5-11.5T266 743t11-28 28-11 28.5 11.5T345 743z"/><glyph glyph-name="uring" unicode="ů" horiz-adv-x="503" d="M351 584q0-41-28.5-69T252 487t-70.5 28-28.5 69 28.5 69 70.5 28 70.5-28 28.5-69zm-59 0q0 16-12 28t-28 12-27.5-11.5T213 584q0-16 11.5-27.5T252 545q17 0 28.5 11.5T292 584zm158-137V0H326v41q-46-51-120-51T90.5 35 49 155v292h124V180q0-37 18-58t54-21q29 0 51 16.5t29 45.5v284h125z"/><glyph glyph-name="Uhungarumlaut" unicode="Ű" horiz-adv-x="610" d="M305-10q-117 0-186 66.5T50 247v367h128V260q0-155 127-155t127 155v354h128V247q0-124-68.5-190.5T305-10zm-18 679H185l66 122h105zm148 0H332l67 122h104z"/><glyph glyph-name="uhungarumlaut" unicode="ű" horiz-adv-x="503" d="M450 447V0H326v41q-46-51-120-51T90.5 35 49 155v292h124V180q0-37 18-58t54-21q29 0 51 16.5t29 45.5v284h125zm-224 61h-98l67 142h99zm141 0h-98l67 142h99z"/><glyph glyph-name="Uogonek" unicode="Ų" horiz-adv-x="610" d="M305-10q-117 0-186 66.5T50 247v367h128V260q0-155 127-155t127 155v354h128V247q0-80-27.5-132.5T449 23q-92-62-92-111 0-21 21-21 13 0 36 16v-74q-30-21-62-21-38 0-60 20.5T270-113q0 50 51 103h-16z"/><glyph glyph-name="uogonek" unicode="ų" horiz-adv-x="503" d="M450 447V0l-9-12q-37-52-40-67l-1-9q0-21 20-21 13 0 36 16v-74q-30-21-61-21-39 0-61 20.5T312-113q0 19 9 40.5t17.5 33T367 0h-41v41q-46-51-120-51T90.5 35 49 155v292h124V180q0-37 18-58t54-21q29 0 51 16.5t29 45.5v284h125z"/><glyph glyph-name="Wcircumflex" unicode="Ŵ" horiz-adv-x="794" d="M349 614h100l106-413 101 413h126L622 0H505L397 405 289 0H172L12 614h129l100-413zm100 182 100-127H444l-47 54-47-54H245l100 127h104z"/><glyph glyph-name="wcircumflex" unicode="ŵ" horiz-adv-x="672" d="m388 647 95-145h-98l-49 69-49-69h-98l95 145h104zm-3-200 74-285 80 285h120L523 0H409l-73 274L263 0H149L13 447h124l80-285 73 285h95z"/><glyph glyph-name="Ycircumflex" unicode="Ŷ" horiz-adv-x="593" d="m299 354 148 260h135L359 233V0H232v233L11 614h139zm49 442 100-127H343l-47 54-47-54H144l100 127h104z"/><glyph glyph-name="ycircumflex" unicode="ŷ" horiz-adv-x="487" d="M241-165H119L184-2 13 447h131l103-297 102 297h125zm57 812 95-145h-98l-49 69-49-69H99l95 145h104z"/><glyph glyph-name="Ydieresis" unicode="Ÿ" horiz-adv-x="593" d="m299 354 148 260h135L359 233V0H232v233L11 614h139zM147 730q0 29 19 48.5t48 19.5q28 0 47.5-19.5T281 730q0-27-19.5-46.5T214 664t-47.5 19.5T147 730zm165 0q0 29 19.5 48.5T379 798t48-19.5 20-48.5q0-27-20-46.5T379 664t-47.5 19.5T312 730z"/><glyph glyph-name="Zacute" unicode="Ź" horiz-adv-x="554" d="M514 113V0H40v93l308 409H45v112h465v-92L204 113h310zM349 669H227l80 122h135z"/><glyph glyph-name="zacute" unicode="ź" horiz-adv-x="453" d="M287 508H175l79 142h123zm125-408V0H38v80l215 267H46v100h362v-80L197 100h215z"/><glyph glyph-name="Zdotaccent" unicode="Ż" horiz-adv-x="554" d="M368 734q0-30-22-50.5T294 663t-52 20.5-22 50.5q0 31 22 51t52 20 52-20 22-51zm146-621V0H40v93l308 409H45v112h465v-92L204 113h310z"/><glyph glyph-name="zdotaccent" unicode="ż" horiz-adv-x="453" d="M412 100V0H38v80l215 267H46v100h362v-80L197 100h215zM310 579q0-31-22-51t-52-20-52 20-22 51q0 30 22 50.5t52 20.5 52-20.5 22-50.5z"/><glyph glyph-name="Zcaron" unicode="Ž" horiz-adv-x="554" d="M242 668 142 795h105l47-54 47 54h105L346 668H242zm272-555V0H40v93l308 409H45v112h465v-92L204 113h310z"/><glyph glyph-name="zcaron" unicode="ž" horiz-adv-x="453" d="m383 647-95-145H184L89 647h98l49-69 49 69h98zm29-547V0H38v80l215 267H46v100h362v-80L197 100h215z"/><glyph glyph-name="florin" unicode="ƒ" horiz-adv-x="422" d="M60 253v100h83l20 112q14 77 59.5 118T342 624q37 0 68-12V507q-22 12-54 12-58 0-70-62l-19-104h86V253H250L203-14q-14-79-52-119T38-173q-38 0-69 12v99q24-11 54-11 26 0 38 14.5T79-12l46 265H60z"/><glyph glyph-name="Aringacute" unicode="Ǻ" horiz-adv-x="627" d="M250 614h127L612 0H482l-55 148H197L143 0H15zm160 99q0-34-28.5-57.5T312 632q-42 0-70.5 23.5T213 713t28.5 57.5T312 794q41 0 69.5-23.5T410 713zm-98-253-75-204h150zm66 352H257l57 94h135zm-27-99q0 14-11 22.5t-28 8.5-28.5-8.5T272 713q0-13 11.5-22t28.5-9 28 9 11 22z"/><glyph glyph-name="aringacute" unicode="ǻ" horiz-adv-x="468" d="M337 556q0-34-28.5-57.5T239 475q-42 0-70.5 23.5T140 556t28.5 57.5T239 637q41 0 69.5-23.5T337 556zm-59 0q0 13-11 22t-28 9-28.5-9-11.5-22q0-14 11-22.5t29-8.5q17 0 28 8.5t11 22.5zm27 99H183l58 94h135zM421 0H302v24q-12-12-43-22T193-8Q122-8 74.5 31T27 137q0 63 49.5 103T200 280q28 0 58-8t44-18v33q0 30-18.5 49.5T229 356q-50 0-66-42H45q10 62 61.5 102.5T233 457q89 0 138.5-45.5T421 285V0zM302 122v32q-8 18-30.5 28.5T221 193q-32 0-55.5-14T142 138t23-41 56-14q28 0 50.5 10.5T302 122z"/><glyph glyph-name="AEacute" unicode="Ǽ" horiz-adv-x="879" d="M365 614h474V502H567V368h245V259H567V113h272V0H441v148H233L149 0H15zm76-102L295 256h146v256zm200 157H519l80 122h135z"/><glyph glyph-name="aeacute" unicode="ǽ" horiz-adv-x="731" d="M436 508H324l79 142h123zM213 85q64 0 86 51v58h-80q-32 0-54.5-13.5T142 140t21-41 50-14zm375 59h115q-12-71-64-112.5T505-10q-95 0-155 62Q289-9 193-9 123-9 75 29.5T27 131q0 66 51.5 104T208 273h91v15q0 30-18.5 49.5T226 357q-54 0-68-43H45q10 62 60.5 102.5T229 457q94 0 140-59 59 59 135 59 95 0 148.5-61T706 235v-40H409q3-50 29-77.5T506 90q67 0 82 54zm-84 212q-75 0-92-84h173q-2 37-23 60.5T504 356z"/><glyph glyph-name="Oslashacute" unicode="Ǿ" horiz-adv-x="649" d="m50 31 52 63q-68 87-68 213 0 139 81 228t209 89q97 0 171-55l48 58 58-44-54-65q68-87 68-211 0-138-81.5-227.5T324-10q-97 0-169 53l-47-56zm113 276q0-67 21-113l236 284q-40 32-96 32-72 0-116.5-56.5T163 307zm323 0q0 65-21 111L230 134q39-30 94-30 73 0 117.5 56.5T486 307zM379 669H257l80 122h135z"/><glyph glyph-name="oslashacute" unicode="ǿ" horiz-adv-x="499" d="m34 9 47 58q-50 62-50 156 0 104 61 169t158 65q69 0 123-35l41 50 48-36-45-55q52-63 52-158 0-103-61-168T250-10q-72 0-124 35L83-28zm266 499H188l79 142h123zm48-285q0 31-10 61L196 110q22-17 54-17 45 0 71.5 36.5T348 223zm-196 0q0-34 9-59l142 172q-23 17-53 17-46 0-72-36t-26-94z"/><glyph glyph-name="Scommaaccent" unicode="Ș" horiz-adv-x="530" d="m194-225 46 62q-22 4-36 20t-14 40q0 28 20.5 46T261-39q29 0 49-19t20-50q0-34-33-78l-27-39h-76zM17 175h132q25-79 122-79 47 0 75 20.5t28 56.5q0 28-17.5 44T299 242l-110 25Q33 302 33 435q0 83 62 136t159 53q102 0 163.5-48.5T495 446H368q-25 73-113 73-44 0-70.5-19.5T158 447q0-51 69-67l112-26q161-37 161-173 0-87-64-139T272-10q-103 0-171 49T17 175z"/><glyph glyph-name="scommaaccent" unicode="ș" horiz-adv-x="437" d="m153-225 46 62q-22 4-36 20t-14 40q0 28 20.5 46T220-39q29 0 49-19t20-50q0-34-33-78l-27-39h-76zM25 133h123q15-49 75-49 63 0 63 44 0 15-10.5 23.5T241 166l-90 20Q35 213 35 312q0 64 51 104.5T213 457q83 0 130.5-36.5T403 319H285q-14 44-70 44-24 0-41.5-11T156 321q0-25 40-35l92-21q119-29 119-130 0-67-51.5-106T224-10q-83 0-136 37.5T25 133z"/><glyph glyph-name="uni0237" unicode="ȷ" horiz-adv-x="230" d="M178 447V-18q0-75-40-116T22-175q-33 0-48 5v99q21-3 27-3 53 0 53 57v464h124z"/><glyph glyph-name="circumflex" unicode="ˆ" horiz-adv-x="500" d="m302 647 95-145h-98l-49 69-49-69h-98l95 145h104z"/><glyph glyph-name="caron" unicode="ˇ" horiz-adv-x="500" d="m397 647-95-145H198l-95 145h98l49-69 49 69h98z"/><glyph glyph-name="breve" unicode="˘" horiz-adv-x="500" d="M250 492q-61 0-97 37t-36 105h88q0-58 45-58t45 58h88q0-68-36-105t-97-37z"/><glyph glyph-name="dotaccent" unicode="˙" horiz-adv-x="500" d="M324 579q0-31-22-51t-52-20-52 20-22 51q0 30 22 50.5t52 20.5 52-20.5 22-50.5z"/><glyph glyph-name="ring" unicode="˚" horiz-adv-x="500" d="M349 584q0-41-28.5-69T250 487t-70.5 28-28.5 69 28.5 69 70.5 28 70.5-28 28.5-69zm-59 0q0 16-12 28t-28 12-27.5-11.5T211 584q0-16 11.5-27.5T250 545q17 0 28.5 11.5T290 584z"/><glyph glyph-name="ogonek" unicode="˛" horiz-adv-x="500" d="M233 6h81q-6-8-14-19.5T288.5-30t-9-13-7.5-12-5-9-4-8.5-2-7.5-1-8q0-21 21-21 13 0 36 16v-74q-30-21-62-21-39 0-60.5 20.5T173-113q0 20 10 42.5T201.5-36 233 6z"/><glyph glyph-name="tilde" unicode="˜" horiz-adv-x="500" d="M322 643h71q0-63-21.5-101T307 504q-24 0-55 23t-44 23q-28 0-30-42h-71q0 63 21.5 101t64.5 38q24 0 55-23t44-23q28 0 30 42z"/><glyph glyph-name="hungarumlaut" unicode="˝" horiz-adv-x="500" d="M194 508H96l67 142h99zm141 0h-98l67 142h99z"/><glyph glyph-name="Wgrave" unicode="Ẁ" horiz-adv-x="794" d="M460 669H338l-93 122h135zm-111-55h100l106-413 101 413h126L622 0H505L397 405 289 0H172L12 614h129l100-413z"/><glyph glyph-name="wgrave" unicode="ẁ" horiz-adv-x="672" d="m385 447 74-285 80 285h120L523 0H409l-73 274L263 0H149L13 447h124l80-285 73 285h95zm12 61H284l-89 142h123z"/><glyph glyph-name="Wacute" unicode="Ẃ" horiz-adv-x="794" d="M457 669H335l80 122h135zm-108-55h100l106-413 101 413h126L622 0H505L397 405 289 0H172L12 614h129l100-413z"/><glyph glyph-name="wacute" unicode="ẃ" horiz-adv-x="672" d="M386 508H274l79 142h123zm-1-61 74-285 80 285h120L523 0H409l-73 274L263 0H149L13 447h124l80-285 73 285h95z"/><glyph glyph-name="Wdieresis" unicode="Ẅ" horiz-adv-x="794" d="M247 730q0 29 19 48.5t48 19.5q28 0 47.5-19.5T381 730q0-27-19.5-46.5T314 664t-47.5 19.5T247 730zm165 0q0 29 19.5 48.5T479 798t48-19.5 20-48.5q0-27-20-46.5T479 664t-47.5 19.5T412 730zm-63-116h100l106-413 101 413h126L622 0H505L397 405 289 0H172L12 614h129l100-413z"/><glyph glyph-name="wdieresis" unicode="ẅ" horiz-adv-x="672" d="M188 570q0 28 19.5 47.5T255 637q27 0 46.5-19.5T321 570q0-27-19.5-46.5T255 504q-28 0-47.5 19.5T188 570zm164 0q0 28 19.5 47.5T418 637t47-19.5 20-47.5q0-27-20-46.5T418 504t-46.5 19.5T352 570zm33-123 74-285 80 285h120L523 0H409l-73 274L263 0H149L13 447h124l80-285 73 285h95z"/><glyph glyph-name="Ygrave" unicode="Ỳ" horiz-adv-x="593" d="m299 354 148 260h135L359 233V0H232v233L11 614h139zm63 315H240l-93 122h135z"/><glyph glyph-name="ygrave" unicode="ỳ" horiz-adv-x="487" d="M241-165H119L184-2 13 447h131l103-297 102 297h125zm66 673H194l-89 142h123z"/><glyph glyph-name="endash" unicode="–" horiz-adv-x="471" d="M38 217v90h395v-90H38z"/><glyph glyph-name="emdash" unicode="—" horiz-adv-x="842" d="M38 217v90h766v-90H38z"/><glyph glyph-name="quoteleft" unicode="‘" horiz-adv-x="205" d="m188 614-71-110q27-5 44-24t17-48q0-33-22.5-54.5T100 356q-34 0-56.5 22.5T21 441q0 41 33 90l55 83h79z"/><glyph glyph-name="quoteright" unicode="’" horiz-adv-x="205" d="m17 366 71 110q-27 5-44 24t-17 48q0 33 22.5 54.5T105 624q34 0 56.5-22.5T184 539q0-41-33-90l-55-83H17z"/><glyph glyph-name="quotesinglbase" unicode="‚" horiz-adv-x="205" d="M17-110 88 0Q61 5 44 24T27 72q0 33 22.5 54.5T105 148q34 0 56.5-22.5T184 63q0-41-33-90l-55-83H17z"/><glyph glyph-name="quotedblleft" unicode="“" horiz-adv-x="400" d="m188 614-71-110q27-5 44-24t17-48q0-33-22.5-54.5T100 356q-34 0-56.5 22.5T21 441q0 41 33 90l55 83h79zm195 0-71-110q27-5 44-24t17-48q0-33-22.5-54.5T295 356q-34 0-56.5 22.5T216 441q0 41 33 90l55 83h79z"/><glyph glyph-name="quotedblright" unicode="”" horiz-adv-x="400" d="m17 366 71 110q-27 5-44 24t-17 48q0 33 22.5 54.5T105 624q34 0 56.5-22.5T184 539q0-41-33-90l-55-83H17zm195 0 71 110q-27 5-44 24t-17 48q0 33 22.5 54.5T300 624q34 0 56.5-22.5T379 539q0-41-33-90l-55-83h-79z"/><glyph glyph-name="quotedblbase" unicode="„" horiz-adv-x="400" d="M17-110 88 0Q61 5 44 24T27 72q0 33 22.5 54.5T105 148q34 0 56.5-22.5T184 63q0-41-33-90l-55-83H17zm195 0L283 0q-27 5-44 24t-17 48q0 33 22.5 54.5T300 148q34 0 56.5-22.5T379 63q0-41-33-90l-55-83h-79z"/><glyph glyph-name="dagger" unicode="†" horiz-adv-x="337" d="M27 475v83h99v92h85v-92h99v-83h-99V276h-85v199H27z"/><glyph glyph-name="daggerdbl" unicode="‡" horiz-adv-x="347" d="M31 499v76h100v75h84v-75h101v-76H215v-73h101v-75H215v-75h-84v75H31v75h100v73H31z"/><glyph glyph-name="bullet" unicode="•" horiz-adv-x="364" d="M336 262q0-66-44.5-109T182 110 73 152.5 29 262t44 110 109 43 109.5-43T336 262z"/><glyph glyph-name="ellipsis" unicode="…" horiz-adv-x="670" d="M27 73q0 34 22.5 56.5T105 152t55.5-22.5T183 73t-22.5-57T105-7 49.5 16 27 73zm230 0q0 34 22.5 56.5T335 152t55.5-22.5T413 73t-22.5-57T335-7t-55.5 23T257 73zm230 0q0 34 22.5 56.5T565 152t55.5-22.5T643 73t-22.5-57T565-7t-55.5 23T487 73z"/><glyph glyph-name="perthousand" unicode="‰" horiz-adv-x="984" d="m103 0 380 614h84L187 0h-84zM27 481q0 59 41.5 101T169 624t100.5-42T311 481t-41.5-100T169 340 68.5 381 27 481zm616-348q0-59-41.5-101T501-10 400.5 32 359 133t41.5 100T501 274t100.5-41T643 133zm-83 0q0 24-17 41t-42 17-42.5-17-17.5-41q0-25 17.5-42.5T501 73t42 17.5 17 42.5zm397 0q0-59-41-101T816-10 715 32t-42 101q0 58 42 99.5T816 274t100-41 41-100zm-83 0q0 24-17 41t-41 17q-25 0-42.5-17T756 133q0-25 17.5-42.5T816 73q24 0 41 17.5t17 42.5zM110 481q0-24 17-41t42-17q24 0 41.5 17t17.5 41q0 25-17.5 42.5T169 541q-25 0-42-17.5T110 481z"/><glyph glyph-name="guilsinglleft" unicode="‹" horiz-adv-x="254" d="M229 61H117L25 222l92 161h112l-92-161z"/><glyph glyph-name="guilsinglright" unicode="›" horiz-adv-x="254" d="M137 61H25l92 161-92 161h112l92-161z"/><glyph glyph-name="fraction" unicode="⁄" horiz-adv-x="216" d="M336 614-33 0h-87l369 614h87z"/><glyph glyph-name="Euro" unicode="€" horiz-adv-x="556" d="M26 333v77h58q23 98 87.5 156T323 624q86 0 140-48.5T535 440H420q-20 72-97 72-84 0-115-102h166l-15-77H195v-26q0-20 1-29h155l-16-77H209q31-99 114-99 77 0 97 72h115q-18-87-72-135.5T323-10q-87 0-151 57T85 201H26v77h48q-1 9-1 29v26H26z"/><glyph glyph-name="uni2117" unicode="℗" horiz-adv-x="704" d="M669 307q0-136-92.5-226.5T352-10 127.5 80.5 35 307t92.5 226.5T352 624t224.5-90.5T669 307zm-47 0q0 116-79 193.5T352 578t-191-77.5T82 307t79-193.5T352 36t191 77.5T622 307zm-232-72h-69V124h-96v369h165q61 0 98-34t37-95-37-95-98-34zm40 129q0 45-49 45h-60v-90h60q49 0 49 45z"/><glyph glyph-name="trademark" unicode="™" horiz-adv-x="602" d="M20 550v64h228v-64h-77V360H97v190H20zm427-190h-46l-51 146V360h-67v254h88l53-153 54 153h87V360h-67v146z"/><glyph glyph-name="uni2153" unicode="⅓" horiz-adv-x="717" d="M599 614 168 0H78l431 614h90zm-79-475v67h23q40 0 40 33 0 14-9 22.5t-25 8.5q-15 0-25.5-11T511 233h-89q6 49 38.5 81t85.5 32q57 0 89.5-28.5T668 241q0-47-36-69 40-20 40-68 0-49-33.5-79T547-5q-57 0-91.5 31.5T417 110h94q2-17 12-27.5T550 72t26.5 9 9.5 25q0 33-40 33h-26zM209 614V273h-90v237l-88-43v92l115 55h63z"/><glyph glyph-name="uni2154" unicode="⅔" horiz-adv-x="784" d="M666 614 235 0h-90l431 614h90zM202 512q0 14-8.5 22t-22.5 8-23.5-10.5T138 508H43q5 50 39 82.5t88 32.5q56 0 89.5-29.5T293 516q0-21-10-41.5t-21-32-33-33.5l-58-55h122v-78H45v61l118 116q39 37 39 59zm385-372v65h23q41 0 41 34 0 14-9.5 23t-25.5 9-26-11-12-27h-89q6 49 38.5 81t85.5 32q57 0 89.5-28.5T735 241q0-47-36-69 40-20 40-68 0-49-33.5-79T614-5q-57 0-91.5 31.5T484 110h93q2-18 12-28.5T617 71q17 0 27 9.5t10 25.5-11 25-29 9h-27z"/><glyph glyph-name="uni215B" unicode="⅛" horiz-adv-x="728" d="M599 614 168 0H78l431 614h90zM551 66q18 0 29.5 10t11.5 27q0 16-11.5 25.5T551 138t-30-9.5-12-25.5q0-17 12-27t30-10zm0 145q16 0 26 9.5t10 24.5-10 24.5-26 9.5q-17 0-27.5-9.5T513 245t10.5-24.5T551 211zm0-216q-56 0-93.5 27T420 95q0 58 54 78-43 22-43 74 0 47 34.5 73.5T551 347q49 0 84-26.5t35-73.5q0-52-44-74 54-19 54-78 0-46-36.5-73T551-5zM209 614V273h-90v237l-88-43v92l115 55h63z"/><glyph glyph-name="uni215C" unicode="⅜" horiz-adv-x="762" d="M584 66q18 0 30 10t12 27q0 16-12 25.5t-30 9.5-29.5-9.5T543 103q0-17 11.5-27T584 66zm0 145q16 0 26.5 9.5T621 245t-10.5 24.5T584 279t-26.5-9.5T547 245t10.5-24.5T584 211zm0-216q-56 0-93 27t-37 73q0 58 54 78-43 22-43 74 0 47 34.5 73.5T584 347t85-26.5 35-73.5q0-51-44-74 54-19 54-78 0-46-37-73T584-5zm48 619L202 0h-90l431 614h89zM140 412v66h23q41 0 41 33 0 15-9 24t-25 9-26.5-11-12.5-27H42q6 49 38.5 81t86.5 32q56 0 89-29t33-77q0-21-10.5-40.5T252 444q40-20 40-68 0-49-33-79t-91-30-92.5 31.5T38 383h93q1-18 11.5-29t27.5-11 27.5 10 10.5 26q0 33-41 33h-27z"/><glyph glyph-name="uni215D" unicode="⅝" horiz-adv-x="769" d="M591 66q18 0 29.5 10t11.5 27q0 16-11.5 25.5T591 138t-30-9.5-12-25.5q0-17 12-27t30-10zm0 145q16 0 26.5 9.5T628 245t-10.5 24.5T591 279t-26.5-9.5T554 245t10.5-24.5T591 211zm0-216q-56 0-93 27t-37 73q0 59 53 78-42 22-42 74 0 47 34.5 73.5T591 347t84.5-26.5T710 247q0-52-43-74 54-19 54-78 0-46-37-73T591-5zm48 619L208 0h-89l431 614h89zM173 426q-19 0-38-17H58v205h215v-76H133v-52q20 13 51 13 52 0 83-31.5t31-82.5q0-53-33.5-85.5T174 267q-58 0-93 30.5T42 380h92q2-16 13-26t27-10q17 0 27.5 11.5T212 384q0 19-10.5 30.5T173 426z"/><glyph glyph-name="uni215E" unicode="⅞" horiz-adv-x="708" d="M531 66q18 0 29.5 10t11.5 27q0 16-11.5 25.5T531 138t-30-9.5-12-25.5q0-17 12-27t30-10zm0 145q16 0 26 9.5t10 24.5-10 24.5-26 9.5-27-9.5-11-24.5 11-24.5 27-9.5zm0-216q-56 0-93.5 27T400 95q0 58 54 78-43 22-43 74 0 47 34.5 73.5T531 347q50 0 84.5-26.5T650 247q0-52-43-74 54-20 54-78 0-46-37-73T531-5zm48 619L148 0H59l430 614h90zm-299-63L173 273H79l102 261H39v80h241v-63z"/><glyph glyph-name="minus" unicode="−" horiz-adv-x="560" d="M64 251v96h432v-96H64z"/><glyph glyph-name="approxequal" unicode="≈" horiz-adv-x="576" d="M73 312v90q58 38 116 38 37 0 98-18.5t98-18.5q58 0 119 39v-90q-61-39-119-39-37 0-98 19t-98 19q-59 0-116-39zm0-153v89q57 39 116 39 37 0 98-19t98-19q60 0 119 39v-90q-60-38-119-38-37 0-98 18.5T189 197q-58 0-116-38z"/><glyph glyph-name="notequal" unicode="≠" horiz-adv-x="576" d="M73 338v87h257l63 94h83l-63-94h91v-87H355l-52-77h201v-86H246l-63-94h-82l62 94H73v86h148l51 77H73z"/><glyph glyph-name="lessequal" unicode="≤" horiz-adv-x="448" d="M60 303v117l329 125V442l-234-80 234-80V180zm0-243v93h329V60H60z"/><glyph glyph-name="greaterequal" unicode="≥" horiz-adv-x="448" d="M389 420V303L60 180v102l233 80-233 80v103zm0-267V60H60v93h329z"/><glyph glyph-name="fi" unicode="ﬁ" horiz-adv-x="558" d="M504 447V0H380v447h124zm11 129q0-31-21.5-51T442 505q-31 0-52.5 20T368 576q0 30 22 50.5t52 20.5 51.5-20.5T515 576zm-199 71V542q-17 12-44 12-61 0-61-62v-45h93V347h-93V0H89v347H16v100h73v53q0 75 43 117t115 42q42 0 69-12z"/><glyph glyph-name="fl" unicode="ﬂ" horiz-adv-x="558" d="M504 650V0H380v650h124zm-188-3V542q-17 12-44 12-61 0-61-62v-45h93V347h-93V0H89v347H16v100h73v53q0 75 43 117t115 42q42 0 69-12z"/><glyph glyph-name="i.dot" horiz-adv-x="232" d="M178 447V0H54v447h124zm12 132q0-31-22-51t-52-20-52 20-22 51q0 30 22 50.5t52 20.5 52-20.5 22-50.5z"/><glyph glyph-name="space_uni0326" horiz-adv-x="500" d="m185-225 46 62q-22 4-36 20t-14 40q0 28 20.5 46T252-39q29 0 49-19t20-50q0-34-33-78l-27-39h-76z"/><glyph glyph-name="space_uni0326.alt" horiz-adv-x="500" d="m316 696-47-64q22-5 36.5-21.5T320 570q0-28-21-46.5T248 505t-50.5 19-20.5 51q0 36 33 80l30 41h76z"/><glyph glyph-name="space_dotbelowcomb" horiz-adv-x="500" d="M323-109q0-30-21.5-50T250-179t-51.5 20-21.5 50 21.5 50T250-39t51.5-20 21.5-50z"/><glyph glyph-name="caron.Slovak" horiz-adv-x="500" d="M272 483h-97l38 167h97z"/><glyph glyph-name="cedilla.alt" horiz-adv-x="500" d="M265-186H155l70 139h114z"/><glyph glyph-name="grave.cap" horiz-adv-x="500" d="M357 669H235l-93 122h135z"/><glyph glyph-name="acute.cap" horiz-adv-x="500" d="M264 669H142l80 122h135z"/><glyph glyph-name="circumflex.cap" horiz-adv-x="500" d="m302 796 100-127H297l-47 54-47-54H98l100 127h104z"/><glyph glyph-name="caron.cap" horiz-adv-x="500" d="M198 668 98 795h105l47-54 47 54h105L302 668H198z"/><glyph glyph-name="tilde.cap" horiz-adv-x="500" d="M328 802h71q0-63-21-101t-64-38q-26 0-61.5 21T201 705q-27 0-29-39h-71q0 63 21 101t64 38q26 0 61.5-21t51.5-21q27 0 29 39z"/><glyph glyph-name="macron.cap" horiz-adv-x="500" d="M128 669v91h243v-91H128z"/><glyph glyph-name="breve.cap" horiz-adv-x="500" d="M249 663q-61 0-97.5 35T115 797h88q0-48 46-48 47 0 47 48h88q0-64-36.5-99T249 663z"/><glyph glyph-name="dotaccent.cap" horiz-adv-x="500" d="M324 734q0-30-22-50.5T250 663t-52 20.5-22 50.5q0 31 22 51t52 20 52-20 22-51z"/><glyph glyph-name="dieresis.cap" horiz-adv-x="500" d="M100 730q0 29 19 48.5t48 19.5q28 0 47.5-19.5T234 730q0-27-19.5-46.5T167 664t-47.5 19.5T100 730zm165 0q0 29 19.5 48.5T332 798t48-19.5 20-48.5q0-27-20-46.5T332 664t-47.5 19.5T265 730z"/><glyph glyph-name="ring.cap" horiz-adv-x="500" d="M349 743q0-41-28.5-69T250 646t-70.5 28-28.5 69 28.5 69 70.5 28 70.5-28 28.5-69zm-59 0q0 17-12 28.5T250 783t-27.5-11.5T211 743t11.5-28 27.5-11q17 0 28.5 11.5T290 743z"/><glyph glyph-name="hungarumlaut.cap" horiz-adv-x="500" d="M193 669H91l66 122h105zm148 0H238l67 122h104z"/><glyph glyph-name="exclamdown.cap" horiz-adv-x="217" d="M30 544q0 32 22.5 54.5T108 621t56-22.5 23-54.5q0-33-23-55.5T108 466t-55.5 22.5T30 544zM33 0l30 416h91L184 0H33z"/><glyph glyph-name="questiondown.cap" horiz-adv-x="456" d="M301 543q0-33-23-55.5T222 465t-56 22.5-23 55.5q0 32 23 54.5t56 22.5 56-22.5 23-54.5zM20 170q0 16 3 30.5t10 29T45 254t17.5 25 18 21.5 21 23T121 344q36 38 36 71h123q-2-36-13.5-60T224 295q-5-6-25-27.5T172 237t-15-26-8-34q0-33 20.5-53.5T226 103q37 0 58 24t23 61h132q-9-88-67-143.5T223-11q-94 0-148.5 49T20 170z"/><glyph glyph-name="guilsinglleft.cap" horiz-adv-x="254" d="M229 141H117L25 302l92 161h112l-92-161z"/><glyph glyph-name="guilsinglright.cap" horiz-adv-x="254" d="M137 141H25l92 161-92 161h112l92-161z"/><glyph glyph-name="guillemotleft.cap" horiz-adv-x="420" d="M223 141H117L25 302l92 161h106l-92-161zm172 0H289l-92 161 92 161h106l-92-161z"/><glyph glyph-name="guillemotright.cap" horiz-adv-x="420" d="M303 141H197l92 161-92 161h106l92-161zm-172 0H25l92 161-92 161h106l92-161z"/><glyph glyph-name="slash.cap" horiz-adv-x="373" d="m5-64 248 734h115L120-64H5z"/><glyph glyph-name="backslash.cap" horiz-adv-x="373" d="M120 670 368-64H253L5 670h115z"/><glyph glyph-name="bar.cap" horiz-adv-x="228" d="M59-64v734h110V-64H59z"/><glyph glyph-name="periodcentered.cap" horiz-adv-x="214" d="M29 300q0 34 22.5 56.5T107 379t55.5-22.5T185 300t-22.5-57-55.5-23-55.5 23T29 300z"/><glyph glyph-name="bullet.cap" horiz-adv-x="364" d="M336 299q0-66-44.5-109T182 147 73 190 29 299q0 67 44 110.5T182 453t109.5-43.5T336 299z"/><glyph glyph-name="hyphen.cap" horiz-adv-x="317" d="M38 245v109h241V245H38z"/><glyph glyph-name="endash.cap" horiz-adv-x="471" d="M38 254v91h395v-91H38z"/><glyph glyph-name="emdash.cap" horiz-adv-x="842" d="M38 254v91h766v-91H38z"/><glyph glyph-name="parenleft.cap" horiz-adv-x="325" d="M30 303q0 139 74 237.5T305 670V545q-71-19-114-83t-43-159 43-159 114-83V-64Q178-33 104 65.5T30 303z"/><glyph glyph-name="parenright.cap" horiz-adv-x="325" d="M295 303q0-139-74-237.5T20-64V61q71 19 114 83t43 159-43 159-114 83v125q127-31 201-129.5T295 303z"/><glyph glyph-name="bracketleft.cap" horiz-adv-x="322" d="M175 563V43h127V-64H59v734h243V563H175z"/><glyph glyph-name="bracketright.cap" horiz-adv-x="322" d="M147 43v520H20v107h243V-64H20V43h127z"/><glyph glyph-name="braceleft.cap" horiz-adv-x="353" d="M213 220V72q0-29 29-29h91V-64H225q-57 0-93 36T96 66v154q0 29-29 29H20v108h47q29 0 29 29v154q0 58 36 94t93 36h108V563h-91q-29 0-29-29V386q0-54-47-83 47-29 47-83z"/><glyph glyph-name="braceright.cap" horiz-adv-x="353" d="M140 72v148q0 54 47 83-47 29-47 83v148q0 29-29 29H20v107h108q57 0 93-36t36-94V386q0-29 29-29h47V249h-47q-29 0-29-29V66q0-58-36-94t-93-36H20V43h91q29 0 29 29z"/><glyph glyph-name="at.cap" horiz-adv-x="768" d="m574 478-41-236q-7-47 30-47 46 0 74 46t28 125q0 104-72 164t-186 60q-133 0-217-85.5T106 282q0-61 18.5-109T173 95t70.5-49.5 81-27.5 83.5-8q116 0 224 48v-73q-94-47-224-47-76 0-143 20.5T143 19 56 127 24 282q0 161 107 271t276 110q148 0 242-84.5T743 366q0-117-59-180t-144-63q-76 0-112 53-14-24-41-38t-56-14q-62 0-99 43t-37 108q0 86 52.5 149T380 487q28 0 51.5-10.5T465 450l6 28h103zM430 258l18 100q-5 16-20.5 26.5T391 395q-38 0-62.5-33T304 283q0-29 15-47.5t43-18.5q42 0 68 41z"/><glyph glyph-name="Euro.lt" d="M25 333v77h53q22 98 82.5 156T303 624q81 0 132.5-48.5T503 440H390q-17 72-87 72-75 0-103-102h151l-14-77H188v-55h141l-14-77H201q28-100 102-100 70 0 87 73h113q-16-87-67.5-135.5T303-10 161.5 47 78 201H25v77h42v55H25z"/><glyph glyph-name="dollar.lt" d="M217-89V8Q143 20 95.5 64.5T35 180h124q25-74 114-74 43 0 68 19t25 52q0 28-17 43.5T293 245l-98 24Q49 303 49 432q0 70 46 117.5T217 607v91h106v-95q65-15 104.5-56.5T480 442H361q-23 67-106 67-40 0-63.5-18.5T168 441q0-47 64-64l104-25q150-37 150-168 0-71-44.5-117.5T323 8v-97H217z"/><glyph glyph-name="cent.lt" d="M55 233q0 89 45 150t120 78v91h106v-91q60-14 96-56.5T465 300H344q-3 28-23 44.5T270 361q-42 0-67-35t-25-93q0-57 25-92t67-35q31 0 51 16t23 44h121q-7-62-43-104.5T326 6v-93H220V5q-75 17-120 78T55 233z"/><glyph glyph-name="sterling.lt" d="M227 424v-73h129v-97H227v-60q0-63-21-91h276V0H37v103h51q20 35 20 91v60H37v97h71v71q0 87 52.5 144.5T300 624q79 0 127.5-45.5T483 458H369q-8 61-67 61-37 0-56-26t-19-69z"/><glyph glyph-name="yen.lt" d="M47 256v84h106L14 614h134l115-237 113 237h130L365 340h106v-84H322v-56h149v-84H322V0H196v116H47v84h149v56H47z"/><glyph glyph-name="florin.lt" d="M130 253v100h83l20 112q14 77 60 118t119 41q37 0 68-12V507q-22 12-54 12-58 0-70-62l-19-104h86V253H320L273-14q-13-79-51.5-119T108-173q-38 0-69 12v99q24-11 54-11 26 0 38 14.5T149-12l46 265h-65z"/><glyph glyph-name="zero.lt" d="M260-10Q153-10 89 77.5T25 307t64 229.5T260 624t171-87.5T495 307 431 77.5 260-10zm0 520q-57 0-84-55.5T149 307t27-147.5 84-55.5q56 0 83 55.5T370 307t-27 147.5-83 55.5z"/><glyph glyph-name="one.lt" d="M72 0v111h157v357L74 390v126l198 98h81V111h138V0H72z"/><glyph glyph-name="two.lt" d="M334 436q0 33-21.5 53.5T255 510q-37 0-58.5-23.5T173 425H41q9 87 67 143t147 56q95 0 150.5-49.5T461 441q0-36-19.5-74T401 304t-62-66L220 111h248V0H43v83l194 205q5 6 17 19t17 19 15 17 14 16.5 11 15 10 16 6.5 15 5 15.5 1.5 15z"/><glyph glyph-name="three.lt" d="M218 263v99h38q41 0 66 20t25 57q0 33-23 55t-61 22q-40 0-63.5-24T173 431H49q10 84 68.5 138.5T267 624q93 0 147-49.5T468 445q0-44-21-80.5T393 312q42-18 64-54.5t22-81.5q0-81-57.5-133.5T267-10q-102 0-162 54T37 190h128q4-42 29-66.5T264 99q40 0 66 22.5t26 58.5q0 38-27 60.5T258 263h-40z"/><glyph glyph-name="four.lt" d="M356 614 156 227h135v127h116V227h92V122h-92V0H293v122H20v92l212 400h124z"/><glyph glyph-name="five.lt" d="M265 300q-59 0-94-41H69v355h369V503H173V378q41 28 104 28 91 0 147-57t56-149q0-94-59-152T265-10q-99 0-160 54T36 190h127q5-41 32.5-65.5T266 100t69 28 26 72-26 72-70 28z"/><glyph glyph-name="six.lt" d="M168 198q0-46 28.5-74.5T271 95q44 0 72 28.5t28 74.5q0 48-28 77t-72 29q-46 0-74.5-29T168 198zm314 261H358q-19 60-81 60-52 0-85.5-52T157 347v-9q16 29 50.5 47t79.5 18q90 0 145-58.5T487 201q0-90-59-150.5T270-10Q144-10 83 101q-43 77-43 193 0 146 64 238t172 92q169 0 206-165z"/><glyph glyph-name="seven.lt" d="M477 523 268 0H140l204 502H42v112h435v-91z"/><glyph glyph-name="eight.lt" d="M261 91q44 0 72.5 23.5T362 178t-28.5 63.5T261 265q-43 0-71-23.5T162 178t28.5-63.5T261 91zm0 278q36 0 61.5 21t25.5 56q0 36-25.5 57.5T261 525q-35 0-60-21.5T176 446q0-35 25-56t60-21zm0-379q-95 0-158 48T40 168q0 56 30.5 95t76.5 52q-40 17-64 53t-24 83q0 81 58.5 127T261 624q86 0 145-46t59-127q0-47-24.5-83T376 315q46-13 77-52t31-95q0-82-63.5-130T261-10z"/><glyph glyph-name="nine.lt" d="M352 416q0 46-28.5 74.5T249 519q-44 0-72-28.5T149 416q0-48 28-77t72-29q46 0 74.5 29t28.5 77zM38 155h124q19-60 81-60 52 0 85.5 52T363 267v9q-16-29-50.5-47T233 211q-90 0-145 58.5T33 413q0 90 59 150.5T250 624q126 0 187-111 43-77 43-193 0-146-64-238T244-10Q75-10 38 155z"/><glyph glyph-name="period.tab" horiz-adv-x="260" d="M51 73q0 34 23 56.5t56 22.5 55.5-22.5T208 73t-22.5-57T130-7 74 16 51 73z"/><glyph glyph-name="comma.tab" horiz-adv-x="260" d="M39-109 112 3Q86 8 68.5 27T51 75q0 33 23 54.5t56 21.5q34 0 56-22.5T208 66q0-43-33-90l-56-85H39z"/><glyph glyph-name="colon.tab" horiz-adv-x="260" d="M52 73q0 34 22.5 56.5T130 152t55.5-22.5T208 73t-22.5-57T130-7 74.5 16 52 73zm0 285q0 34 22.5 56.5T130 437t55.5-22.5T208 358t-22.5-57-55.5-23-55.5 23T52 358z"/><glyph glyph-name="semicolon.tab" horiz-adv-x="260" d="M39-109 112 3Q86 8 69 27T52 75q0 33 22.5 54.5T130 151q34 0 56-22.5T208 66q0-42-32-90l-57-85H39zm13 467q0 34 22.5 56.5T130 437t55.5-22.5T208 358t-22.5-57-55.5-23-55.5 23T52 358z"/><glyph glyph-name="space.tab" horiz-adv-x="260"/><glyph glyph-name="percent.lt" d="M20 501q0 51 35.5 87t85.5 36q52 0 87.5-36t35.5-87q0-50-35.5-85.5T141 380q-50 0-85.5 35.5T20 501zm71 0q0-21 14.5-35.5T141 451q22 0 37 14.5t15 35.5q0 22-15 37t-37 15q-21 0-35.5-15T91 501zm409-388q0-51-35.5-87T379-10q-52 0-87.5 36T256 113q0 50 35.5 85.5T379 234q50 0 85.5-35.5T500 113zm-71 0q0 21-14.5 35.5T379 163q-22 0-37-14.5T327 113q0-22 15-37t37-15q21 0 35.5 15t14.5 37zM31 0l375 614h83L114 0H31z"/><glyph glyph-name="perthousand.lt" horiz-adv-x="800" d="m35 0 385 614h83L118 0H35zm65 501q0-21 14.5-35.5T151 451q21 0 36 14.5t15 35.5q0 22-15 37t-36 15q-22 0-36.5-15T100 501zm410-388q0-51-36-87t-86-36q-51 0-87 36t-36 87q0 50 36 85.5t87 35.5q50 0 86-35.5t36-85.5zm-72 0q0 21-14.5 35.5T388 163q-22 0-37-14.5T336 113q0-22 15-37t37-15q21 0 35.5 15t14.5 37zM29 501q0 51 35.5 87t86.5 36 86.5-36 35.5-87q0-50-35.5-85.5T151 380t-86.5 35.5T29 501zm747-388q0-51-36-87t-86-36q-51 0-87 36t-36 87q0 50 36 85.5t87 35.5q50 0 86-35.5t36-85.5zm-71 0q0 21-15 35.5T654 163t-36.5-14.5T602 113q0-22 15.5-37T654 61t36 15 15 37z"/><glyph glyph-name="plus.lt" d="M212 515h96V347h168v-96H308V84h-96v167H44v96h168v168z"/><glyph glyph-name="minus.lt" d="M44 251v96h432v-96H44z"/><glyph glyph-name="multiply.lt" d="M194 298 72 418l67 66 120-121 121 121 67-66-121-120 121-121-67-67-121 121-120-121-67 67z"/><glyph glyph-name="divide.lt" d="M44 251v96h432v-96H44zm145 221q0 29 21 50t50 21 50-21 21-50-21-49.5-50-20.5-50 20.5-21 49.5zm0-346q0 29 21 49.5t50 20.5 50-20.5 21-49.5-21-50-50-21-50 21-21 50z"/><glyph glyph-name="equal.lt" d="M44 175v87h431v-87H44zm0 163v88h431v-88H44z"/><glyph glyph-name="less.lt" d="M96 236v123l328 152V403L184 297l240-105V83z"/><glyph glyph-name="greater.lt" d="M424 359V236L95 83v109l240 105L95 403v108z"/><glyph glyph-name="plusminus.lt" d="M214 548h91V418h164v-90H305V198h-91v130H50v90h164v130zM50 62v91h419V62H50z"/><glyph glyph-name="lessequal.lt" d="M95 303v117l329 125V442l-234-80 234-80V180zm0-243v93h329V60H95z"/><glyph glyph-name="greaterequal.lt" d="M424 420V303L95 180v102l234 80-234 80v103zm0-267V60H95v93h329z"/><glyph glyph-name="notequal.lt" d="M44 338v87h257l63 94h83l-63-94h91v-87H326l-52-77h201v-86H217l-63-94H72l62 94H44v86h148l51 77H44z"/><glyph glyph-name="approxequal.lt" d="M44 312v90q59 38 116 38 37 0 98.5-18.5T356 403q58 0 119 39v-90q-61-39-119-39-36 0-97.5 19T160 351q-58 0-116-39zm0-153v89q59 39 116 39 37 0 98.5-19t97.5-19q60 0 119 39v-90q-60-38-119-38-36 0-97.5 18.5T160 197q-57 0-116-38z"/></font>
</defs>
</svg>
