<svg xmlns="http://www.w3.org/2000/svg" width="20" height="20.006"><path d="M0 10.59V9.418l.036-.207.19-1.29A9.718 9.718 0 0 1 3.94 2.068 9.7 9.7 0 0 1 12.102.236a9.646 9.646 0 0 1 5.823 3.688 9.729 9.729 0 0 1 2.02 7.08 9.66 9.66 0 0 1-2.44 5.591 9.82 9.82 0 0 1-5.781 3.254l-1.137.156H9.415a1.1 1.1 0 0 0-.151-.032 9.511 9.511 0 0 1-4.363-1.377 9.87 9.87 0 0 1-4.745-6.873L0 10.59zm4.774 5.96a8.293 8.293 0 0 0 8.68 1.084 30.1 30.1 0 0 0-1.681-6.028c-2.028.41-5.69 2.995-7 4.944zm-1.176-1.126A16.636 16.636 0 0 1 11.18 10.1l-.757-1.616c-.077-.173-.15-.2-.333-.142a26.57 26.57 0 0 1-7.1 1.278l-1.382.054a8.43 8.43 0 0 0 1.989 5.751zm5.954-8.6a38.8 38.8 0 0 0-2.929-4.513 8.52 8.52 0 0 0-4.794 5.741c2.62-.03 5.222-.444 7.723-1.228zm6.955-2.1a16.75 16.75 0 0 1-4.662 2.959l.927 2.01c.923-.177 1.86-.26 2.8-.25.94.016 1.878.117 2.8.3a8.21 8.21 0 0 0-1.865-5.019zm-8.2-2.953 2.83 4.46a14.78 14.78 0 0 0 4.252-2.665 8.43 8.43 0 0 0-7.076-1.79zm6.638 15.013a8.47 8.47 0 0 0 3.34-5.413 12.6 12.6 0 0 0-4.916-.163 33.7 33.7 0 0 1 1.576 5.576z" fill="#797575"/></svg>