<svg xmlns="http://www.w3.org/2000/svg" width="22" height="22"><path d="M10.995 22C4.92 21.997-.003 17.07 0 10.995S4.93-.003 11.005 0 22.003 4.93 22 11.005A11.01 11.01 0 0 1 10.995 22zm2.75-2.192A9.233 9.233 0 0 0 9.474 1.887a9.233 9.233 0 0 0-7.666 10.005 8.99 8.99 0 0 0 2.715 5.685 8.9 8.9 0 0 0 3.841 2.272v-.247c0-.56-.01-1.118.013-1.677.004-.555.23-1.084.63-1.47.06-.058.126-.113.2-.188-.077-.014-.117-.024-.158-.028a7.32 7.32 0 0 1-2.209-.559 3.873 3.873 0 0 1-2.13-2.18 6.67 6.67 0 0 1-.41-2.2 4.08 4.08 0 0 1 .984-2.99.227.227 0 0 0 .047-.26 3.68 3.68 0 0 1 .131-2.55.222.222 0 0 1 .167-.118 3.15 3.15 0 0 1 .643.06c.713.198 1.386.52 1.99.95.093.065.21.084.32.05a9.83 9.83 0 0 1 4.937 0 .4.4 0 0 0 .35-.064 6.26 6.26 0 0 1 1.977-.934c.21-.042.425-.06.64-.058a.19.19 0 0 1 .143.1A3.69 3.69 0 0 1 16.77 8a.317.317 0 0 0 .067.352c.602.692.938 1.574.948 2.49a7.357 7.357 0 0 1-.283 2.3 3.9 3.9 0 0 1-1.418 2.057 5.696 5.696 0 0 1-2.44.96c-.243.046-.5.074-.72.108a6.87 6.87 0 0 1 .519.647c.223.402.327.858.3 1.317l.003 1.576z"/></svg>