<svg width="109.71" height="35.551" viewBox="0 0 109.71 35.551" xmlns="http://www.w3.org/2000/svg"><g id="svgGroup" stroke-linecap="round" fill-rule="evenodd" font-size="9pt" stroke="#000" stroke-width="0.25mm" fill="black" style="stroke:#000;stroke-width:0.25mm;fill:black"><path d="M 53.85 19.5 L 53.85 15.24 Q 53.85 13.117 53.214 12.257 A 1.374 1.374 0 0 0 52.05 11.67 A 2.772 2.772 0 0 0 49.954 12.615 A 4.499 4.499 0 0 0 49.44 13.29 A 5.023 5.023 0 0 0 48.913 14.481 Q 48.532 15.712 48.445 17.579 A 24.792 24.792 0 0 0 48.42 18.72 L 48.42 23.85 Q 48.174 24.196 47.622 24.257 A 2.283 2.283 0 0 1 47.37 24.27 A 1.96 1.96 0 0 1 46.84 24.202 A 1.465 1.465 0 0 1 46.17 23.805 A 1.481 1.481 0 0 1 45.828 23.215 Q 45.72 22.88 45.72 22.44 L 45.72 7.41 Q 45.72 3.51 46.47 1.755 A 2.855 2.855 0 0 1 47.287 0.635 Q 47.825 0.199 48.598 0.062 A 4.33 4.33 0 0 1 49.35 0 Q 50.408 0 51.027 0.826 A 2.637 2.637 0 0 1 51.12 0.96 A 3.332 3.332 0 0 1 51.516 1.834 Q 51.75 2.612 51.75 3.69 Q 51.75 6.9 48.42 10.23 L 48.42 12.87 A 4.378 4.378 0 0 1 49.767 11.357 Q 50.612 10.781 51.75 10.655 A 6.006 6.006 0 0 1 52.41 10.62 A 5.009 5.009 0 0 1 53.761 10.793 A 3.739 3.739 0 0 1 55.515 11.85 A 3.963 3.963 0 0 1 56.399 13.406 Q 56.586 14.001 56.644 14.716 A 8.313 8.313 0 0 1 56.67 15.39 L 56.67 19.65 A 8.761 8.761 0 0 0 56.713 20.546 Q 56.812 21.511 57.143 22.115 A 2.423 2.423 0 0 0 57.21 22.23 Q 57.702 23.022 58.615 23.093 A 2.377 2.377 0 0 0 58.8 23.1 A 1.612 1.612 0 0 0 59.787 22.75 Q 60.26 22.393 60.675 21.675 A 4.853 4.853 0 0 0 61.124 20.586 Q 61.446 19.467 61.492 17.823 A 20.18 20.18 0 0 0 61.5 17.25 Q 61.53 17.071 61.948 17.07 A 1.341 1.341 0 0 1 61.95 17.07 A 0.362 0.362 0 0 1 62.263 17.267 Q 62.454 17.572 62.485 18.35 A 7.991 7.991 0 0 1 62.49 18.66 A 7.527 7.527 0 0 1 62.23 20.681 A 6.089 6.089 0 0 1 61.305 22.62 A 4.282 4.282 0 0 1 60.317 23.626 A 3.509 3.509 0 0 1 58.23 24.27 A 4.378 4.378 0 0 1 56.526 23.947 A 4.117 4.117 0 0 1 55.095 22.935 A 4.574 4.574 0 0 1 53.914 20.413 A 6.295 6.295 0 0 1 53.85 19.5 Z M 80.55 11.04 L 80.55 19.65 Q 80.55 21.773 81.187 22.634 A 1.374 1.374 0 0 0 82.35 23.22 A 2.753 2.753 0 0 0 84.414 22.298 A 4.608 4.608 0 0 0 85.005 21.51 A 5.352 5.352 0 0 0 85.529 20.289 Q 86.04 18.598 86.04 15.75 L 86.04 12.45 A 2.877 2.877 0 0 1 86.084 11.93 Q 86.137 11.643 86.254 11.417 A 1.391 1.391 0 0 1 86.49 11.085 A 1.506 1.506 0 0 1 87.566 10.621 A 1.999 1.999 0 0 1 87.63 10.62 A 1.839 1.839 0 0 1 88.126 10.684 A 1.377 1.377 0 0 1 88.74 11.04 L 88.74 26.28 Q 89.1 26.25 89.88 26.25 A 1.344 1.344 0 0 1 90.172 26.279 Q 90.66 26.388 90.66 26.91 L 90.48 27.36 Q 89.608 27.36 89.051 27.378 A 17.067 17.067 0 0 0 88.74 27.39 L 88.74 28.89 Q 88.74 31.98 87.345 33.765 A 4.436 4.436 0 0 1 84.115 35.528 A 5.752 5.752 0 0 1 83.61 35.55 Q 82.23 35.55 81.165 34.725 Q 80.177 33.959 80.106 32.379 A 5.556 5.556 0 0 1 80.1 32.13 A 5.169 5.169 0 0 1 80.366 30.435 A 4.318 4.318 0 0 1 81.72 28.5 Q 83.187 27.278 85.539 26.72 A 14.389 14.389 0 0 1 86.04 26.61 L 86.04 21.93 A 4.498 4.498 0 0 1 84.779 23.434 Q 83.903 24.087 82.694 24.23 A 5.995 5.995 0 0 1 81.99 24.27 A 4.824 4.824 0 0 1 80.671 24.099 A 3.568 3.568 0 0 1 78.96 23.04 A 3.981 3.981 0 0 1 78.128 21.542 Q 77.85 20.656 77.85 19.5 L 77.85 12.45 A 2.877 2.877 0 0 1 77.894 11.93 Q 77.947 11.643 78.064 11.417 A 1.391 1.391 0 0 1 78.3 11.085 A 1.506 1.506 0 0 1 79.376 10.621 A 1.999 1.999 0 0 1 79.44 10.62 A 1.839 1.839 0 0 1 79.936 10.684 A 1.377 1.377 0 0 1 80.55 11.04 Z M 31.35 11.04 L 31.35 19.65 A 8.761 8.761 0 0 0 31.393 20.546 Q 31.492 21.511 31.823 22.115 A 2.423 2.423 0 0 0 31.89 22.23 A 2.087 2.087 0 0 0 32.297 22.717 A 1.576 1.576 0 0 0 33.36 23.1 A 1.748 1.748 0 0 0 34.247 22.847 Q 34.712 22.577 35.16 22.02 A 3.484 3.484 0 0 0 35.676 21.061 Q 36.042 20.07 36.143 18.507 A 19.703 19.703 0 0 0 36.18 17.25 Q 36.21 17.071 36.628 17.07 A 1.341 1.341 0 0 1 36.63 17.07 A 0.362 0.362 0 0 1 36.943 17.267 Q 37.134 17.572 37.165 18.35 A 7.991 7.991 0 0 1 37.17 18.66 Q 37.17 21.21 36.075 22.74 A 3.488 3.488 0 0 1 33.54 24.24 A 4.681 4.681 0 0 1 33 24.27 Q 30.113 24.27 29.04 21.875 A 5.646 5.646 0 0 1 28.86 21.42 Q 27.845 23.894 25.36 24.221 A 6.06 6.06 0 0 1 24.57 24.27 A 4.996 4.996 0 0 1 23.227 24.099 A 3.749 3.749 0 0 1 21.57 23.145 A 3.635 3.635 0 0 1 20.633 21.519 Q 20.468 20.94 20.437 20.246 A 7.324 7.324 0 0 1 20.43 19.92 L 20.43 12.45 A 2.877 2.877 0 0 1 20.474 11.93 Q 20.527 11.643 20.644 11.417 A 1.391 1.391 0 0 1 20.88 11.085 A 1.506 1.506 0 0 1 21.956 10.621 A 1.999 1.999 0 0 1 22.02 10.62 A 1.839 1.839 0 0 1 22.516 10.684 A 1.377 1.377 0 0 1 23.13 11.04 L 23.13 19.65 Q 23.13 21.773 23.767 22.634 A 1.374 1.374 0 0 0 24.93 23.22 Q 26.28 23.22 27.375 21.6 A 5.615 5.615 0 0 0 28.084 20.066 Q 28.301 19.346 28.396 18.479 A 13.234 13.234 0 0 0 28.47 17.04 L 28.47 12.45 A 2.534 2.534 0 0 1 28.523 11.918 Q 28.634 11.401 28.98 11.085 Q 29.49 10.62 30.21 10.62 A 1.997 1.997 0 0 1 30.689 10.674 A 1.383 1.383 0 0 1 31.35 11.04 Z M 38.91 6.6 L 38.91 11.04 L 43.02 11.04 A 2.574 2.574 0 0 1 43.292 11.053 Q 43.566 11.083 43.723 11.177 A 0.46 0.46 0 0 1 43.845 11.28 A 0.692 0.692 0 0 1 43.954 11.479 Q 44.025 11.67 44.038 11.961 A 3.005 3.005 0 0 1 44.04 12.09 L 38.91 12.09 L 38.91 19.65 Q 38.91 21.052 39.592 21.912 A 2.793 2.793 0 0 0 39.855 22.2 Q 40.8 23.1 42.03 23.1 A 3.934 3.934 0 0 0 43.138 22.953 A 2.789 2.789 0 0 0 44.76 21.72 A 4.369 4.369 0 0 0 45.219 20.691 Q 45.539 19.668 45.61 18.156 A 19.285 19.285 0 0 0 45.63 17.25 A 0.207 0.207 0 0 1 45.733 17.134 Q 45.848 17.07 46.08 17.07 A 0.362 0.362 0 0 1 46.393 17.267 Q 46.584 17.572 46.615 18.35 A 7.991 7.991 0 0 1 46.62 18.66 Q 46.62 21.09 45.405 22.68 A 3.882 3.882 0 0 1 43.184 24.099 Q 42.497 24.27 41.67 24.27 A 7.785 7.785 0 0 1 40.028 24.107 Q 38.634 23.806 37.68 22.95 A 4.193 4.193 0 0 1 36.462 20.96 Q 36.262 20.276 36.221 19.45 A 8.71 8.71 0 0 1 36.21 19.02 L 36.21 8.01 A 2.877 2.877 0 0 1 36.254 7.49 Q 36.307 7.203 36.424 6.977 A 1.391 1.391 0 0 1 36.66 6.645 A 1.506 1.506 0 0 1 37.736 6.181 A 1.999 1.999 0 0 1 37.8 6.18 A 1.839 1.839 0 0 1 38.296 6.244 A 1.377 1.377 0 0 1 38.91 6.6 Z M 72.96 11.04 L 72.96 19.65 A 8.761 8.761 0 0 0 73.003 20.546 Q 73.102 21.511 73.433 22.115 A 2.423 2.423 0 0 0 73.5 22.23 A 2.087 2.087 0 0 0 73.907 22.717 A 1.576 1.576 0 0 0 74.97 23.1 A 2.216 2.216 0 0 0 77.018 21.772 Q 77.79 20.312 77.79 17.25 Q 77.82 17.071 78.238 17.07 A 1.341 1.341 0 0 1 78.24 17.07 A 0.362 0.362 0 0 1 78.553 17.267 Q 78.744 17.572 78.775 18.35 A 7.991 7.991 0 0 1 78.78 18.66 Q 78.78 21.21 77.685 22.74 A 3.488 3.488 0 0 1 75.15 24.24 A 4.681 4.681 0 0 1 74.61 24.27 A 5.231 5.231 0 0 1 73.029 24.047 Q 71.431 23.542 70.708 21.892 A 5.418 5.418 0 0 1 70.59 21.6 A 5.293 5.293 0 0 1 69.816 22.823 A 4.558 4.558 0 0 1 69.03 23.55 Q 68.04 24.27 66.78 24.27 A 5.629 5.629 0 0 1 64.392 23.8 Q 62.004 22.692 61.609 18.978 A 14.93 14.93 0 0 1 61.53 17.4 A 11.746 11.746 0 0 1 61.671 15.518 Q 61.829 14.543 62.168 13.768 A 4.871 4.871 0 0 1 63.165 12.27 A 5.479 5.479 0 0 1 66.293 10.711 A 7.74 7.74 0 0 1 67.5 10.62 A 7.784 7.784 0 0 1 68.515 10.682 Q 69.801 10.851 70.44 11.49 A 1.789 1.789 0 0 1 70.711 11.053 A 1.223 1.223 0 0 1 71.685 10.62 Q 72.24 10.62 72.611 10.797 A 1.244 1.244 0 0 1 72.96 11.04 Z M 103.89 11.04 L 103.89 19.65 A 8.761 8.761 0 0 0 103.933 20.546 Q 104.032 21.511 104.363 22.115 A 2.423 2.423 0 0 0 104.43 22.23 A 2.087 2.087 0 0 0 104.837 22.717 A 1.576 1.576 0 0 0 105.9 23.1 A 2.216 2.216 0 0 0 107.948 21.772 Q 108.72 20.312 108.72 17.25 Q 108.75 17.071 109.168 17.07 A 1.341 1.341 0 0 1 109.17 17.07 A 0.362 0.362 0 0 1 109.483 17.267 Q 109.674 17.572 109.705 18.35 A 7.991 7.991 0 0 1 109.71 18.66 Q 109.71 21.21 108.615 22.74 A 3.488 3.488 0 0 1 106.08 24.24 A 4.681 4.681 0 0 1 105.54 24.27 A 5.231 5.231 0 0 1 103.959 24.047 Q 102.361 23.542 101.638 21.892 A 5.418 5.418 0 0 1 101.52 21.6 A 5.293 5.293 0 0 1 100.746 22.823 A 4.558 4.558 0 0 1 99.96 23.55 Q 98.97 24.27 97.71 24.27 A 5.629 5.629 0 0 1 95.322 23.8 Q 92.934 22.692 92.539 18.978 A 14.93 14.93 0 0 1 92.46 17.4 A 11.746 11.746 0 0 1 92.601 15.518 Q 92.759 14.543 93.098 13.768 A 4.871 4.871 0 0 1 94.095 12.27 A 5.479 5.479 0 0 1 97.223 10.711 A 7.74 7.74 0 0 1 98.43 10.62 A 7.784 7.784 0 0 1 99.445 10.682 Q 100.731 10.851 101.37 11.49 A 1.789 1.789 0 0 1 101.641 11.053 A 1.223 1.223 0 0 1 102.615 10.62 Q 103.17 10.62 103.541 10.797 A 1.244 1.244 0 0 1 103.89 11.04 Z M 11.46 19.08 L 11.46 23.85 Q 11.214 24.196 10.662 24.257 A 2.283 2.283 0 0 1 10.41 24.27 A 1.96 1.96 0 0 1 9.88 24.202 A 1.465 1.465 0 0 1 9.21 23.805 A 1.481 1.481 0 0 1 8.868 23.215 Q 8.76 22.88 8.76 22.44 L 8.76 11.04 Q 9.007 10.695 9.559 10.633 A 2.283 2.283 0 0 1 9.81 10.62 A 1.96 1.96 0 0 1 10.341 10.688 A 1.465 1.465 0 0 1 11.01 11.085 A 1.481 1.481 0 0 1 11.353 11.675 Q 11.46 12.011 11.46 12.45 L 11.46 14.73 A 10.048 10.048 0 0 1 12.226 13.191 Q 12.702 12.424 13.26 11.927 A 3.423 3.423 0 0 1 15.6 11.01 Q 16.821 11.01 17.616 11.429 A 2.539 2.539 0 0 1 18.36 12.015 Q 19.23 13.02 19.23 14.4 A 2.029 2.029 0 0 1 19.167 14.921 A 1.477 1.477 0 0 1 18.78 15.6 A 2.161 2.161 0 0 1 18.523 15.823 Q 18.378 15.928 18.237 15.984 A 0.875 0.875 0 0 1 17.91 16.05 Q 17.282 16.05 17.004 15.817 A 0.598 0.598 0 0 1 16.89 15.69 A 2.031 2.031 0 0 0 16.989 15.353 Q 17.059 15.019 17.069 14.555 A 7.336 7.336 0 0 0 17.07 14.4 A 2.328 2.328 0 0 0 16.553 12.935 A 2.938 2.938 0 0 0 16.5 12.87 A 2.06 2.06 0 0 0 16.024 12.44 A 1.644 1.644 0 0 0 15.12 12.18 A 1.72 1.72 0 0 0 14.043 12.587 Q 13.262 13.202 12.585 14.745 A 18.028 18.028 0 0 0 11.992 16.271 Q 11.46 17.863 11.46 19.08 Z M 3.09 11.04 L 3.09 19.65 A 7.099 7.099 0 0 0 3.149 20.591 Q 3.213 21.069 3.347 21.457 A 2.775 2.775 0 0 0 3.75 22.23 A 2.101 2.101 0 0 0 5.273 23.087 A 2.769 2.769 0 0 0 5.55 23.1 Q 6.69 23.1 7.68 21.72 Q 8.67 20.34 8.67 17.25 A 0.207 0.207 0 0 1 8.773 17.134 Q 8.888 17.07 9.12 17.07 A 0.362 0.362 0 0 1 9.433 17.267 Q 9.624 17.572 9.655 18.35 A 7.991 7.991 0 0 1 9.66 18.66 A 7.072 7.072 0 0 1 9.365 20.743 A 5.935 5.935 0 0 1 8.4 22.62 A 4.466 4.466 0 0 1 7.311 23.658 A 3.773 3.773 0 0 1 5.19 24.27 A 6.492 6.492 0 0 1 3.793 24.13 Q 2.916 23.936 2.269 23.477 A 3.573 3.573 0 0 1 1.575 22.83 Q 0.39 21.39 0.39 18.75 L 0.39 12.45 A 2.877 2.877 0 0 1 0.434 11.93 Q 0.487 11.643 0.604 11.417 A 1.391 1.391 0 0 1 0.84 11.085 A 1.506 1.506 0 0 1 1.916 10.621 A 1.999 1.999 0 0 1 1.98 10.62 A 1.839 1.839 0 0 1 2.476 10.684 A 1.377 1.377 0 0 1 3.09 11.04 Z M 70.23 19.05 L 70.23 14.94 A 4.407 4.407 0 0 0 70.127 13.959 A 3.017 3.017 0 0 0 69.495 12.66 A 2.958 2.958 0 0 0 68.994 12.183 A 1.9 1.9 0 0 0 67.845 11.79 Q 66.935 11.79 66.396 11.968 A 2.255 2.255 0 0 0 66.39 11.97 Q 65.85 12.15 65.37 12.72 A 2.604 2.604 0 0 0 64.895 13.52 Q 64.402 14.751 64.381 17.182 A 25.352 25.352 0 0 0 64.38 17.4 Q 64.38 19.597 64.741 20.892 A 5.719 5.719 0 0 0 64.8 21.09 A 7.343 7.343 0 0 0 65.011 21.672 Q 65.242 22.231 65.505 22.53 A 1.214 1.214 0 0 0 65.76 22.755 A 2.003 2.003 0 0 0 66.324 22.997 Q 66.708 23.1 67.2 23.1 A 1.743 1.743 0 0 0 67.914 22.935 Q 68.508 22.67 69.165 21.975 A 3.827 3.827 0 0 0 70.164 19.908 A 5.322 5.322 0 0 0 70.23 19.05 Z M 101.16 19.05 L 101.16 14.94 A 4.407 4.407 0 0 0 101.057 13.959 A 3.017 3.017 0 0 0 100.425 12.66 A 2.958 2.958 0 0 0 99.924 12.183 A 1.9 1.9 0 0 0 98.775 11.79 Q 97.865 11.79 97.326 11.968 A 2.255 2.255 0 0 0 97.32 11.97 Q 96.78 12.15 96.3 12.72 A 2.604 2.604 0 0 0 95.825 13.52 Q 95.332 14.751 95.311 17.182 A 25.352 25.352 0 0 0 95.31 17.4 Q 95.31 19.597 95.671 20.892 A 5.719 5.719 0 0 0 95.73 21.09 A 7.343 7.343 0 0 0 95.941 21.672 Q 96.172 22.231 96.435 22.53 A 1.214 1.214 0 0 0 96.69 22.755 A 2.003 2.003 0 0 0 97.254 22.997 Q 97.638 23.1 98.13 23.1 A 1.743 1.743 0 0 0 98.844 22.935 Q 99.438 22.67 100.095 21.975 A 3.827 3.827 0 0 0 101.094 19.908 A 5.322 5.322 0 0 0 101.16 19.05 Z M 81.63 32.22 A 3.089 3.089 0 0 0 81.691 32.853 Q 81.771 33.236 81.957 33.527 A 1.673 1.673 0 0 0 82.2 33.825 Q 82.77 34.38 83.58 34.38 Q 84.39 34.38 84.9 33.9 A 2.063 2.063 0 0 0 85.386 33.165 Q 85.921 31.917 86.019 29.091 A 38.899 38.899 0 0 0 86.04 27.75 Q 81.63 28.74 81.63 32.22 Z M 48.42 8.79 A 11.883 11.883 0 0 0 49.582 6.993 Q 50.151 5.891 50.352 4.817 A 6.301 6.301 0 0 0 50.46 3.66 Q 50.46 1.52 49.663 1.219 A 0.794 0.794 0 0 0 49.38 1.17 A 0.511 0.511 0 0 0 48.969 1.389 Q 48.709 1.72 48.6 2.55 A 12.492 12.492 0 0 0 48.53 3.32 Q 48.42 4.993 48.42 8.79 Z M 0 6.444 A 1.708 1.708 0 0 0 0.51 7.68 A 1.712 1.712 0 0 0 1.061 8.055 A 1.815 1.815 0 0 0 1.77 8.19 Q 2.52 8.19 3.045 7.68 A 1.718 1.718 0 0 0 3.418 7.159 A 1.76 1.76 0 0 0 3.57 6.42 A 2.124 2.124 0 0 0 3.57 6.397 A 1.733 1.733 0 0 0 3.045 5.145 A 2.064 2.064 0 0 0 3.029 5.129 A 1.734 1.734 0 0 0 1.77 4.62 A 2.111 2.111 0 0 0 1.724 4.621 A 1.681 1.681 0 0 0 0.51 5.145 Q 0 5.67 0 6.42 A 2.191 2.191 0 0 0 0 6.444 Z" vector-effect="non-scaling-stroke"></path></g></svg>