<svg width="270.901" height="62.76" viewBox="0 0 270.901 62.76" xmlns="http://www.w3.org/2000/svg"><g id="svgGroup" stroke-linecap="round" fill-rule="evenodd" font-size="9pt" stroke="#000" stroke-width="0.25mm" fill="black" style="stroke:#000;stroke-width:0.25mm;fill:black"><path d="M 136.44 27.54 L 136.44 47.04 L 128.04 47.04 L 128.04 28.68 A 12.696 12.696 0 0 0 127.832 26.305 Q 127.398 24.03 126.06 22.59 Q 124.08 20.46 120.66 20.46 A 9.192 9.192 0 0 0 118.349 20.735 A 6.526 6.526 0 0 0 115.17 22.59 A 6.899 6.899 0 0 0 113.602 25.37 Q 113.16 26.824 113.16 28.68 L 113.16 47.04 L 104.76 47.04 L 104.76 2.64 L 113.16 2.64 L 113.16 17.94 A 10.654 10.654 0 0 1 116.584 15.001 A 12.943 12.943 0 0 1 117.48 14.55 Q 120.18 13.32 123.48 13.32 A 14.813 14.813 0 0 1 127.26 13.786 A 12.451 12.451 0 0 1 130.2 14.97 Q 133.14 16.62 134.79 19.83 A 14.372 14.372 0 0 1 136.102 23.727 Q 136.44 25.501 136.44 27.54 Z M 207.96 13.8 L 216.9 13.8 L 196.32 62.76 L 187.38 62.76 L 194.58 46.2 L 181.26 13.8 L 190.68 13.8 L 199.26 37.02 L 207.96 13.8 Z M 64.74 13.8 L 73.2 13.8 L 73.2 47.04 L 64.74 47.04 L 64.74 42.84 A 10.993 10.993 0 0 1 60.872 46.053 A 12.946 12.946 0 0 1 60.51 46.23 Q 57.9 47.46 54.84 47.46 A 15.697 15.697 0 0 1 51.058 47.022 A 12.843 12.843 0 0 1 47.94 45.81 A 11.56 11.56 0 0 1 43.394 41.248 A 13.926 13.926 0 0 1 43.23 40.95 A 14.159 14.159 0 0 1 41.825 36.828 A 19.488 19.488 0 0 1 41.52 33.3 L 41.52 13.8 L 49.92 13.8 L 49.92 32.1 A 12.696 12.696 0 0 0 50.128 34.476 Q 50.562 36.751 51.9 38.19 Q 53.88 40.32 57.3 40.32 A 9.146 9.146 0 0 0 59.608 40.045 A 6.41 6.41 0 0 0 62.76 38.19 Q 64.475 36.346 64.705 33.129 A 14.44 14.44 0 0 0 64.74 32.1 L 64.74 13.8 Z M 168.42 18.54 L 168.42 13.8 L 176.88 13.8 L 176.88 47.04 L 168.42 47.04 L 168.42 42.18 A 11.813 11.813 0 0 1 165.456 45.126 A 14.808 14.808 0 0 1 163.95 46.05 A 12.786 12.786 0 0 1 159.62 47.431 A 16.301 16.301 0 0 1 157.38 47.58 Q 153.18 47.58 149.73 45.42 A 14.84 14.84 0 0 1 144.795 40.285 A 17.971 17.971 0 0 1 144.27 39.33 Q 142.26 35.4 142.26 30.3 Q 142.26 25.26 144.27 21.36 Q 146.28 17.46 149.73 15.36 A 14.509 14.509 0 0 1 157.307 13.261 A 17.203 17.203 0 0 1 157.44 13.26 A 15.661 15.661 0 0 1 160.724 13.59 A 12.144 12.144 0 0 1 163.95 14.76 A 14.278 14.278 0 0 1 166.805 16.755 A 12.12 12.12 0 0 1 168.42 18.54 Z M 245.4 18.54 L 245.4 13.8 L 253.86 13.8 L 253.86 47.04 L 245.4 47.04 L 245.4 42.18 A 11.813 11.813 0 0 1 242.436 45.126 A 14.808 14.808 0 0 1 240.93 46.05 A 12.786 12.786 0 0 1 236.6 47.431 A 16.301 16.301 0 0 1 234.36 47.58 Q 230.16 47.58 226.71 45.42 A 14.84 14.84 0 0 1 221.775 40.285 A 17.971 17.971 0 0 1 221.25 39.33 Q 219.24 35.4 219.24 30.3 Q 219.24 25.26 221.25 21.36 Q 223.26 17.46 226.71 15.36 A 14.509 14.509 0 0 1 234.287 13.261 A 17.203 17.203 0 0 1 234.42 13.26 A 15.661 15.661 0 0 1 237.704 13.59 A 12.144 12.144 0 0 1 240.93 14.76 A 14.278 14.278 0 0 1 243.785 16.755 A 12.12 12.12 0 0 1 245.4 18.54 Z M 98.7 20.7 L 91.26 20.7 L 91.26 36.78 Q 91.26 38.46 92.07 39.21 Q 92.827 39.911 94.552 39.957 A 9.281 9.281 0 0 0 94.8 39.96 L 98.7 39.96 L 98.7 47.04 L 93.42 47.04 A 15.796 15.796 0 0 1 89.282 46.546 Q 84.547 45.258 83.271 40.609 A 14.71 14.71 0 0 1 82.8 36.72 L 82.8 20.7 L 78.84 20.7 L 78.84 13.8 L 82.8 13.8 L 82.8 5.58 L 91.26 5.58 L 91.26 13.8 L 98.7 13.8 L 98.7 20.7 Z M 36.18 13.32 L 36.18 22.14 L 33.96 22.14 A 13.469 13.469 0 0 0 31.728 22.313 Q 30.526 22.515 29.573 22.955 A 6.022 6.022 0 0 0 27.99 24 A 5.27 5.27 0 0 0 26.727 25.875 Q 25.98 27.665 25.98 30.48 L 25.98 47.04 L 17.58 47.04 L 17.58 13.8 L 25.98 13.8 L 25.98 18.96 Q 27.6 16.32 30.21 14.82 A 11.31 11.31 0 0 1 34.746 13.392 A 14.037 14.037 0 0 1 36.18 13.32 Z M 0.9 13.8 L 9.3 13.8 L 9.3 47.04 L 0.9 47.04 L 0.9 13.8 Z M 168.42 30.42 A 13.053 13.053 0 0 0 168.191 27.909 A 9.437 9.437 0 0 0 167.22 25.17 A 8.724 8.724 0 0 0 165.173 22.641 A 8.232 8.232 0 0 0 163.98 21.81 Q 161.94 20.64 159.6 20.64 Q 157.26 20.64 155.28 21.78 A 8.357 8.357 0 0 0 152.494 24.42 A 10.259 10.259 0 0 0 152.07 25.11 A 9.431 9.431 0 0 0 151.013 28.164 A 12.661 12.661 0 0 0 150.84 30.3 A 12.367 12.367 0 0 0 151.129 33.031 A 9.663 9.663 0 0 0 152.07 35.55 A 9.458 9.458 0 0 0 153.78 37.827 A 8.325 8.325 0 0 0 155.31 39 Q 157.32 40.2 159.6 40.2 Q 161.94 40.2 163.98 39.03 A 8.411 8.411 0 0 0 167.106 35.873 A 10.029 10.029 0 0 0 167.22 35.67 A 9.476 9.476 0 0 0 168.207 32.847 A 13.132 13.132 0 0 0 168.42 30.42 Z M 245.4 30.42 A 13.053 13.053 0 0 0 245.171 27.909 A 9.437 9.437 0 0 0 244.2 25.17 A 8.724 8.724 0 0 0 242.153 22.641 A 8.232 8.232 0 0 0 240.96 21.81 Q 238.92 20.64 236.58 20.64 Q 234.24 20.64 232.26 21.78 A 8.357 8.357 0 0 0 229.474 24.42 A 10.259 10.259 0 0 0 229.05 25.11 A 9.431 9.431 0 0 0 227.993 28.164 A 12.661 12.661 0 0 0 227.82 30.3 A 12.367 12.367 0 0 0 228.109 33.031 A 9.663 9.663 0 0 0 229.05 35.55 A 9.458 9.458 0 0 0 230.76 37.827 A 8.325 8.325 0 0 0 232.29 39 Q 234.3 40.2 236.58 40.2 Q 238.92 40.2 240.96 39.03 A 8.411 8.411 0 0 0 244.086 35.873 A 10.029 10.029 0 0 0 244.2 35.67 A 9.476 9.476 0 0 0 245.187 32.847 A 13.132 13.132 0 0 0 245.4 30.42 Z M 264.021 47.209 A 6.04 6.04 0 0 0 265.8 47.46 A 6.558 6.558 0 0 0 266.343 47.438 A 4.889 4.889 0 0 0 269.46 46.05 Q 270.9 44.64 270.9 42.54 Q 270.9 40.44 269.46 39.03 Q 268.02 37.62 265.8 37.62 A 6.779 6.779 0 0 0 265.074 37.658 A 5.014 5.014 0 0 0 262.05 39.03 A 4.709 4.709 0 0 0 260.971 40.558 A 4.921 4.921 0 0 0 260.58 42.54 A 5.909 5.909 0 0 0 260.582 42.671 A 4.647 4.647 0 0 0 262.05 46.05 A 4.876 4.876 0 0 0 264.021 47.209 Z M 3.302 9.551 A 5.741 5.741 0 0 0 5.16 9.84 A 6.649 6.649 0 0 0 5.604 9.826 A 5.02 5.02 0 0 0 8.85 8.43 A 4.709 4.709 0 0 0 9.93 6.902 A 4.921 4.921 0 0 0 10.32 4.92 A 5.909 5.909 0 0 0 10.319 4.79 A 4.647 4.647 0 0 0 8.85 1.41 A 4.896 4.896 0 0 0 7.018 0.29 A 5.741 5.741 0 0 0 5.16 0 A 6.649 6.649 0 0 0 4.717 0.015 A 5.02 5.02 0 0 0 1.47 1.41 A 4.709 4.709 0 0 0 0.391 2.938 A 4.921 4.921 0 0 0 0 4.92 A 5.909 5.909 0 0 0 0.002 5.051 A 4.647 4.647 0 0 0 1.47 8.43 A 4.896 4.896 0 0 0 3.302 9.551 Z" vector-effect="non-scaling-stroke"></path></g></svg>