<svg width="34.934" height="27.721" fill="#fff" viewBox="0 0 170.075 70.846" xmlns="http://www.w3.org/2000/svg"><path d="M98.877 6.703a32.574 32.574 0 0 0-.023-.007q-2.987-.914-5.537-1.073a33.499 33.499 0 0 0-.202-.01q-4.586-.205-7.678.93a22.048 22.048 0 0 0-.197.073 19.689 19.689 0 0 0-5.443 3.087q-2.8 2.24-4.4 5.16-1.32 2.409-1.279 5.498a15.216 15.216 0 0 0 .079 1.342q.56 4.48 2.64 8.68 2.08 4.2 5.92 6.76 3.84 2.56 7.88 4.84t8.04 4.6a12.8 12.8 0 0 1 1.542.976 9.812 9.812 0 0 1 2.818 3.184 7.898 7.898 0 0 1 .961 3.853q0 .958-.201 1.987-.24 1.76-1.44 3.08t-3.04 1.48a33.098 33.098 0 0 1-2.492.095 30.729 30.729 0 0 1-5.748-.535q-4-.76-7.28-3.96-.75-.7-1.578-1.619a40.301 40.301 0 0 1-1.022-1.181 222.695 222.695 0 0 0-.388-.465q-1.17-1.395-2.132-2.495-1.108-1.304-2.375-1.253a2.59 2.59 0 0 0-.585.093 3.464 3.464 0 0 0-.744.301q-.634.346-1.163.969a6.362 6.362 0 0 0-.733 1.09 7.351 7.351 0 0 0-.118.257q-.886 2.038-.322 4.183a12.034 12.034 0 0 0 .078.284 12.555 12.555 0 0 0 2.002 3.996q1.48 2 3.04 3.44t2.36 1.92a23.527 23.527 0 0 0 .271.178 20.202 20.202 0 0 0 8.929 3.222 42.348 42.348 0 0 0 .59.059q4.627.427 9.89-.099 3.76-.32 6.92-2.56t5.08-5.56a12.668 12.668 0 0 0 1.772-6.436 12.984 12.984 0 0 0-.012-.564q-.24-5.92-3.24-9.88a21.683 21.683 0 0 0-3-3.212 26.04 26.04 0 0 0-4.96-3.388q-2.4-1.2-4.84-2.28-2.44-1.08-4.84-2.28-2.96-1.52-5.4-3.56-2.44-2.04-3.8-5-.32-.8-.52-1.64-.111-.467-.111-.896a3.051 3.051 0 0 1 .071-.664 7.134 7.134 0 0 1 .479-1.634 8.318 8.318 0 0 1 1.201-1.966q1.36-1.68 3.24-2.84a9.362 9.362 0 0 1 1.433-.73 6.938 6.938 0 0 1 2.287-.51 26.807 26.807 0 0 1 .721-.046q2.316-.115 4.072.222a9.326 9.326 0 0 1 1.847.544q2.48 1.04 4.08 3.08.85 1.084 1.677 2.404a39.253 39.253 0 0 1 1.443 2.516q.32.581.708 1.004a3.37 3.37 0 0 0 1.572.996 3.368 3.368 0 0 0 .929.133q.924 0 1.831-.533a4.652 4.652 0 0 0 .23-.13 3.417 3.417 0 0 0 1.65-2.23 5.86 5.86 0 0 0 .048-.228q.093-.491.093-.962a4.5 4.5 0 0 0-.341-1.73q-1.04-2.8-2.8-5.36-1.76-2.56-4.48-4.24a28.785 28.785 0 0 0-1.575-.913 24.361 24.361 0 0 0-4.385-1.847Zm-3.8 61.56h1.2a28.74 28.74 0 0 0 4.733-.701 22.712 22.712 0 0 0 3.707-1.219 10.525 10.525 0 0 0 4.126-3.232 15.29 15.29 0 0 0 1.754-2.848 11.709 11.709 0 0 0 1.106-4.093q.055-.621.055-1.269a15.253 15.253 0 0 0-.001-.198 16.344 16.344 0 0 0-1.261-6.033 18.487 18.487 0 0 0-.019-.047q-1.24-3-3.72-5.24-4.08-3.76-9.44-5.76-4.16-1.6-7.8-4.04-3.64-2.44-6.52-5.88-2.041-2.59-2.041-5.373a7.604 7.604 0 0 1 .001-.107q.04-2.84 1.8-5.24 1.76-2.4 4.64-3.6a22.383 22.383 0 0 1 2.516-.886q2.333-.66 4.284-.554a14.234 14.234 0 0 1 2.429.331 10.322 10.322 0 0 1 2.651.989 15.269 15.269 0 0 1 2.049 1.334 12.05 12.05 0 0 1 1.471 1.346 29.779 29.779 0 0 1 .801.903q.715.843 1.142 1.504a8.093 8.093 0 0 1 .097.153q.64.96 1.2 1.92.56.96 1.28 1.84.24.32.84.48.6.16.92.08a2.209 2.209 0 0 0 .325-.241q.148-.132.297-.301a4.499 4.499 0 0 0 .178-.218 2.381 2.381 0 0 0 .226-.349q.107-.206.148-.406a1.211 1.211 0 0 0 .026-.245q.08-.56-.16-1.16a12.628 12.628 0 0 1-.292-.806 10.803 10.803 0 0 1-.108-.354q-.96-3.76-4.04-6.24a20.035 20.035 0 0 0-5.938-3.274 23.427 23.427 0 0 0-1.262-.406q-4.12-1.2-8.24-.96a17.568 17.568 0 0 0-4.095.706 14.407 14.407 0 0 0-3.145 1.374q-2.56 1.52-4.36 4.08-1.8 2.56-2.4 5.6-.561 2.844.313 5.758a13.894 13.894 0 0 0 .127.402 17.945 17.945 0 0 0 2.213 4.566 15.548 15.548 0 0 0 2.307 2.674q3.08 2.84 6.76 5.16 3.04 1.92 6.28 3.56 3.24 1.64 6.44 3.4a12.181 12.181 0 0 1 2.414 1.673 9.069 9.069 0 0 1 2.186 2.927q1.177 2.533 1.177 5.67a17.331 17.331 0 0 1-.017.77 7.641 7.641 0 0 1-1.362 3.86 9.721 9.721 0 0 1-.558.74 7.068 7.068 0 0 1-1.645 1.475 5.824 5.824 0 0 1-2.595.885q-5.68.48-10.72-.96a15.713 15.713 0 0 1-6.39-3.666 21.264 21.264 0 0 1-2.41-2.654q-1.12-1.6-2.56-2.8a1.989 1.989 0 0 0-.289-.288q-.157-.13-.359-.255a4.983 4.983 0 0 0-.392-.217q-.499-.249-.92-.249a1.303 1.303 0 0 0-.36.049q-.265.199-.64.672a9.96 9.96 0 0 0-.16.208 2.126 2.126 0 0 0-.32.64q-.16.506-.16 1.2 0 1.28.44 2.36.44 1.08 1.08 2.2a16.946 16.946 0 0 0 2.721 3.286 14.339 14.339 0 0 0 2.519 1.874q3.08 1.8 6.64 2.6 3.56.8 7.08 1.12Zm-52-29.52h.08v-19.84a14.374 14.374 0 0 0-.046-1.196q-.101-1.204-.424-1.928a2.137 2.137 0 0 0-.49-.716 2.189 2.189 0 0 0-.681-.409q-1.079-.427-3.159-.311-1.84.08-3.72-.04-1.88-.12-3.72-.52-1.44-.4-2.56-1.4a2.551 2.551 0 0 1-.817-1.507q-.091-.517-.029-1.14a5.986 5.986 0 0 1 .046-.353 4.403 4.403 0 0 1 .354-1.125 3.14 3.14 0 0 1 1.286-1.395q1.32-.76 2.92-.84 2.16-.24 4.32-.36t4.32-.2q10.64-.08 21.2 0a11.233 11.233 0 0 1 1.01.048 14.691 14.691 0 0 1 .91.112q1.04.16 1.44.72.8.88 1.32 2.08a7.483 7.483 0 0 1 .52 1.725 6.687 6.687 0 0 1 .08.675 4.054 4.054 0 0 1 .006.213q0 .456-.109.835a2.124 2.124 0 0 1-.857 1.192q-1.04.72-2.48.8-2.08.08-4.16.12a72.119 72.119 0 0 1-1.387.013 72.154 72.154 0 0 1-2.773-.053 7.498 7.498 0 0 0-.378-.024q-1.018-.037-1.66.247a1.829 1.829 0 0 0-.562.377q-.742.742-.683 2.513a8.375 8.375 0 0 0 .003.087q.16 9.6 0 19.2-.08 5.2-.24 10.44-.16 5.24-.24 10.52 0 2.4.32 3.48a1.916 1.916 0 0 0 1.074 1.253 2.646 2.646 0 0 0 .406.147 6.568 6.568 0 0 0 .751.155q1.084.165 2.809.165 2.08 0 4.16.12t4.16.28q1.76.16 2.64 1.24.807.99.807 2.417a5.268 5.268 0 0 1-.007.263 4.12 4.12 0 0 1-.135 1.083 2.969 2.969 0 0 1-.865 1.437 3.425 3.425 0 0 1-1.77.851 4.808 4.808 0 0 1-.83.069q-3.92.08-7.88.12-3.96.04-7.96.04h-5.52q-2.88.08-5.68.28a56.7 56.7 0 0 1-4.041.143 59.031 59.031 0 0 1-1.639-.023 4.266 4.266 0 0 1-3.136-1.293 5.205 5.205 0 0 1-.104-.107q-1.32-1.4-1.24-3.08a3.658 3.658 0 0 1 1.244-2.612 4.617 4.617 0 0 1 .076-.068q1.24-1.08 3.32-1.16h6.96q1.875.078 2.682-.645a1.778 1.778 0 0 0 .038-.035q.8-.76.72-2.68a435.819 435.819 0 0 1-.053-6.809 430.688 430.688 0 0 1 .013-3.391q.04-5.08.04-10.2Zm8.08 30.16 1.4-.08q1.4-.08 3.56-.16l4.36-.16a135.206 135.206 0 0 1 1.825-.055q.833-.019 1.572-.024a75.262 75.262 0 0 1 .483-.001q1.04 0 1.88-.28a1.167 1.167 0 0 0 .698-.643q.108-.226.165-.524a3.636 3.636 0 0 0 .057-.473q.08-1.36-.76-1.84t-1.96-.48q-2.08 0-4.2.04t-4.2.04q-4.561 0-5.719-3.641a7.877 7.877 0 0 1-.281-1.239q-.32-2.32-.4-4.6-.08-2.28 0-4.52.08-4.32.28-8.68.2-4.36.28-8.68 0-4.4-.08-8.8t-.24-8.8a4.821 4.821 0 0 1 .048-.706q.133-.894.632-1.334.514-.454 1.417-.61a5.573 5.573 0 0 1 .623-.07q4 0 8.08-.48.8-.08 1.76.04t1.64-.24a1.073 1.073 0 0 0 .462-.5q.218-.45.218-1.22 0-1.009-.361-1.621a1.764 1.764 0 0 0-.839-.739 5.836 5.836 0 0 0-1.203-.365q-.795-.155-1.757-.155a1.926 1.926 0 0 0-.192-.038q-.182-.027-.333-.007a.925.925 0 0 0-.035.005 2.725 2.725 0 0 1-.225.027q-.155.013-.335.013l-13.08.32q-6.52.16-13.08.24-1.28 0-2.28.44a1.435 1.435 0 0 0-.806.928q-.147.459-.114 1.112.041.813.329 1.295a1.36 1.36 0 0 0 .791.625q1.04.32 2.32.24 1.92-.16 3.8-.24l3.72-.16q2.606-.134 3.147 1.965a4.648 4.648 0 0 1 .133.915q.16 1.68.36 3.36.2 1.68.2 3.36.08 9.52.12 19.04a1510.533 1510.533 0 0 1 .013 6.347 1510.557 1510.557 0 0 1-.053 12.693 14.464 14.464 0 0 1-.038 1.096q-.128 1.673-.682 2.301a1.307 1.307 0 0 1-.08.083q-.8.76-3.6.92-2.08.08-4.2.08t-4.28.24a2.082 2.082 0 0 0-.475.131q-.214.085-.444.221a4.656 4.656 0 0 0-.321.208 2.664 2.664 0 0 0-.347.288q-.171.171-.273.351a1.135 1.135 0 0 0-.14.401q-.08.56.48 1.28.35.45.701.682a1.523 1.523 0 0 0 .419.198q.96.32 2 .48 1.04.16 2.08.16a245.807 245.807 0 0 0 5.12.053 245.774 245.774 0 0 0 2.56-.013q3.84-.04 7.68-.04Zm78.56-11.36q-.8 2.56-1.92 5-1.12 2.44-2.4 4.76a6.955 6.955 0 0 1-.767 1.148q-.803.962-1.833 1.332-1.56.56-2.84-.2a3.122 3.122 0 0 1-1.137-1.202q-.26-.469-.427-1.069a6.824 6.824 0 0 1-.116-.489 9.476 9.476 0 0 1-.127-1.127q-.041-.751.017-1.592a15.767 15.767 0 0 1 .03-.361q.16-1.72.56-3.08 3.28-11.36 6.64-22.76 3.36-11.4 6.8-22.76.96-3.04 2.16-6.16 1.2-3.12 2.64-6.08.568-.994 1.734-1.862a9.726 9.726 0 0 1 .306-.218q1.387-.952 2.186-.803a1.102 1.102 0 0 1 .014.003 2.967 2.967 0 0 1 1.012.558q.342.28.657.678a5.946 5.946 0 0 1 .211.284q.84 1.2 1.24 2.56a3.068 3.068 0 0 1 .134.616q.087.747-.114 1.729a8.711 8.711 0 0 1-.02.095q-.32 1.48-.56 2.76-.56 2.24-1.12 4.4t-1.2 4.4q-2.96 9.92-5.84 19.8t-5.92 19.64Zm12.558-50.922a3.626 3.626 0 0 0-.438-1.758 5.912 5.912 0 0 0-.352-.575q-.398-.567-.807-.781a1.098 1.098 0 0 0-.401-.124 1.151 1.151 0 0 0-.226-.023q-.532 0-1.008.516a3.063 3.063 0 0 0-.246.307q-.68.96-1.24 1.84-.48.8-.8 1.8-.32 1-.64 1.96-3.68 12.4-7.4 24.76-3.72 12.36-7.4 24.68a54.681 54.681 0 0 0-.603 1.923 46.753 46.753 0 0 0-.237.837q-.36 1.32-.44 2.68 0 .974.246 2.158a15.118 15.118 0 0 0 .034.162 3.175 3.175 0 0 0 .171.554q.121.287.29.483a1.178 1.178 0 0 0 .699.403 1.293 1.293 0 0 0 .117.005q.607 0 1.194-.573a4.077 4.077 0 0 0 .409-.472 11.913 11.913 0 0 0 .516-.742q.241-.377.413-.723a5.205 5.205 0 0 0 .231-.535q1.36-3.28 2.52-6.76t2.28-6.92q.76-2.433 1.918-6.057a1865.862 1865.862 0 0 1 .122-.383q1.24-3.88 2.64-8.4 1.4-4.52 2.76-9.08 1.36-4.56 2.56-8.6t1.96-6.96a97.627 97.627 0 0 0 .341-1.348q.459-1.871.579-2.772.238-.781.238-1.482ZM19.963 38.398a1.803 1.803 0 0 0-.566-.375q-2-.88-4-1.68-2-.8-3.92-1.68-.24-.08-.48-.24l-.48-.32a1.523 1.523 0 0 1-.552-.762 1.928 1.928 0 0 1-.088-.598q0-.88.56-1.36 1.92-1.44 3.88-2.84a2421.278 2421.278 0 0 0 .126-.09q1.884-1.346 3.394-2.43 1.56-1.12 2.12-1.6a1.724 1.724 0 0 0 .331-.392q.321-.517.349-1.328a2.498 2.498 0 0 0 .001-.086q0-1.122-1.001-2.354-.88-1.12-2.32-1.36a5.775 5.775 0 0 0-.012-.002q-1.431-.235-2.068.402-1.68 1.52-3.76 2.8-2.08 1.28-3.84 2.64-1.44 1.12-3.32 2.56a17.751 17.751 0 0 0-.233.181 15.898 15.898 0 0 0-2.967 3.059A5.555 5.555 0 0 0 0 33.904a6.369 6.369 0 0 0 .037.679 12.253 12.253 0 0 0 .133.794q.265 1.308.766 2.067a2.375 2.375 0 0 0 .861.819 2.046 2.046 0 0 0 .025.015q.424.246 1.975.905a334.434 334.434 0 0 0 .46.195q.706.299 1.504.633a610.746 610.746 0 0 0 1.756.732q2.12.88 4.28 1.8a428.955 428.955 0 0 1 .139.059q1.037.442 1.971.847a267.45 267.45 0 0 1 1.77.774 175.124 175.124 0 0 1 .577.256q.887.396 1.41.643a19.496 19.496 0 0 1 .373.181 1.303 1.303 0 0 0 .488.095q.596 0 1.272-.535.63-.499 1.019-1.359a5.91 5.91 0 0 0 .341-1.001 4.374 4.374 0 0 0 .107-.951q0-.192-.018-.382a4.378 4.378 0 0 0-.409-1.467q-.405-.861-.874-1.305Zm128.923 3.113a4.562 4.562 0 0 0 .111.992 6.94 6.94 0 0 0 .144.497q.173.523.412.939a3.351 3.351 0 0 0 .764.924q.92.76 1.72.36.485-.243 1.59-.715a114.448 114.448 0 0 1 .77-.325q1.72-.72 3.88-1.64 2.16-.92 4.28-1.84a189.636 189.636 0 0 1 1.274-.548q1.346-.572 2.446-1.012 1.3-.52 1.808-.776a3.063 3.063 0 0 0 .192-.104 2.136 2.136 0 0 0 .608-.491q.588-.673.914-1.981a11.614 11.614 0 0 0 .238-1.288 6.525 6.525 0 0 0 .038-.696 5.486 5.486 0 0 0-1.078-3.304 14.34 14.34 0 0 0-.7-.886 16.111 16.111 0 0 0-2.46-2.314 314.234 314.234 0 0 0-.121-.093q-1.808-1.383-3.279-2.467a39.562 39.562 0 0 0-.907-.68 45.509 45.509 0 0 0-2.933-1.96q-2.08-1.28-3.76-2.8-.64-.64-2.08-.4t-2.32 1.36q-1.002 1.155-1.002 2.311a2.668 2.668 0 0 0 .002.089 4.078 4.078 0 0 0 .03.385q.045.35.152.634a1.805 1.805 0 0 0 .498.741q.64.48 2.16 1.6a127.744 127.744 0 0 0 .437.32q1.364.997 3.083 2.2 2 1.4 3.84 2.84a1.439 1.439 0 0 1 .51.682q.092.261.092.576a2.249 2.249 0 0 1-.002.102q-.04.88-.68 1.36l-.48.32q-.24.16-.4.24-2 .88-3.96 1.68a315.956 315.956 0 0 0-.492.201 348.545 348.545 0 0 0-3.548 1.479q-.588.235-1.067 1.031a5.776 5.776 0 0 0-.333.649 4.439 4.439 0 0 0-.391 1.808Zm1.626-.287a2.705 2.705 0 0 0 .005.159q.08 1.36.4 1.92.291.364.582.364a.469.469 0 0 0 .058-.004q.292-.037.517-.106a2.092 2.092 0 0 0 .043-.014q1.2-.64 3.36-1.56t4.32-1.88q1.654-.735 2.745-1.236a104.787 104.787 0 0 0 .615-.284 55.656 55.656 0 0 1 .271-.135q.397-.195 1.082-.528a551.166 551.166 0 0 1 .447-.217 10.643 10.643 0 0 0 2.334-1.552 11.891 11.891 0 0 0 .146-.128q1.16-1.04 1.16-2.4a2.102 2.102 0 0 0-.132-.703q-.253-.711-.988-1.577-.963-1.135-2.368-2.358a32.629 32.629 0 0 0-.472-.402q-1.72-1.44-3.48-2.72a343.366 343.366 0 0 0-1.463-1.059q-.669-.481-1.267-.905a192.114 192.114 0 0 0-.39-.276 142.033 142.033 0 0 1-.549-.39q-.688-.49-1.032-.751a9.133 9.133 0 0 1-.179-.139 2.312 2.312 0 0 0-.141-.128q-.277-.234-.859-.632-.76-.52-1.48-.96a4.11 4.11 0 0 0-.308-.172q-.502-.25-.812-.188a.988.988 0 0 0-.193.074q-.28.137-.687.486a3.418 3.418 0 0 0-.442.451 2.531 2.531 0 0 0-.358.589q-.16.56.08.84.215.25.365.405a3.991 3.991 0 0 0 .035.035q.457.327 1.742 1.054a90.229 90.229 0 0 0 .618.346q1.8 1 3.88 2.36 2.08 1.36 3.64 2.92 1.089 1.089 1.418 2.197a3.369 3.369 0 0 1 .142.963 1.185 1.185 0 0 1 .004.098q0 .814-1.119 1.627a6.538 6.538 0 0 1-.285.195 16.505 16.505 0 0 1-1.418.817q-.99.51-2.182.983-2.12.84-4.2 1.56a9.1 9.1 0 0 1-.631.184 10.959 10.959 0 0 1-.409.096 2.467 2.467 0 0 0-.579.198 2.092 2.092 0 0 0-.381.242q-1.205.979-1.205 2.241ZM19.157 43.303a1.722 1.722 0 0 0 .213-.422q.155-.433.206-1.096a8.417 8.417 0 0 0 .021-.402 2.794 2.794 0 0 0 .001-.082q0-.921-.613-1.693a4.095 4.095 0 0 0-.628-.625 2.18 2.18 0 0 0-.706-.373 2.677 2.677 0 0 0-.254-.067q-.56-.12-1.04-.28-2-.72-4.16-1.56a24.349 24.349 0 0 1-1.636-.702q-.797-.38-1.463-.781a12.958 12.958 0 0 1-.501-.317 5.844 5.844 0 0 1-.596-.45q-.844-.735-.844-1.47 0-1.222 1.008-2.469a7.787 7.787 0 0 1 .552-.611q1.56-1.56 3.64-2.92 2.08-1.36 3.88-2.36 1.553-.863 2.183-1.279a5.947 5.947 0 0 0 .177-.121q.144-.145.354-.42a9.372 9.372 0 0 0 .046-.06q.24-.32.08-.8-.24-.64-.8-1.12-.56-.48-.88-.56a.422.422 0 0 0-.079-.012q-.328-.018-.999.37a8.986 8.986 0 0 0-.002.002q-.76.44-1.48 1t-1.04.8q-.327.261-1.294.923a108.227 108.227 0 0 1-.466.317q-.935.632-2.059 1.454a107.09 107.09 0 0 0-1.061.786q-1.76 1.32-3.44 2.72a27.504 27.504 0 0 0-1.452 1.295q-.659.633-1.197 1.249a16.365 16.365 0 0 0-.151.176 7.056 7.056 0 0 0-.541.72q-.579.892-.579 1.64a2.784 2.784 0 0 0 .567 1.673 4.193 4.193 0 0 0 .593.647 11.445 11.445 0 0 0 1.805 1.333 10.167 10.167 0 0 0 .635.347l1.76.88a24.834 24.834 0 0 0 .844.427q1.031.5 2.516 1.133 2.16.92 4.36 1.84 1.813.758 2.893 1.326a14.051 14.051 0 0 1 .427.234q.181.06.431.098a4.398 4.398 0 0 0 .169.022.583.583 0 0 0 .064.004q.318 0 .536-.364Z"/></svg>