<svg width="75.567" height="21.049" fill="#f70011" viewBox="0 0 170.075 70.846" xmlns="http://www.w3.org/2000/svg"><path d="M 98.877 6.703 A 32.574 32.574 0 0 0 98.854 6.696 Q 95.867 5.782 93.317 5.623 A 33.499 33.499 0 0 0 93.115 5.613 Q 88.529 5.408 85.437 6.543 A 22.048 22.048 0 0 0 85.24 6.616 A 19.689 19.689 0 0 0 79.797 9.703 Q 76.997 11.943 75.397 14.863 Q 74.077 17.272 74.118 20.361 A 15.216 15.216 0 0 0 74.197 21.703 Q 74.757 26.183 76.837 30.383 Q 78.917 34.583 82.757 37.143 Q 86.597 39.703 90.637 41.983 Q 94.677 44.263 98.677 46.583 A 12.8 12.8 0 0 1 100.219 47.559 A 9.812 9.812 0 0 1 103.037 50.743 A 7.898 7.898 0 0 1 103.998 54.596 Q 103.998 55.554 103.797 56.583 Q 103.557 58.343 102.357 59.663 Q 101.157 60.983 99.317 61.143 A 33.098 33.098 0 0 1 96.825 61.238 A 30.729 30.729 0 0 1 91.077 60.703 Q 87.077 59.943 83.797 56.743 Q 83.047 56.043 82.219 55.124 A 40.301 40.301 0 0 1 81.197 53.943 A 222.695 222.695 0 0 0 80.809 53.478 Q 79.639 52.083 78.677 50.983 Q 77.569 49.679 76.302 49.73 A 2.59 2.59 0 0 0 75.717 49.823 A 3.464 3.464 0 0 0 74.973 50.124 Q 74.339 50.47 73.81 51.093 A 6.362 6.362 0 0 0 73.077 52.183 A 7.351 7.351 0 0 0 72.959 52.44 Q 72.073 54.478 72.637 56.623 A 12.034 12.034 0 0 0 72.715 56.907 A 12.555 12.555 0 0 0 74.717 60.903 Q 76.197 62.903 77.757 64.343 Q 79.317 65.783 80.117 66.263 A 23.527 23.527 0 0 0 80.388 66.441 A 20.202 20.202 0 0 0 89.317 69.663 A 42.348 42.348 0 0 0 89.907 69.722 Q 94.534 70.149 99.797 69.623 Q 103.557 69.303 106.717 67.063 Q 109.877 64.823 111.797 61.503 A 12.668 12.668 0 0 0 113.569 55.067 A 12.984 12.984 0 0 0 113.557 54.503 Q 113.317 48.583 110.317 44.623 A 21.683 21.683 0 0 0 107.317 41.411 A 26.04 26.04 0 0 0 102.357 38.023 Q 99.957 36.823 97.517 35.743 Q 95.077 34.663 92.677 33.463 Q 89.717 31.943 87.277 29.903 Q 84.837 27.863 83.477 24.903 Q 83.157 24.103 82.957 23.263 Q 82.846 22.796 82.846 22.367 A 3.051 3.051 0 0 1 82.917 21.703 A 7.134 7.134 0 0 1 83.396 20.069 A 8.318 8.318 0 0 1 84.597 18.103 Q 85.957 16.423 87.837 15.263 A 9.362 9.362 0 0 1 89.27 14.533 A 6.938 6.938 0 0 1 91.557 14.023 A 26.807 26.807 0 0 1 92.278 13.977 Q 94.594 13.862 96.35 14.199 A 9.326 9.326 0 0 1 98.197 14.743 Q 100.677 15.783 102.277 17.823 Q 103.127 18.907 103.954 20.227 A 39.253 39.253 0 0 1 105.397 22.743 Q 105.717 23.324 106.105 23.747 A 3.37 3.37 0 0 0 107.677 24.743 A 3.368 3.368 0 0 0 108.606 24.876 Q 109.53 24.876 110.437 24.343 A 4.652 4.652 0 0 0 110.667 24.213 A 3.417 3.417 0 0 0 112.317 21.983 A 5.86 5.86 0 0 0 112.365 21.755 Q 112.458 21.264 112.458 20.793 A 4.5 4.5 0 0 0 112.117 19.063 Q 111.077 16.263 109.317 13.703 Q 107.557 11.143 104.837 9.463 A 28.785 28.785 0 0 0 103.262 8.55 A 24.361 24.361 0 0 0 98.877 6.703 Z M 95.077 68.263 L 96.277 68.263 A 28.74 28.74 0 0 0 101.01 67.562 A 22.712 22.712 0 0 0 104.717 66.343 A 10.525 10.525 0 0 0 108.843 63.111 A 15.29 15.29 0 0 0 110.597 60.263 A 11.709 11.709 0 0 0 111.703 56.17 Q 111.758 55.549 111.758 54.901 A 15.253 15.253 0 0 0 111.757 54.703 A 16.344 16.344 0 0 0 110.496 48.67 A 18.487 18.487 0 0 0 110.477 48.623 Q 109.237 45.623 106.757 43.383 Q 102.677 39.623 97.317 37.623 Q 93.157 36.023 89.517 33.583 Q 85.877 31.143 82.997 27.703 Q 80.956 25.113 80.956 22.33 A 7.604 7.604 0 0 1 80.957 22.223 Q 80.997 19.383 82.757 16.983 Q 84.517 14.583 87.397 13.383 A 22.383 22.383 0 0 1 89.913 12.497 Q 92.246 11.837 94.197 11.943 A 14.234 14.234 0 0 1 96.626 12.274 A 10.322 10.322 0 0 1 99.277 13.263 A 15.269 15.269 0 0 1 101.326 14.597 A 12.05 12.05 0 0 1 102.797 15.943 A 29.779 29.779 0 0 1 103.598 16.846 Q 104.313 17.689 104.74 18.35 A 8.093 8.093 0 0 1 104.837 18.503 Q 105.477 19.463 106.037 20.423 Q 106.597 21.383 107.317 22.263 Q 107.557 22.583 108.157 22.743 Q 108.757 22.903 109.077 22.823 A 2.209 2.209 0 0 0 109.402 22.582 Q 109.55 22.45 109.699 22.281 A 4.499 4.499 0 0 0 109.877 22.063 A 2.381 2.381 0 0 0 110.103 21.714 Q 110.21 21.508 110.251 21.308 A 1.211 1.211 0 0 0 110.277 21.063 Q 110.357 20.503 110.117 19.903 A 12.628 12.628 0 0 1 109.825 19.097 A 10.803 10.803 0 0 1 109.717 18.743 Q 108.757 14.983 105.677 12.503 A 20.035 20.035 0 0 0 99.739 9.229 A 23.427 23.427 0 0 0 98.477 8.823 Q 94.357 7.623 90.237 7.863 A 17.568 17.568 0 0 0 86.142 8.569 A 14.407 14.407 0 0 0 82.997 9.943 Q 80.437 11.463 78.637 14.023 Q 76.837 16.583 76.237 19.623 Q 75.676 22.467 76.55 25.381 A 13.894 13.894 0 0 0 76.677 25.783 A 17.945 17.945 0 0 0 78.89 30.349 A 15.548 15.548 0 0 0 81.197 33.023 Q 84.277 35.863 87.957 38.183 Q 90.997 40.103 94.237 41.743 Q 97.477 43.383 100.677 45.143 A 12.181 12.181 0 0 1 103.091 46.816 A 9.069 9.069 0 0 1 105.277 49.743 Q 106.454 52.276 106.454 55.413 A 17.331 17.331 0 0 1 106.437 56.183 A 7.641 7.641 0 0 1 105.075 60.043 A 9.721 9.721 0 0 1 104.517 60.783 A 7.068 7.068 0 0 1 102.872 62.258 A 5.824 5.824 0 0 1 100.277 63.143 Q 94.597 63.623 89.557 62.183 A 15.713 15.713 0 0 1 83.167 58.517 A 21.264 21.264 0 0 1 80.757 55.863 Q 79.637 54.263 78.197 53.063 A 1.989 1.989 0 0 0 77.908 52.775 Q 77.751 52.645 77.549 52.52 A 4.983 4.983 0 0 0 77.157 52.303 Q 76.658 52.054 76.237 52.054 A 1.303 1.303 0 0 0 75.877 52.103 Q 75.612 52.302 75.237 52.775 A 9.96 9.96 0 0 0 75.077 52.983 A 2.126 2.126 0 0 0 74.757 53.623 Q 74.597 54.129 74.597 54.823 Q 74.597 56.103 75.037 57.183 Q 75.477 58.263 76.117 59.383 A 16.946 16.946 0 0 0 78.838 62.669 A 14.339 14.339 0 0 0 81.357 64.543 Q 84.437 66.343 87.997 67.143 Q 91.557 67.943 95.077 68.263 Z M 43.077 38.743 L 43.157 38.743 L 43.157 18.903 A 14.374 14.374 0 0 0 43.111 17.707 Q 43.01 16.503 42.687 15.779 A 2.137 2.137 0 0 0 42.197 15.063 A 2.189 2.189 0 0 0 41.516 14.654 Q 40.437 14.227 38.357 14.343 Q 36.517 14.423 34.637 14.303 Q 32.757 14.183 30.917 13.783 Q 29.477 13.383 28.357 12.383 A 2.551 2.551 0 0 1 27.54 10.876 Q 27.449 10.359 27.511 9.736 A 5.986 5.986 0 0 1 27.557 9.383 A 4.403 4.403 0 0 1 27.911 8.258 A 3.14 3.14 0 0 1 29.197 6.863 Q 30.517 6.103 32.117 6.023 Q 34.277 5.783 36.437 5.663 Q 38.597 5.543 40.757 5.463 Q 51.397 5.383 61.957 5.463 A 11.233 11.233 0 0 1 62.967 5.511 A 14.691 14.691 0 0 1 63.877 5.623 Q 64.917 5.783 65.317 6.343 Q 66.117 7.223 66.637 8.423 A 7.483 7.483 0 0 1 67.157 10.148 A 6.687 6.687 0 0 1 67.237 10.823 A 4.054 4.054 0 0 1 67.243 11.036 Q 67.243 11.492 67.134 11.871 A 2.124 2.124 0 0 1 66.277 13.063 Q 65.237 13.783 63.797 13.863 Q 61.717 13.943 59.637 13.983 A 72.119 72.119 0 0 1 58.25 13.996 A 72.154 72.154 0 0 1 55.477 13.943 A 7.498 7.498 0 0 0 55.099 13.919 Q 54.081 13.882 53.439 14.166 A 1.829 1.829 0 0 0 52.877 14.543 Q 52.135 15.285 52.194 17.056 A 8.375 8.375 0 0 0 52.197 17.143 Q 52.357 26.743 52.197 36.343 Q 52.117 41.543 51.957 46.783 Q 51.797 52.023 51.717 57.303 Q 51.717 59.703 52.037 60.783 A 1.916 1.916 0 0 0 53.111 62.036 A 2.646 2.646 0 0 0 53.517 62.183 A 6.568 6.568 0 0 0 54.268 62.338 Q 55.352 62.503 57.077 62.503 Q 59.157 62.503 61.237 62.623 Q 63.317 62.743 65.397 62.903 Q 67.157 63.063 68.037 64.143 Q 68.844 65.133 68.844 66.56 A 5.268 5.268 0 0 1 68.837 66.823 A 4.12 4.12 0 0 1 68.702 67.906 A 2.969 2.969 0 0 1 67.837 69.343 A 3.425 3.425 0 0 1 66.067 70.194 A 4.808 4.808 0 0 1 65.237 70.263 Q 61.317 70.343 57.357 70.383 Q 53.397 70.423 49.397 70.423 L 43.877 70.423 Q 40.997 70.503 38.197 70.703 A 56.7 56.7 0 0 1 34.156 70.846 A 59.031 59.031 0 0 1 32.517 70.823 A 4.266 4.266 0 0 1 29.381 69.53 A 5.205 5.205 0 0 1 29.277 69.423 Q 27.957 68.023 28.037 66.343 A 3.658 3.658 0 0 1 29.281 63.731 A 4.617 4.617 0 0 1 29.357 63.663 Q 30.597 62.583 32.677 62.503 L 39.637 62.503 Q 41.512 62.581 42.319 61.858 A 1.778 1.778 0 0 0 42.357 61.823 Q 43.157 61.063 43.077 59.143 A 435.819 435.819 0 0 1 43.024 52.334 A 430.688 430.688 0 0 1 43.037 48.943 Q 43.077 43.863 43.077 38.743 Z M 51.157 68.903 L 52.557 68.823 Q 53.957 68.743 56.117 68.663 Q 58.277 68.583 60.477 68.503 A 135.206 135.206 0 0 1 62.302 68.448 Q 63.135 68.429 63.874 68.424 A 75.262 75.262 0 0 1 64.357 68.423 Q 65.397 68.423 66.237 68.143 A 1.167 1.167 0 0 0 66.935 67.5 Q 67.043 67.274 67.1 66.976 A 3.636 3.636 0 0 0 67.157 66.503 Q 67.237 65.143 66.397 64.663 Q 65.557 64.183 64.437 64.183 Q 62.357 64.183 60.237 64.223 Q 58.117 64.263 56.037 64.263 Q 51.476 64.263 50.318 60.622 A 7.877 7.877 0 0 1 50.037 59.383 Q 49.717 57.063 49.637 54.783 Q 49.557 52.503 49.637 50.263 Q 49.717 45.943 49.917 41.583 Q 50.117 37.223 50.197 32.903 Q 50.197 28.503 50.117 24.103 Q 50.037 19.703 49.877 15.303 A 4.821 4.821 0 0 1 49.925 14.597 Q 50.058 13.703 50.557 13.263 Q 51.071 12.809 51.974 12.653 A 5.573 5.573 0 0 1 52.597 12.583 Q 56.597 12.583 60.677 12.103 Q 61.477 12.023 62.437 12.143 Q 63.397 12.263 64.077 11.903 A 1.073 1.073 0 0 0 64.539 11.403 Q 64.757 10.953 64.757 10.183 Q 64.757 9.174 64.396 8.562 A 1.764 1.764 0 0 0 63.557 7.823 A 5.836 5.836 0 0 0 62.354 7.458 Q 61.559 7.303 60.597 7.303 A 1.926 1.926 0 0 0 60.405 7.265 Q 60.223 7.238 60.072 7.258 A 0.925 0.925 0 0 0 60.037 7.263 A 2.725 2.725 0 0 1 59.812 7.29 Q 59.657 7.303 59.477 7.303 Q 52.917 7.463 46.397 7.623 Q 39.877 7.783 33.317 7.863 Q 32.037 7.863 31.037 8.303 A 1.435 1.435 0 0 0 30.231 9.231 Q 30.084 9.69 30.117 10.343 Q 30.158 11.156 30.446 11.638 A 1.36 1.36 0 0 0 31.237 12.263 Q 32.277 12.583 33.557 12.503 Q 35.477 12.343 37.357 12.263 Q 39.237 12.183 41.077 12.103 Q 43.683 11.969 44.224 14.068 A 4.648 4.648 0 0 1 44.357 14.983 Q 44.517 16.663 44.717 18.343 Q 44.917 20.023 44.917 21.703 Q 44.997 31.223 45.037 40.743 A 1510.533 1510.533 0 0 1 45.05 47.09 A 1510.557 1510.557 0 0 1 44.997 59.783 A 14.464 14.464 0 0 1 44.959 60.879 Q 44.831 62.552 44.277 63.18 A 1.307 1.307 0 0 1 44.197 63.263 Q 43.397 64.023 40.597 64.183 Q 38.517 64.263 36.397 64.263 Q 34.277 64.263 32.117 64.503 A 2.082 2.082 0 0 0 31.642 64.634 Q 31.428 64.719 31.198 64.855 A 4.656 4.656 0 0 0 30.877 65.063 A 2.664 2.664 0 0 0 30.53 65.351 Q 30.359 65.522 30.257 65.702 A 1.135 1.135 0 0 0 30.117 66.103 Q 30.037 66.663 30.597 67.383 Q 30.947 67.833 31.298 68.065 A 1.523 1.523 0 0 0 31.717 68.263 Q 32.677 68.583 33.717 68.743 Q 34.757 68.903 35.797 68.903 A 245.807 245.807 0 0 0 40.917 68.956 A 245.774 245.774 0 0 0 43.477 68.943 Q 47.317 68.903 51.157 68.903 Z M 129.717 57.543 Q 128.917 60.103 127.797 62.543 Q 126.677 64.983 125.397 67.303 A 6.955 6.955 0 0 1 124.63 68.451 Q 123.827 69.413 122.797 69.783 Q 121.237 70.343 119.957 69.583 A 3.122 3.122 0 0 1 118.82 68.381 Q 118.56 67.912 118.393 67.312 A 6.824 6.824 0 0 1 118.277 66.823 A 9.476 9.476 0 0 1 118.15 65.696 Q 118.109 64.945 118.167 64.104 A 15.767 15.767 0 0 1 118.197 63.743 Q 118.357 62.023 118.757 60.663 Q 122.037 49.303 125.397 37.903 Q 128.757 26.503 132.197 15.143 Q 133.157 12.103 134.357 8.983 Q 135.557 5.863 136.997 2.903 Q 137.565 1.909 138.731 1.041 A 9.726 9.726 0 0 1 139.037 0.823 Q 140.424 -0.129 141.223 0.02 A 1.102 1.102 0 0 1 141.237 0.023 A 2.967 2.967 0 0 1 142.249 0.581 Q 142.591 0.861 142.906 1.259 A 5.946 5.946 0 0 1 143.117 1.543 Q 143.957 2.743 144.357 4.103 A 3.068 3.068 0 0 1 144.491 4.719 Q 144.578 5.466 144.377 6.448 A 8.711 8.711 0 0 1 144.357 6.543 Q 144.037 8.023 143.797 9.303 Q 143.237 11.543 142.677 13.703 Q 142.117 15.863 141.477 18.103 Q 138.517 28.023 135.637 37.903 Q 132.757 47.783 129.717 57.543 Z M 142.275 6.621 A 3.626 3.626 0 0 0 141.837 4.863 A 5.912 5.912 0 0 0 141.485 4.288 Q 141.087 3.721 140.678 3.507 A 1.098 1.098 0 0 0 140.277 3.383 A 1.151 1.151 0 0 0 140.051 3.36 Q 139.519 3.36 139.043 3.876 A 3.063 3.063 0 0 0 138.797 4.183 Q 138.117 5.143 137.557 6.023 Q 137.077 6.823 136.757 7.823 Q 136.437 8.823 136.117 9.783 Q 132.437 22.183 128.717 34.543 Q 124.997 46.903 121.317 59.223 A 54.681 54.681 0 0 0 120.714 61.146 A 46.753 46.753 0 0 0 120.477 61.983 Q 120.117 63.303 120.037 64.663 Q 120.037 65.637 120.283 66.821 A 15.118 15.118 0 0 0 120.317 66.983 A 3.175 3.175 0 0 0 120.488 67.537 Q 120.609 67.824 120.778 68.02 A 1.178 1.178 0 0 0 121.477 68.423 A 1.293 1.293 0 0 0 121.594 68.428 Q 122.201 68.428 122.788 67.855 A 4.077 4.077 0 0 0 123.197 67.383 A 11.913 11.913 0 0 0 123.713 66.641 Q 123.954 66.264 124.126 65.918 A 5.205 5.205 0 0 0 124.357 65.383 Q 125.717 62.103 126.877 58.623 Q 128.037 55.143 129.157 51.703 Q 129.917 49.27 131.075 45.646 A 1865.862 1865.862 0 0 1 131.197 45.263 Q 132.437 41.383 133.837 36.863 Q 135.237 32.343 136.597 27.783 Q 137.957 23.223 139.157 19.183 Q 140.357 15.143 141.117 12.223 A 97.627 97.627 0 0 0 141.458 10.875 Q 141.917 9.004 142.037 8.103 Q 142.275 7.322 142.275 6.621 Z M 19.963 38.398 A 1.803 1.803 0 0 0 19.397 38.023 Q 17.397 37.143 15.397 36.343 Q 13.397 35.543 11.477 34.663 Q 11.237 34.583 10.997 34.423 L 10.517 34.103 A 1.523 1.523 0 0 1 9.965 33.341 A 1.928 1.928 0 0 1 9.877 32.743 Q 9.877 31.863 10.437 31.383 Q 12.357 29.943 14.317 28.543 A 2421.278 2421.278 0 0 0 14.443 28.453 Q 16.327 27.107 17.837 26.023 Q 19.397 24.903 19.957 24.423 A 1.724 1.724 0 0 0 20.288 24.031 Q 20.609 23.514 20.637 22.703 A 2.498 2.498 0 0 0 20.638 22.617 Q 20.638 21.495 19.637 20.263 Q 18.757 19.143 17.317 18.903 A 5.775 5.775 0 0 0 17.305 18.901 Q 15.874 18.666 15.237 19.303 Q 13.557 20.823 11.477 22.103 Q 9.397 23.383 7.637 24.743 Q 6.197 25.863 4.317 27.303 A 17.751 17.751 0 0 0 4.084 27.484 A 15.898 15.898 0 0 0 1.117 30.543 A 5.555 5.555 0 0 0 0 33.904 A 6.369 6.369 0 0 0 0.037 34.583 A 12.253 12.253 0 0 0 0.17 35.377 Q 0.435 36.685 0.936 37.444 A 2.375 2.375 0 0 0 1.797 38.263 A 2.046 2.046 0 0 0 1.822 38.278 Q 2.246 38.524 3.797 39.183 A 334.434 334.434 0 0 0 4.257 39.378 Q 4.963 39.677 5.761 40.011 A 610.746 610.746 0 0 0 7.517 40.743 Q 9.637 41.623 11.797 42.543 A 428.955 428.955 0 0 1 11.936 42.602 Q 12.973 43.044 13.907 43.449 A 267.45 267.45 0 0 1 15.677 44.223 A 175.124 175.124 0 0 1 16.254 44.479 Q 17.141 44.875 17.664 45.122 A 19.496 19.496 0 0 1 18.037 45.303 A 1.303 1.303 0 0 0 18.525 45.398 Q 19.121 45.398 19.797 44.863 Q 20.427 44.364 20.816 43.504 A 5.91 5.91 0 0 0 21.157 42.503 A 4.374 4.374 0 0 0 21.264 41.552 Q 21.264 41.36 21.246 41.17 A 4.378 4.378 0 0 0 20.837 39.703 Q 20.432 38.842 19.963 38.398 Z M 148.886 41.511 A 4.562 4.562 0 0 0 148.997 42.503 A 6.94 6.94 0 0 0 149.141 43 Q 149.314 43.523 149.553 43.939 A 3.351 3.351 0 0 0 150.317 44.863 Q 151.237 45.623 152.037 45.223 Q 152.522 44.98 153.627 44.508 A 114.448 114.448 0 0 1 154.397 44.183 Q 156.117 43.463 158.277 42.543 Q 160.437 41.623 162.557 40.703 A 189.636 189.636 0 0 1 163.831 40.155 Q 165.177 39.583 166.277 39.143 Q 167.577 38.623 168.085 38.367 A 3.063 3.063 0 0 0 168.277 38.263 A 2.136 2.136 0 0 0 168.885 37.772 Q 169.473 37.099 169.799 35.791 A 11.614 11.614 0 0 0 170.037 34.503 A 6.525 6.525 0 0 0 170.075 33.807 A 5.486 5.486 0 0 0 168.997 30.503 A 14.34 14.34 0 0 0 168.297 29.617 A 16.111 16.111 0 0 0 165.837 27.303 A 314.234 314.234 0 0 0 165.716 27.21 Q 163.908 25.827 162.437 24.743 A 39.562 39.562 0 0 0 161.53 24.063 A 45.509 45.509 0 0 0 158.597 22.103 Q 156.517 20.823 154.837 19.303 Q 154.197 18.663 152.757 18.903 Q 151.317 19.143 150.437 20.263 Q 149.435 21.418 149.435 22.574 A 2.668 2.668 0 0 0 149.437 22.663 A 4.078 4.078 0 0 0 149.467 23.048 Q 149.512 23.398 149.619 23.682 A 1.805 1.805 0 0 0 150.117 24.423 Q 150.757 24.903 152.277 26.023 A 127.744 127.744 0 0 0 152.714 26.343 Q 154.078 27.34 155.797 28.543 Q 157.797 29.943 159.637 31.383 A 1.439 1.439 0 0 1 160.147 32.065 Q 160.239 32.326 160.239 32.641 A 2.249 2.249 0 0 1 160.237 32.743 Q 160.197 33.623 159.557 34.103 L 159.077 34.423 Q 158.837 34.583 158.677 34.663 Q 156.677 35.543 154.717 36.343 A 315.956 315.956 0 0 0 154.225 36.544 A 348.545 348.545 0 0 0 150.677 38.023 Q 150.089 38.258 149.61 39.054 A 5.776 5.776 0 0 0 149.277 39.703 A 4.439 4.439 0 0 0 148.886 41.511 Z M 150.512 41.224 A 2.705 2.705 0 0 0 150.517 41.383 Q 150.597 42.743 150.917 43.303 Q 151.208 43.667 151.499 43.667 A 0.469 0.469 0 0 0 151.557 43.663 Q 151.849 43.626 152.074 43.557 A 2.092 2.092 0 0 0 152.117 43.543 Q 153.317 42.903 155.477 41.983 Q 157.637 41.063 159.797 40.103 Q 161.451 39.368 162.542 38.867 A 104.787 104.787 0 0 0 163.157 38.583 A 55.656 55.656 0 0 1 163.428 38.448 Q 163.825 38.253 164.51 37.92 A 551.166 551.166 0 0 1 164.957 37.703 A 10.643 10.643 0 0 0 167.291 36.151 A 11.891 11.891 0 0 0 167.437 36.023 Q 168.597 34.983 168.597 33.623 A 2.102 2.102 0 0 0 168.465 32.92 Q 168.212 32.209 167.477 31.343 Q 166.514 30.208 165.109 28.985 A 32.629 32.629 0 0 0 164.637 28.583 Q 162.917 27.143 161.157 25.863 A 343.366 343.366 0 0 0 159.694 24.804 Q 159.025 24.323 158.427 23.899 A 192.114 192.114 0 0 0 158.037 23.623 A 142.033 142.033 0 0 1 157.488 23.233 Q 156.8 22.743 156.456 22.482 A 9.133 9.133 0 0 1 156.277 22.343 A 2.312 2.312 0 0 0 156.136 22.215 Q 155.859 21.981 155.277 21.583 Q 154.517 21.063 153.797 20.623 A 4.11 4.11 0 0 0 153.489 20.451 Q 152.987 20.201 152.677 20.263 A 0.988 0.988 0 0 0 152.484 20.337 Q 152.204 20.474 151.797 20.823 A 3.418 3.418 0 0 0 151.355 21.274 A 2.531 2.531 0 0 0 150.997 21.863 Q 150.837 22.423 151.077 22.703 Q 151.292 22.953 151.442 23.108 A 3.991 3.991 0 0 0 151.477 23.143 Q 151.934 23.47 153.219 24.197 A 90.229 90.229 0 0 0 153.837 24.543 Q 155.637 25.543 157.717 26.903 Q 159.797 28.263 161.357 29.823 Q 162.446 30.912 162.775 32.02 A 3.369 3.369 0 0 1 162.917 32.983 A 1.185 1.185 0 0 1 162.921 33.081 Q 162.921 33.895 161.802 34.708 A 6.538 6.538 0 0 1 161.517 34.903 A 16.505 16.505 0 0 1 160.099 35.72 Q 159.109 36.23 157.917 36.703 Q 155.797 37.543 153.717 38.263 A 9.1 9.1 0 0 1 153.086 38.447 A 10.959 10.959 0 0 1 152.677 38.543 A 2.467 2.467 0 0 0 152.098 38.741 A 2.092 2.092 0 0 0 151.717 38.983 Q 150.512 39.962 150.512 41.224 Z M 19.157 43.303 A 1.722 1.722 0 0 0 19.37 42.881 Q 19.525 42.448 19.576 41.785 A 8.417 8.417 0 0 0 19.597 41.383 A 2.794 2.794 0 0 0 19.598 41.301 Q 19.598 40.38 18.985 39.608 A 4.095 4.095 0 0 0 18.357 38.983 A 2.18 2.18 0 0 0 17.651 38.61 A 2.677 2.677 0 0 0 17.397 38.543 Q 16.837 38.423 16.357 38.263 Q 14.357 37.543 12.197 36.703 A 24.349 24.349 0 0 1 10.561 36.001 Q 9.764 35.621 9.098 35.22 A 12.958 12.958 0 0 1 8.597 34.903 A 5.844 5.844 0 0 1 8.001 34.453 Q 7.157 33.718 7.157 32.983 Q 7.157 31.761 8.165 30.514 A 7.787 7.787 0 0 1 8.717 29.903 Q 10.277 28.343 12.357 26.983 Q 14.437 25.623 16.237 24.623 Q 17.79 23.76 18.42 23.344 A 5.947 5.947 0 0 0 18.597 23.223 Q 18.741 23.078 18.951 22.803 A 9.372 9.372 0 0 0 18.997 22.743 Q 19.237 22.423 19.077 21.943 Q 18.837 21.303 18.277 20.823 Q 17.717 20.343 17.397 20.263 A 0.422 0.422 0 0 0 17.318 20.251 Q 16.99 20.233 16.319 20.621 A 8.986 8.986 0 0 0 16.317 20.623 Q 15.557 21.063 14.837 21.623 Q 14.117 22.183 13.797 22.423 Q 13.47 22.684 12.503 23.346 A 108.227 108.227 0 0 1 12.037 23.663 Q 11.102 24.295 9.978 25.117 A 107.09 107.09 0 0 0 8.917 25.903 Q 7.157 27.223 5.477 28.623 A 27.504 27.504 0 0 0 4.025 29.918 Q 3.366 30.551 2.828 31.167 A 16.365 16.365 0 0 0 2.677 31.343 A 7.056 7.056 0 0 0 2.136 32.063 Q 1.557 32.955 1.557 33.703 A 2.784 2.784 0 0 0 2.124 35.376 A 4.193 4.193 0 0 0 2.717 36.023 A 11.445 11.445 0 0 0 4.522 37.356 A 10.167 10.167 0 0 0 5.157 37.703 L 6.917 38.583 A 24.834 24.834 0 0 0 7.761 39.01 Q 8.792 39.51 10.277 40.143 Q 12.437 41.063 14.637 41.983 Q 16.45 42.741 17.53 43.309 A 14.051 14.051 0 0 1 17.957 43.543 Q 18.138 43.603 18.388 43.641 A 4.398 4.398 0 0 0 18.557 43.663 A 0.583 0.583 0 0 0 18.621 43.667 Q 18.939 43.667 19.157 43.303 Z"/></svg>